<?xml version="1.0" encoding="utf-8"?>
<!-- Generator: Adobe Illustrator 27.0.0, SVG Export Plug-In . SVG Version: 6.00 Build 0)  -->
<svg version="1.1" xmlns="http://www.w3.org/2000/svg" xmlns:xlink="http://www.w3.org/1999/xlink" x="0px" y="0px"
	 viewBox="0 0 1440 800" style="enable-background:new 0 0 1440 800;" xml:space="preserve">
<style type="text/css">
	.st0{display:none;}
	.st1{display:inline;fill:#FFFFFF;}
	.st2{display:inline;fill:#F4EFEC;}
	.st3{fill:#FFFFFF;}
	.st4{fill:none;}
	.st5{fill:#F4EFEC;}
	.st6{fill:#FCF5F2;}
</style>
<g id="圖層_1" class="st0">
	<g id="_圖層_1">
		<rect class="st1" width="1440" height="800"/>
		<path class="st2" d="M1377.6,412c-0.2-1-0.6-2-1.1-2.8c-0.9-1.4-2.1-2.7-3-4.1c-0.2-0.3-0.3-1-0.1-1.3c1-1.2,2-2.5,3.2-3.5
			c2.1-1.8,2.6-4.2,1.3-6.6c-0.6-1-1.2-2.1-1.6-3.2c-0.6-2-0.9-4.1-1.4-6.1c-0.3-1.1-1.5-2-0.6-3.3c0.1-0.1,0-0.4-0.1-0.5
			c-1.2-1.2-0.8-2.7-0.8-4.1c0-5-1.5-9.5-4.5-13.4c-3.8-4.9-8.2-9-13.9-11.6c-5.4-2.4-10.7-4.9-16.4-6.5c-12.8-3.6-25.8-5.8-39-6.5
			c-9.1-0.5-18.2-1.1-27.4-0.8c-11.8,0.4-23.5,0.9-35.2,2.8c-8.6,1.4-17,3.4-24.8,7.2c-11.7,5.7-18.3,15.1-20.1,28.2
			c-0.2,1.7-0.2,3.5-1.5,4.9c-0.9,0.9-1.5,2.1-2.1,3.3c-1.2,2.6-2.1,5.3-0.9,8.1c0.7,1.7,0.7,3.3-0.1,4.9c-1.2,2.5-0.3,5,2.1,6.3
			c0.7,0.4,1.7,0.6,2.1,1.2c0.6,0.8,1.5,2.4,1.2,2.9c-1.2,1.9-1.9,4.1-4.1,5.4c-2.6,1.5-3.9,4.1-3.8,7.2c0.1,2.2,0.7,4.5,1,6.7
			c0.3,2.3,0.6,4.6,0.9,7c0,0.2,0,0.5-0.1,0.6c-0.7,1.6-0.3,3.2,0.3,4.8c0.4,1.1,0.7,2.2,0.8,3.4c1.3,8.1,4.8,14.8,11.2,20.1
			c7.9,6.5,16.6,11.3,26.2,14.5c4.7,1.5,9.6,2.4,14.4,3.6c11.1,2.7,22.3,3.9,33.6,4c7.6,0,15.3,0,23.8,0c1.7-0.2,4.3-0.3,6.9-0.7
			c5.3-0.8,10.7-0.5,15.9-2.1c4.8-1.5,9.8-2.6,14.7-3.7c7.8-1.7,14.9-4.8,21.4-9.4c6.7-4.7,11.3-10.9,13.9-18.7
			c0.3-1.1,0.8-2.3,1.5-3.1c2-2.4,2-5.1,1.6-8c-0.2-1.3-0.5-2.5,0.7-3.5c0.2-0.2,0.3-0.6,0.3-0.9c-0.1-1.8,0.7-3,2.3-3.9
			c0.6-0.3,1.2-0.9,1.5-1.5c1.9-3.5,1.2-7.2,0.9-10.9C1378.4,416.2,1378.1,414,1377.6,412L1377.6,412z"/>
		<path class="st2" d="M1003,558.8c-0.2-0.8-0.5-1.5-0.9-2.2c-0.7-1.1-1.6-2.1-2.3-3.1c-0.2-0.2-0.2-0.8,0-1c0.8-1,1.5-1.9,2.4-2.7
			c1.6-1.4,2-3.2,1-5.1c-0.4-0.8-0.9-1.6-1.2-2.5c-0.4-1.5-0.7-3.2-1.1-4.7c-0.2-0.8-1.1-1.5-0.5-2.5c0-0.1,0-0.3-0.1-0.3
			c-0.9-0.9-0.6-2-0.6-3.1c0-3.8-1.2-7.3-3.5-10.3c-2.9-3.7-6.3-6.9-10.7-8.9c-4.1-1.8-8.2-3.8-12.6-5c-9.8-2.8-19.8-4.5-30-5
			c-7-0.4-14-0.9-21-0.6c-9,0.3-18,0.7-27,2.1c-6.6,1-13,2.6-19.1,5.6c-9,4.4-14.1,11.6-15.4,21.6c-0.2,1.3-0.1,2.7-1.2,3.8
			c-0.7,0.7-1.2,1.6-1.6,2.5c-0.9,2-1.6,4-0.7,6.2c0.5,1.3,0.5,2.5-0.1,3.8c-0.9,1.9-0.2,3.8,1.6,4.8c0.5,0.3,1.3,0.5,1.6,0.9
			c0.5,0.7,1.1,1.8,0.9,2.2c-1,1.4-1.5,3.2-3.1,4.2c-2,1.2-3,3.2-2.9,5.5c0.1,1.7,0.5,3.4,0.7,5.1c0.2,1.8,0.5,3.6,0.7,5.3
			c0,0.2,0,0.3,0,0.5c-0.5,1.3-0.2,2.5,0.2,3.7c0.3,0.8,0.5,1.7,0.6,2.6c1,6.2,3.7,11.4,8.6,15.4c6,5,12.7,8.7,20.1,11.1
			c3.6,1.2,7.4,1.9,11,2.8c8.5,2.1,17.1,3,25.8,3c5.9,0,11.7,0,18.3,0c1.3-0.1,3.3-0.2,5.3-0.5c4-0.6,8.2-0.4,12.2-1.6
			c3.7-1.2,7.5-2,11.3-2.9c6-1.3,11.5-3.7,16.5-7.2c5.2-3.6,8.7-8.3,10.6-14.4c0.3-0.8,0.6-1.7,1.1-2.4c1.6-1.8,1.5-4,1.2-6.1
			c-0.1-1-0.4-1.9,0.5-2.7c0.2-0.1,0.2-0.5,0.2-0.7c-0.1-1.3,0.5-2.3,1.7-3c0.5-0.3,0.9-0.7,1.2-1.2c1.5-2.7,0.9-5.5,0.7-8.4
			C1003.5,562,1003.3,560.4,1003,558.8L1003,558.8z"/>
		<path class="st2" d="M853.8,184.9c-0.2-0.8-0.5-1.7-1-2.4c-0.8-1.2-1.8-2.3-2.6-3.5c-0.2-0.3-0.2-0.9,0-1.1c0.8-1.1,1.7-2.1,2.7-3
			c1.8-1.6,2.3-3.6,1.2-5.7c-0.5-0.9-1.1-1.8-1.3-2.8c-0.5-1.7-0.8-3.5-1.2-5.3c-0.2-0.9-1.3-1.7-0.5-2.9c0-0.1,0-0.3-0.1-0.4
			c-1-1-0.7-2.3-0.7-3.5c0-4.3-1.3-8.2-3.9-11.5c-3.3-4.2-7.1-7.8-12.1-10c-4.7-2.1-9.3-4.2-14.2-5.6c-11.1-3.1-22.3-5-33.8-5.7
			c-7.9-0.4-15.8-1-23.7-0.7c-10.2,0.4-20.4,0.8-30.5,2.4c-7.4,1.2-14.7,2.9-21.5,6.3c-10.1,4.9-15.9,13.1-17.4,24.3
			c-0.2,1.5-0.2,3-1.3,4.2c-0.8,0.8-1.3,1.8-1.8,2.8c-1.1,2.2-1.8,4.6-0.8,7c0.6,1.5,0.6,2.8-0.1,4.2c-1,2.2-0.3,4.3,1.8,5.4
			c0.6,0.3,1.4,0.5,1.8,1.1c0.5,0.7,1.3,2.1,1,2.5c-1.1,1.6-1.7,3.6-3.5,4.7c-2.3,1.3-3.4,3.6-3.3,6.2c0.1,1.9,0.6,3.9,0.8,5.8
			c0.3,2,0.5,4,0.8,6c0,0.2,0,0.4,0,0.6c-0.6,1.4-0.2,2.8,0.2,4.2c0.3,0.9,0.6,1.9,0.7,2.9c1.2,7,4.2,12.8,9.7,17.4
			c6.8,5.6,14.3,9.8,22.7,12.5c4.1,1.3,8.3,2.1,12.5,3.1c9.6,2.3,19.3,3.4,29.1,3.4c6.6,0,13.2,0,20.6,0c1.5-0.1,3.7-0.3,6-0.6
			c4.6-0.7,9.2-0.4,13.8-1.8c4.2-1.3,8.5-2.3,12.7-3.2c6.7-1.5,12.9-4.2,18.6-8.1c5.8-4,9.8-9.4,12-16.1c0.3-0.9,0.7-2,1.3-2.7
			c1.8-2.1,1.7-4.4,1.4-6.9c-0.2-1.1-0.4-2.2,0.6-3c0.2-0.1,0.2-0.5,0.2-0.8c-0.1-1.5,0.6-2.6,2-3.4c0.5-0.3,1-0.8,1.3-1.3
			c1.6-3,1-6.2,0.8-9.4C854.5,188.4,854.2,186.6,853.8,184.9L853.8,184.9z"/>
		<path class="st2" d="M367.6,559c-0.2-1-0.6-2-1.1-2.8c-0.9-1.4-2.1-2.7-3-4.1c-0.2-0.3-0.3-1,0-1.3c1-1.2,2-2.5,3.1-3.5
			c2.1-1.8,2.6-4.2,1.4-6.6c-0.6-1-1.2-2.1-1.5-3.2c-0.6-2-0.9-4.1-1.4-6.1c-0.3-1.1-1.5-2-0.6-3.3c0.1-0.1,0-0.4-0.1-0.5
			c-1.2-1.2-0.8-2.7-0.8-4.1c0-5-1.5-9.5-4.5-13.4c-3.8-4.9-8.2-9-14-11.6c-5.4-2.4-10.7-4.9-16.4-6.5c-12.8-3.6-25.8-5.8-39-6.5
			c-9.1-0.5-18.2-1.1-27.4-0.8c-11.8,0.4-23.5,0.9-35.2,2.8c-8.6,1.4-17,3.4-24.8,7.2c-11.7,5.7-18.4,15.1-20.1,28.2
			c-0.2,1.7-0.2,3.5-1.5,4.9c-0.9,0.9-1.5,2.1-2.1,3.3c-1.2,2.6-2.1,5.3-0.9,8.1c0.7,1.7,0.7,3.3-0.1,4.9c-1.2,2.5-0.3,5,2.1,6.3
			c0.7,0.4,1.6,0.6,2.1,1.2c0.6,0.8,1.5,2.4,1.2,2.9c-1.2,1.9-1.9,4.1-4.1,5.4c-2.6,1.5-3.9,4.1-3.8,7.2c0.1,2.2,0.6,4.5,1,6.7
			c0.3,2.3,0.6,4.6,0.9,7c0,0.2,0,0.5-0.1,0.7c-0.7,1.7-0.3,3.2,0.3,4.8c0.4,1.1,0.6,2.2,0.8,3.3c1.4,8.1,4.8,14.8,11.2,20.1
			c7.9,6.5,16.6,11.3,26.2,14.5c4.7,1.5,9.6,2.4,14.4,3.6c11.1,2.7,22.3,3.9,33.6,4c7.6,0,15.3,0,23.8,0c1.7-0.2,4.3-0.3,6.9-0.7
			c5.3-0.8,10.7-0.5,15.9-2.1c4.8-1.5,9.8-2.6,14.7-3.7c7.8-1.7,14.9-4.8,21.5-9.4c6.7-4.7,11.4-10.8,13.9-18.7
			c0.4-1.1,0.8-2.3,1.5-3.1c2-2.4,2-5.1,1.6-8c-0.2-1.3-0.5-2.5,0.7-3.5c0.2-0.2,0.3-0.6,0.3-0.9c-0.1-1.8,0.7-3,2.3-3.9
			c0.6-0.3,1.2-0.9,1.5-1.5c1.9-3.5,1.2-7.2,0.9-10.9C368.4,563.2,368.1,561,367.6,559L367.6,559z"/>
		<path class="st2" d="M177.5,312c-0.3-2.9-0.8-5.8-1.3-8.7c-0.3-1.3-0.8-2.7-1.6-3.9c-1.3-2-2.9-3.7-4.2-5.6
			c-0.3-0.4-0.4-1.4-0.1-1.8c1.4-1.7,2.7-3.4,4.4-4.8c2.9-2.5,3.6-5.8,1.9-9.1c-0.8-1.4-1.7-2.9-2.1-4.4c-0.8-2.8-1.2-5.6-1.9-8.5
			c-0.4-1.5-2-2.7-0.8-4.5c0.1-0.1,0-0.5-0.1-0.6c-1.7-1.6-1.1-3.7-1.1-5.6c0-6.9-2.1-13.1-6.2-18.4c-5.2-6.7-11.3-12.4-19.3-16
			c-7.4-3.3-14.8-6.8-22.7-9c-17.7-4.9-35.6-8-53.9-9c-12.6-0.7-25.2-1.6-37.8-1.1c-10.2,0.4-20.3,0.8-30.4,1.6v198.6
			c10.6,1.7,21.2,2.5,32,2.5c10.5,0,21.1,0,32.9,0c2.3-0.2,5.9-0.4,9.5-1c7.3-1.1,14.8-0.7,21.9-2.9c6.7-2.1,13.5-3.6,20.3-5.2
			c10.7-2.4,20.6-6.7,29.6-13c9.3-6.5,15.7-15,19.1-25.8c0.5-1.5,1-3.1,2-4.3c2.8-3.3,2.8-7.1,2.2-11c-0.2-1.8-0.6-3.5,1-4.8
			c0.3-0.2,0.4-0.8,0.4-1.2c-0.1-2.4,1-4.2,3.1-5.4c0.9-0.5,1.7-1.3,2.1-2.1C178.9,322.2,177.9,317,177.5,312L177.5,312z"/>
		<path class="st2" d="M1418.5,130.1c-0.4-1.8-1.1-3.6-2.1-5.2c-1.7-2.6-3.8-5-5.6-7.5c-0.4-0.6-0.5-1.9-0.1-2.4
			c1.8-2.3,3.7-4.6,5.8-6.5c3.8-3.3,4.9-7.8,2.5-12.2c-1.1-1.9-2.3-3.8-2.9-5.9c-1.1-3.7-1.7-7.6-2.6-11.3c-0.5-2-2.7-3.7-1.1-6.1
			c0.1-0.2,0-0.7-0.2-0.8c-2.2-2.2-1.5-4.9-1.5-7.5c-0.1-9.2-2.8-17.6-8.4-24.7c-7-9-15.2-16.7-25.9-21.4c-10-4.4-19.9-9.1-30.4-12
			c-9.1-2.5-18.2-4.7-27.5-6.5h-172.1c-12.1,2.5-23.9,5.9-35,11.4c-21.6,10.6-34.1,28-37.3,52.1c-0.4,3.1-0.3,6.4-2.8,9.1
			c-1.6,1.7-2.8,3.9-3.9,6c-2.3,4.8-3.8,9.7-1.6,15c1.3,3.2,1.3,6-0.2,9.1c-2.2,4.6-0.6,9.2,3.9,11.6c1.3,0.7,3.1,1.2,3.9,2.3
			c1.2,1.6,2.8,4.4,2.2,5.3c-2.3,3.4-3.6,7.7-7.6,10c-4.9,2.9-7.3,7.6-7,13.3c0.2,4.1,1.2,8.2,1.8,12.4c0.6,4.3,1.1,8.6,1.6,12.9
			c0.1,0.4,0.1,0.9-0.1,1.2c-1.3,3.1-0.5,5.9,0.5,8.9c0.7,2,1.2,4.1,1.6,6.2c2.5,14.9,8.9,27.4,20.8,37.2
			c14.6,12,30.8,20.9,48.5,26.8c8.7,2.9,17.8,4.5,26.7,6.7c20.5,5,41.3,7.2,62.4,7.3c14.2,0.1,28.3,0,44.2,0c3.1-0.3,8-0.6,12.8-1.3
			c9.8-1.5,19.8-0.9,29.5-3.9c8.9-2.8,18.1-4.9,27.3-6.9c14.4-3.2,27.7-8.9,39.8-17.4c12.5-8.6,21.1-20.1,25.7-34.6
			c0.7-2,1.4-4.2,2.7-5.8c3.8-4.4,3.7-9.5,3-14.8c-0.3-2.4-0.9-4.6,1.3-6.5c0.4-0.3,0.5-1.1,0.5-1.7c-0.2-3.2,1.3-5.6,4.2-7.2
			c1.2-0.6,2.2-1.7,2.9-2.9c3.5-6.4,2.2-13.4,1.6-20.1C1419.9,137.9,1419.2,134,1418.5,130.1L1418.5,130.1z"/>
	</g>
</g>
<g id="圖層_2">
	<g id="圖層_1_00000046316256702102896660000016285128965712177813_">
		<g>
			<path class="st3" d="M910.7-210.8c0-0.3,0-0.6-0.1-0.9c-0.1-0.9-0.2-1.8-0.4-2.7l-0.1-0.4c-0.1-0.3-0.2-1-0.6-1.5
				c-0.4-0.7-1-1.3-1.5-1.9c0,0,0-0.1,0-0.2c0.5-0.6,1-1.2,1.4-1.6c1.1-1,1.4-2.4,0.7-3.7c-0.1-0.2-0.2-0.3-0.3-0.5
				c-0.2-0.3-0.3-0.6-0.4-0.9c-0.1-0.5-0.2-1-0.3-1.4c-0.1-0.5-0.2-1-0.3-1.4c0-0.2-0.2-0.5-0.2-0.6c-0.2-0.3-0.2-0.4-0.1-0.6
				l0.1-0.1v-0.1c0-0.3-0.2-0.5-0.3-0.6c-0.2-0.2-0.2-0.6-0.2-1.1v-0.5c0-2.6-0.8-4.8-2.3-6.7c-2.2-2.8-4.4-4.6-6.8-5.7l-0.9-0.4
				c-2.2-1-4.5-2.1-7-2.7c-6.1-1.7-12.4-2.7-18.7-3.2c-4.3-0.3-8.8-0.5-13.2-0.4c-5.1,0.2-11,0.4-16.8,1.3c-4.9,0.7-8.7,1.8-12,3.5
				c-5.6,2.8-9,7.4-9.9,13.9c0,0.8,0,1.4-0.5,2c-0.5,0.5-0.8,1-1,1.7c-0.8,1.6-1,3-0.5,4.2c0.2,0.7,0.2,1.4-0.1,2
				c-0.7,1.4-0.2,2.8,1.2,3.6c0.1,0,0.2,0.1,0.3,0.1c0.2,0.1,0.4,0.2,0.5,0.3l0.1,0.1c0.1,0.2,0.4,0.7,0.5,0.9
				c-0.2,0.3-0.3,0.6-0.5,0.8c-0.3,0.6-0.6,1.2-1.3,1.5c-1.2,0.9-2,2.2-2,3.9c0,0.5,0.1,1.1,0.2,1.6c0.1,0.5,0.2,1,0.2,1.6
				c0.1,0.6,0.2,1.1,0.2,1.7c0.2,0.5,0.2,1.1,0.3,1.6v0.3c-0.4,0.9-0.1,1.8,0.1,2.5c0.2,0.5,0.3,1,0.4,1.5c0.7,4.2,2.5,7.4,5.5,9.9
				c3.9,3.2,8.1,5.5,12.6,7c1.4,0.4,2.9,0.8,4.3,1.1c0.9,0.2,1.7,0.4,2.6,0.6c4.9,1.2,10.4,1.9,16.2,1.9h0.4
				c1.6,0.1,3.4,0.1,5.1,0.1c1.5,0,3.1,0,4.7-0.1h1.1c0.3,0,0.6-0.1,0.9-0.1h0.4c2-0.1,4.1-0.3,6-0.6c0.9-0.1,1.8-0.2,2.8-0.5h0.1
				c0.2-0.1,0.5-0.1,0.7-0.2c2.3-0.7,4.6-1.2,7-1.7c3.7-0.8,7.2-2.3,10.4-4.6c3.3-2.2,5.6-5.3,6.8-9.2c0.2-0.5,0.3-1,0.6-1.3
				c1.1-1.3,1.1-2.8,0.9-4.1v-0.2c-0.1-0.6-0.1-0.8,0.3-1.1c0.2-0.2,0.3-0.5,0.2-0.9c0-0.6,0.2-1.1,0.9-1.4c0.5-0.3,0.8-0.6,0.8-0.9
				C910.9-207.8,910.8-209.3,910.7-210.8z M819.8-227.9c0.3-0.6,0.5-1.1,0.9-1.5c0.7-0.8,0.7-1.6,0.7-2.4l0,0c0,0,0-0.1,0-0.1
				c0-0.1,0-0.2,0-0.3c0-0.2,0.1-0.4,0.1-0.4c1-5.7,4-9.7,9.2-12.3c3.3-1.6,7-2.7,11.8-3.4c5.8-0.9,11.7-1.2,16.7-1.3
				c1,0,1.9-0.1,2.9-0.1c2.4,0,4.7,0.1,7.1,0.2l2.3,0.1h0.8c6.2,0.4,12.5,1.5,18.5,3.2c2.4,0.6,4.7,1.6,6.9,2.6l0.9,0.4
				c2.3,1,4.4,2.8,6.5,5.4c1.4,1.7,2.1,3.8,2.1,6.1v0.4c0,0.5-0.1,1.2,0.4,1.7c-0.2,0.5,0,1,0.2,1.3c0.1,0.1,0.1,0.3,0.2,0.4
				c0.1,0.5,0.2,1,0.3,1.4c0.1,0.5,0.2,1,0.3,1.4c0.1,0.4,0.3,0.8,0.5,1.2c0.1,0.1,0.2,0.3,0.2,0.5c0.5,0.9,0.3,1.9-0.5,2.6
				c-0.6,0.5-1.1,1.1-1.4,1.6l-88.2-5.6C819.1-225.8,819.3-226.7,819.8-227.9z M906.4-198.3c-0.4,0.5-0.6,1.1-0.8,1.6
				c-1.2,3.7-3.3,6.6-6.5,8.7c-3.1,2.2-6.5,3.6-10.1,4.4c-2.3,0.5-4.7,1.1-7,1.8c-1.6,0.5-3.3,0.7-5,0.8c-0.8,0.1-1.7,0.1-2.6,0.3
				c-0.7,0.1-1.5,0.2-2.2,0.2s-1.4,0.1-2.1,0.1h-9.9c-5.1-0.2-9.3-0.6-11.3-0.8c-1.8-0.3-3.5-0.6-5.2-1c-0.9-0.2-1.7-0.4-2.6-0.6
				c-1.5-0.3-2.9-0.7-4.3-1.1c-4.4-1.4-8.6-3.8-12.4-6.9c-2.9-2.3-4.5-5.3-5.2-9.3c0,0,0,0,0-0.1l87.6,0.2
				C907.1-199.4,906.9-198.8,906.4-198.3z M909.3-206.6c0,0-0.1,0.2-0.5,0.4c-0.9,0.5-1.4,1.3-1.3,2.3h0.1v0.1
				c-0.8,0.6-0.6,1.3-0.6,1.9v0.2c0,0.3,0.1,0.6,0.1,0.9l-87.8-0.3c-0.1-0.2-0.1-0.5-0.2-0.7c-0.3-0.8-0.3-1.4-0.1-2v-0.6
				c-0.1-0.6-0.2-1.1-0.2-1.7c-0.1-0.6-0.1-1.1-0.2-1.7c0-0.5-0.1-1.1-0.2-1.6c-0.1-0.5-0.2-1-0.2-1.5c0-1.4,0.6-2.4,1.6-3
				c0.9-0.4,1.3-1.2,1.6-1.9c0.2-0.3,0.3-0.6,0.5-0.8c0.3-0.5-0.1-1.2-0.5-1.8c-0.2-0.4-0.6-0.6-0.9-0.7c-0.1,0-0.2-0.1-0.2-0.1
				c-1-0.5-1.3-1.4-0.8-2.4c0.3-0.8,0.4-1.5,0.2-2.4l87.7,5.8c0,0.2,0,0.3,0.1,0.4l0.1,0.1c0.5,0.6,1,1.2,1.5,1.9
				c0.2,0.2,0.4,0.7,0.4,1.1l0.1,0.4c0.2,0.9,0.3,1.8,0.4,2.7c0,0.3,0,0.6,0.1,0.9C909.9-209.3,910-208,909.3-206.6z"/>
			<polygon class="st3" points="908.1,-218.4 908.1,-218.4 908.1,-218.4 			"/>
		</g>
	</g>
	<path class="st4" d="M1371.2,28.2c-8.5-3.9-17.3-7.9-26.5-10.2c-23.1-6.7-47.3-11-71.2-12.6h-3.1l-8.8-0.4
		c-9.2-0.4-18.1-0.8-27.3-0.8c-3.8,0-7.3,0.4-11.2,0.4c-19.2,0.4-41.9,1.6-64.3,5.1c-16.5,2.5-29.7,6.2-41.3,11.4
		c9.4-4,19.1-6.7,29.1-8.7h172.1c9.2,1.8,18.4,4,27.5,6.5c10.6,3,20.4,7.6,30.4,12c1.6,0.7,3.1,1.5,4.6,2.3
		c-2.1-1.4-4.3-2.5-6.5-3.5L1371.2,28.2z"/>
	<path class="st5" d="M1346,18.9c-9.1-2.5-18.2-4.7-27.5-6.5c-24.4-5-48.2-7-77.7-6.8c-16.5,0.1-35-1.7-51.3,0
		c-15.2,1.5-28.2,3.8-43.1,6.8c-10,2-19.7,4.8-29.1,8.7c-1.4,0.6-2.7,1.3-4.1,1.9c-20,10.2-31.6,25.9-35.4,48.3c0,0-0.4,1.1-0.5,1.7
		c-0.1,0.4-0.2,0.9-0.2,1.4c0,0.1,0,0.3,0.1,0.4l-0.1,0.1c0,3.1,0,6.3-2.7,9.4c-1.5,1.6-2.3,3.5-3.5,5.9c-1.9,4.7-2.7,8.3-1.9,11.8
		l339.4,22c1.2-2,3.1-4.3,5.4-6.3c3.1-2.8,3.8-6.7,1.9-10.2c0-0.8-0.4-1.6-0.8-2c-0.8-1.6-1.5-3.1-1.9-4.7c-0.4-1.6-0.8-3.5-1.2-5.5
		c-0.4-1.6-0.8-3.5-1.2-5.5c-0.4-0.4-0.4-1.2-0.8-1.6c-0.8-1.2-1.5-3.1-0.8-5.1c-1.9-2-1.5-4.7-1.5-6.7V75c0-9-2.7-17.3-8.1-24
		c-6.1-7.7-12.1-13.6-18.5-17.7c-1.5-0.8-3-1.6-4.6-2.3C1366.5,26.6,1356.6,21.9,1346,18.9z"/>
	<path class="st5" d="M1064.5,171.2c0,0.2,0,0.3-0.1,0.5c-0.5,1.2-0.7,2.5-0.7,3.7c0-1.2,0.2-2.4,0.8-3.6V171.2z"/>
	<path class="st5" d="M1065.2,84.7c-0.7,2.9-0.7,5.8,0.6,8.9c0.3,0.6,0.5,1.2,0.6,1.9c-0.1-0.8-0.2-1.5-0.4-2.3
		C1065,90.6,1064.7,87.8,1065.2,84.7z"/>
	<path class="st5" d="M1412.2,73.4c0.1-0.1,0.1-0.2,0.2-0.3l-0.1,0.1C1412.3,73.2,1412.2,73.3,1412.2,73.4z"/>
	<path class="st5" d="M1064.5,170.5c0,0,0,0.1,0,0.1L1064.5,170.5C1064.5,170.5,1064.5,170.5,1064.5,170.5z"/>
	<path class="st5" d="M1400.5,222.1c1.4-2.9,2.6-5.8,3.6-9c0.4-1.4,0.9-2.8,1.6-4.1c-1.1,1.2-1.5,3.1-2.3,5.1
		C1402.6,216.8,1401.7,219.5,1400.5,222.1z"/>
	<path class="st5" d="M1061.8,151.1c0.2,1.1,0.4,2.2,0.6,3.3c-0.1-1.1-0.3-2.1-0.5-3.1C1061.8,151.2,1061.8,151.2,1061.8,151.1z"/>
	<path class="st5" d="M1061,144.7c0-2,0.3-3.8,0.9-5.5C1061.3,140.9,1061,142.7,1061,144.7z"/>
	<path class="st5" d="M1417.7,162.7c0,0.2-0.1,0.5-0.2,0.7c0.4-0.5,0.8-1,1.1-1.5c1.9-3.5,2.4-7.2,2.3-10.9
		C1420.9,154.9,1420.3,158.8,1417.7,162.7z"/>
	<path class="st5" d="M1068.7,199.1c0,0.4,0,0.4,0,0.4c2.7,15.7,8.8,27.5,20,36.5c14.6,12.2,30.8,21.6,47.7,27.1
		c5.4,1.6,10.8,3.1,16.5,4.3c3.5,0.8,6.5,1.6,10,2.4c6.5,1.6,13.1,2.8,20,3.9c7.7,0.8,23.9,2.4,43.5,3.1h38.1c2.7,0,5.4-0.4,8.1-0.4
		c2.7,0,5.8-0.4,8.5-0.8c3.5-0.8,6.9-0.8,10-1.2c6.5-0.4,13.1-1.2,19.2-3.1c8.8-2.8,18.1-5.1,26.9-7.1c13.9-3.1,26.9-8.6,38.9-17.3
		c12.3-8.3,20.4-19.6,25-34.2c0.8-2,1.5-4.3,3.1-6.3c1.9-2,2.7-4.3,1.5-6.7L1068.7,199.1z"/>
	<path class="st6" d="M1418.1,154.3c-0.4-3.5-0.8-7.1-1.5-10.6l-0.4-1.6c0-1.6-0.8-3.5-1.5-4.3c-1.9-2.8-3.8-5.1-5.8-7.5l-0.4-0.4
		c-0.4-0.4-0.4-0.8-0.4-1.6l-337.4-22.8c0.8,3.5,0.4,6.3-0.8,9.4c-1.9,3.9-0.8,7.5,3.1,9.4c0,0,0.4,0.4,0.8,0.4
		c1.2,0.4,2.7,1.2,3.5,2.8c1.5,2.4,3.1,5.1,1.9,7.1c-0.8,0.8-1.2,2-1.9,3.1c-1.2,2.8-2.7,5.9-6.2,7.5c-3.8,2.4-6.2,6.3-6.2,11.8
		c0,2,0.4,3.9,0.8,5.9c0.4,2,0.8,4.3,0.8,6.3c0.4,2.4,0.4,4.3,0.8,6.7c0,2.4,0.4,4.3,0.8,6.7v2.4c-0.8,2.4-0.8,4.7,0.4,7.9
		c0.4,0.8,0.4,2,0.8,2.8l337.8,1.2c0-1.2-0.4-2.4-0.4-3.5v-0.8c0-2.4-0.8-5.1,2.3-7.5v-0.4h-0.4c-0.4-3.9,1.5-7.1,5-9
		c1.5-0.8,1.9-1.6,1.9-1.6c2.7-5.5,2.3-10.6,3.1-16.1C1418.1,156.7,1418.1,155.5,1418.1,154.3z"/>
	<path class="st5" d="M1415.8,108.9c-1.5,1.6-3.5,3.9-5.4,6.3c0,0.4,0,0.8,0,0.8c0,0,0,0,0,0c0-0.4,0.1-0.7,0.2-0.9
		c1.8-2.3,3.7-4.6,5.8-6.5c3.4-2.9,4.6-6.7,3.2-10.6C1420.5,101.9,1419,105.9,1415.8,108.9z"/>
	<path class="st5" d="M1409.2,192v0.8c0.7,4.4,0.7,9.3-1.9,13.9c3.3-4.3,3.2-9.1,2.5-14.2c-0.2-1.4-0.5-2.9-0.2-4.2
		C1408.9,189.3,1408.9,190.2,1409.2,192z"/>
	<path class="st5" d="M1411.3,173.4c0.3-0.4,0.4-1,0.3-1.4c-0.1-1.8,0.3-3.3,1.2-4.6c-1.2,1.1-1.6,2.6-1.6,4.3
		C1411.3,172.4,1411.3,172.9,1411.3,173.4z"/>
	<path class="st3" d="M1413.5,79.1c0.9,3.8,1.5,7.6,2.6,11.3c0.6,2.1,1.8,4,2.9,5.9c0.3,0.6,0.5,1.1,0.7,1.7
		c-0.2-1.2-0.6-2.4-1.3-3.6c-0.4-0.8-0.8-1.2-1.2-2c-0.8-1.2-1.2-2.4-1.5-3.5c-0.4-2-0.8-3.9-1.2-5.5c-0.4-2-0.8-3.9-1.2-5.5
		c0-0.8-0.8-2-0.8-2.4c-0.7-1-0.8-1.5-0.5-2.1C1411.1,75.6,1413.1,77.2,1413.5,79.1z"/>
	<path class="st3" d="M1410.7,117.4c1.8,2.6,3.9,4.9,5.6,7.5c1,1.5,1.7,3.4,2.1,5.2l0,0c0.8,3.9,1.5,7.8,1.8,11.7
		c0.3,3.1,0.7,6.1,0.7,9.2c0-2-0.1-4-0.2-6c0-1.2,0-2.4-0.4-3.5c-0.4-3.5-0.8-7.1-1.5-10.6l-0.4-1.6c-0.4-1.2-0.8-3.9-2.3-5.9
		c-1.5-2.7-3.8-5.1-5.8-7.5C1410.4,116.5,1410.5,117.1,1410.7,117.4z"/>
	<path class="st3" d="M1071.4,85c2.5-2.7,2.4-5.9,2.8-9.1c3.2-24.1,15.6-41.5,37.3-52.1c2-1,4-1.8,6-2.7c11.7-5.3,24.8-9,41.3-11.4
		c22.3-3.5,45-4.7,64.3-5.1c3.8,0,7.3-0.4,11.2-0.4c9.2,0,18.1,0.4,27.3,0.8l8.8,0.4h3.1c23.9,1.6,48.1,5.9,71.2,12.6
		c9.2,2.4,18.1,6.3,26.5,10.2l3.5,1.6c2.2,1,4.4,2.2,6.5,3.5c8.5,4.7,15.3,11.4,21.3,19.1c5.6,7.1,8.3,15.5,8.4,24.7
		c0,2.6-0.8,5.4,1.5,7.5c0.2,0.2,0.3,0.7,0.2,0.8c0,0,0,0,0,0.1l0.3-0.3v-0.4c0-1.2-0.8-2-1.2-2.4c-0.8-0.8-0.8-2.4-0.8-4.3v-2
		c0-10.2-3.1-18.9-8.8-26.3c-8.5-11-16.9-18.1-26.2-22.4l-3.5-1.6c-8.5-3.9-17.3-8.3-26.9-10.6c-23.5-6.7-47.7-10.6-72-12.6
		c-16.5-1.2-33.9-2-50.8-1.6c-19.6,0.8-42.3,1.6-64.6,5.1c-18.9,2.8-33.5,7.1-46.2,13.8c-21.5,11-34.6,29.1-38.1,54.6
		c0,3.1,0,5.5-1.9,7.9c-1.9,2-3.1,3.9-3.8,6.7c-1.4,2.9-2.3,5.5-2.7,8.1c0.5-2.1,1.3-4.1,2.3-6.1C1068.5,88.9,1069.7,86.8,1071.4,85
		z"/>
	<path class="st3" d="M1378.4,247.6c-12.2,8.4-25.4,14.1-39.8,17.4c-9.2,2-18.3,4.1-27.3,6.9c-9.7,3-19.7,2.4-29.5,3.9
		c-4.8,0.7-9.7,1-12.8,1.3c-15.9,0-30,0-44.2,0c-21.1-0.1-41.9-2.3-62.4-7.3c-8.9-2.2-18-3.8-26.7-6.7c-17.8-5.9-34-14.8-48.5-26.8
		c-11.9-9.8-18.3-22.2-20.8-37.2c-0.4-2.1-0.9-4.2-1.6-6.2c-0.6-1.8-1.1-3.5-1.1-5.2c0,2.3,0.6,4.4,1.1,6.3c0.8,2,1.2,3.9,1.5,5.9
		c2.7,16.5,9.6,29.1,21.2,38.9c15,12.6,31.2,21.6,48.5,27.5c5.4,1.6,11.2,3.1,16.5,4.3c3.5,0.8,6.5,1.6,10,2.4
		c18.9,4.7,40,7.5,62.3,7.5h1.5c6.2,0.4,13.1,0.4,19.6,0.4c5.8,0,11.9,0,18.1-0.4h4.2c1.2,0,2.3-0.4,3.5-0.4h1.5
		c7.7-0.4,15.8-1.2,23.1-2.4c3.5-0.4,6.9-0.8,10.8-2h0.4c0.8-0.4,1.9-0.4,2.7-0.8c8.8-2.8,17.7-4.7,26.9-6.7
		c14.2-3.1,27.7-9,40-18.1c10.4-7.1,18.2-16.5,23.2-28.1C1395.6,232.4,1388.2,240.9,1378.4,247.6z"/>
	<path class="st3" d="M1409.6,176c0.2-0.2,0.4-0.5,0.8-0.7c0.5-0.5,0.8-1.1,0.9-1.8c-0.1,0.1-0.1,0.2-0.2,0.2
		C1410.3,174.4,1409.8,175.1,1409.6,176z"/>
	<path class="st3" d="M1405.8,209C1405.8,209,1405.8,208.9,1405.8,209c0.6-0.7,1.1-1.5,1.6-2.2c-0.2,0.2-0.3,0.4-0.5,0.6
		C1406.4,207.8,1406.1,208.4,1405.8,209z"/>
	<path class="st3" d="M1415.8,164.8c-1.3,0.7-2.3,1.6-3,2.6c0.5-0.4,1.1-0.8,1.8-1.2c1.5-0.9,2.6-1.9,2.9-2.8
		C1417,164,1416.4,164.5,1415.8,164.8z"/>
	<path class="st3" d="M1068.1,131.9c4-2.4,5.3-6.6,7.6-10c0.6-0.9-1-3.8-2.2-5.3c-0.8-1.1-2.5-1.6-3.9-2.3c-4.5-2.4-6.2-7-3.9-11.6
		c1.2-2.4,1.4-4.8,0.8-7.2c0.2,2,0,3.9-0.8,5.6c-2.7,5.5-0.8,11,4.6,14.1c0.4,0,0.8,0.4,1.2,0.4c0.8,0.4,1.5,0.8,1.9,1.2l0.4,0.4
		c0.4,0.8,1.5,2.8,1.9,3.5c-0.8,1.2-1.2,2.4-1.9,3.1c-1.2,2.4-2.3,4.7-5,5.9c-3.2,2.4-5.6,5.6-6.8,9.5
		C1063,136.2,1065,133.7,1068.1,131.9z"/>
	<path class="st3" d="M1061,144.7c0,0.1,0,0.2,0,0.4c0,1.9,0.4,4.1,0.7,6.1c-0.3-2-0.6-3.9-0.7-5.9C1061,145,1061,144.8,1061,144.7z
		"/>
	<path class="st3" d="M1064.5,170.6v0.5C1064.5,171,1064.5,170.8,1064.5,170.6z"/>
	<path class="st3" d="M1062.8,157.6c-0.1-1.1-0.3-2.1-0.5-3.2c0.1,1,0.2,2.1,0.2,3.2c0.4,2.4,0.8,4.3,0.8,6.7c0.8,2,0.8,4.3,1.1,6.2
		c0,0,0-0.1,0-0.1C1064,166.1,1063.4,161.8,1062.8,157.6z"/>
	<path class="st3" d="M1421,163.4c-0.1-3.1-0.5-6.1-0.7-9.2c-0.3-3.9-1-7.8-1.8-11.7l0,0c-0.4-1.8-1.1-3.6-2.1-5.2
		c-1.7-2.6-3.8-5-5.6-7.5c-0.2-0.3-0.4-0.9-0.3-1.5c0,0,0,0,0,0c0,0,0-0.4,0-0.8c1.9-2.4,3.8-4.7,5.4-6.3c3.2-3,4.7-6.9,4-10.9
		c-0.2-0.6-0.4-1.1-0.7-1.7c-1.1-1.9-2.3-3.8-2.9-5.9c-1.1-3.7-1.7-7.6-2.6-11.3c-0.5-1.9-2.5-3.5-1.3-5.7c0-0.1,0.1-0.2,0.1-0.3
		l0.1-0.1c0,0,0,0,0-0.1c0.1-0.2,0-0.7-0.2-0.8c-2.2-2.2-1.5-5-1.5-7.5c-0.1-9.2-2.8-17.6-8.4-24.7c-6-7.6-12.8-14.3-21.3-19.1
		c6.4,4.1,12.5,10,18.5,17.7c5.4,6.7,8.1,14.9,8.1,24v1.6c0,2-0.4,4.7,1.5,6.7c-0.8,2,0,3.9,0.8,5.1c0.4,0.4,0.4,1.2,0.8,1.6
		c0.4,2,0.8,3.9,1.2,5.5c0.4,2,0.8,3.9,1.2,5.5c0.4,1.6,1.2,3.1,1.9,4.7c0.4,0.4,0.8,1.2,0.8,2c1.9,3.5,1.2,7.5-1.9,10.2
		c-2.3,2-4.2,4.3-5.4,6.3l-339.4-22c-0.8-3.5,0-7.1,1.9-11.8c1.2-2.4,1.9-4.3,3.5-5.9c2.7-3.1,2.7-6.3,2.7-9.4l0.1-0.1
		c0-0.1-0.1-0.2-0.1-0.4c0-0.5,0.1-0.9,0.2-1.4c0.1-0.6,0.5-1.7,0.5-1.7c3.8-22.4,15.4-38.1,35.4-48.3c1.3-0.7,2.7-1.3,4.1-1.9
		c-2,0.8-4,1.7-6,2.7c-21.6,10.6-34.1,28-37.3,52.1c-0.4,3.1-0.3,6.4-2.8,9.1c-1.6,1.7-2.8,3.9-3.9,6c-1,2-1.8,4-2.3,6.1
		c-0.5,3-0.3,5.9,0.8,8.4c0.2,0.8,0.4,1.5,0.4,2.3c0.6,2.4,0.4,4.8-0.8,7.2c-2.2,4.6-0.6,9.2,3.9,11.6c1.3,0.7,3.1,1.2,3.9,2.3
		c1.2,1.5,2.8,4.4,2.2,5.3c-2.3,3.4-3.6,7.7-7.6,10c-3,1.8-5.1,4.3-6.2,7.3c-0.5,1.7-0.8,3.5-0.9,5.5c0,0.2,0,0.4,0,0.5
		c0.1,2,0.4,3.9,0.7,5.9c0,0.1,0,0.1,0,0.2c0.2,1,0.4,2,0.5,3.1c0.2,1.1,0.4,2.1,0.5,3.2c0.6,4.3,1.1,8.6,1.6,12.9c0,0,0,0.1,0,0.1
		c0,0,0,0,0,0v0.1c0,0.2,0,0.3,0,0.5v0.6c-0.5,1.2-0.7,2.4-0.8,3.6c0,1.8,0.5,3.5,1.1,5.2c0.7,2,1.2,4.1,1.6,6.2
		c2.5,14.9,8.9,27.4,20.8,37.2c14.6,12,30.8,21,48.5,26.8c8.7,2.9,17.8,4.5,26.7,6.7c20.5,5,41.3,7.2,62.4,7.3
		c14.2,0.1,28.3,0,44.2,0c3.1-0.3,8-0.6,12.8-1.3c9.8-1.5,19.8-0.9,29.5-3.9c8.9-2.8,18.1-4.9,27.3-6.9c14.4-3.2,27.7-8.9,39.8-17.4
		c9.8-6.8,17.1-15.3,22.1-25.6c1.1-2.6,2.1-5.2,2.9-8c0.8-2,1.2-3.9,2.3-5.1c0.3-0.6,0.7-1.1,1.1-1.6c0.2-0.2,0.3-0.4,0.5-0.6
		c2.7-4.5,2.6-9.5,1.9-13.9V192c-0.3-1.9-0.4-2.8,0.4-3.6c0.2-0.8,0.6-1.6,1.5-2.3c0.1-0.1,0.1-0.1,0.2-0.2c0.1-0.5,0-1.1-0.1-1.7
		c0-1.7,0.4-3.2,1.6-4.3c0.7-1,1.7-1.9,3-2.6c0.6-0.3,1.2-0.8,1.7-1.3c0.1-0.2,0.2-0.5,0.2-0.7
		C1420.3,171.2,1420.9,167.3,1421,163.4z M1404.2,206.6c-1.5,2-2.3,4.3-3.1,6.3c-4.6,14.5-12.7,25.9-25,34.2
		c-11.9,8.6-25,14.1-38.9,17.3c-8.8,2-18.1,4.3-26.9,7.1c-6.2,2-12.7,2.8-19.2,3.1c-3.1,0.4-6.5,0.4-10,1.2
		c-2.7,0.4-5.8,0.8-8.5,0.8c-2.7,0-5.4,0.4-8.1,0.4h-38.1c-19.6-0.8-35.8-2.4-43.5-3.1c-6.9-1.2-13.5-2.4-20-3.9
		c-3.5-0.8-6.5-1.6-10-2.4c-5.8-1.2-11.2-2.8-16.5-4.3c-16.9-5.5-33.1-14.9-47.7-27.1c-11.2-9-17.3-20.8-20-36.5c0,0,0,0,0-0.4
		l337.1,0.8C1406.9,202.3,1406.2,204.6,1404.2,206.6z M1415.4,174c0,0-0.4,0.8-1.9,1.6c-3.5,2-5.4,5.1-5,9h0.4v0.4
		c-3.1,2.4-2.3,5.1-2.3,7.5v0.8c0,1.2,0.4,2.4,0.4,3.5l-337.8-1.2c-0.4-0.8-0.4-2-0.8-2.8c-1.2-3.1-1.2-5.5-0.4-7.9v-2.4
		c-0.4-2.4-0.8-4.3-0.8-6.7c-0.4-2.4-0.4-4.3-0.8-6.7c0-2-0.4-4.3-0.8-6.3c-0.4-2-0.8-3.9-0.8-5.9c0-5.5,2.3-9.4,6.2-11.8
		c3.5-1.6,5-4.7,6.2-7.5c0.8-1.2,1.2-2.4,1.9-3.1c1.2-2-0.4-4.7-1.9-7.1c-0.8-1.6-2.3-2.4-3.5-2.8c-0.4,0-0.8-0.4-0.8-0.4
		c-3.8-2-5-5.5-3.1-9.4c1.2-3.1,1.5-5.9,0.8-9.4l337.4,22.8c0,0.8,0,1.2,0.4,1.6l0.4,0.4c1.9,2.4,3.8,4.7,5.8,7.5
		c0.8,0.8,1.5,2.8,1.5,4.3l0.4,1.6c0.8,3.5,1.2,7.1,1.5,10.6c0,1.2,0,2.4,0.4,3.5C1417.7,163.4,1418.1,168.5,1415.4,174z"/>
	<g>
		<path class="st4" d="M850.4,205.1c-1,0.9-0.8,1.9-0.6,3c0,0,0,0,0,0.1v-0.1c0-1.1-0.4-2.4,1.1-3.4v-0.2h-0.2
			c-0.1-0.7,0-1.3,0.2-1.9c-0.2,0.5-0.3,1.1-0.3,1.7C850.7,204.6,850.6,205,850.4,205.1z"/>
		<path class="st4" d="M852.8,182.4c0.5,0.7,0.8,1.6,1,2.4l0-0.1c0.4,1.8,0.7,3.6,0.8,5.5c0.2,2.3,0.6,4.7,0.1,6.9
			c0.4-1.7,0.4-3.3,0.6-5c-0.2-0.5-0.2-1.1-0.2-1.6c-0.2-1.6-0.4-3.3-0.7-4.9l-0.2-0.7c0-0.7-0.4-1.6-0.7-2
			c-0.9-1.3-1.8-2.4-2.7-3.4l-0.2-0.2c-0.2-0.2-0.2-0.4-0.2-0.7l-0.4,0c0,0.1,0.1,0.3,0.1,0.4C851.1,180.1,852,181.2,852.8,182.4z"
			/>
		<path class="st4" d="M853.9,199.7c0.1-0.1,0.1-0.1,0.1-0.1c0.2-0.3,0.3-0.7,0.4-1C854.3,199,854.1,199.3,853.9,199.7
			C853.9,199.7,853.9,199.7,853.9,199.7z"/>
		<path class="st4" d="M851.5,161c0.4,1.8,0.7,3.5,1.2,5.3c0.3,1,0.9,1.9,1.3,2.8c0.3,0.6,0.5,1.2,0.6,1.9c0-0.6-0.1-1.3-0.5-1.9
			c0-0.4-0.2-0.7-0.4-0.9c-0.4-0.7-0.7-1.5-0.9-2.2c-0.2-0.7-0.4-1.6-0.5-2.5c-0.2-0.7-0.4-1.6-0.5-2.5c-0.2-0.2-0.2-0.5-0.4-0.7
			c-0.3-0.4-0.6-1.1-0.5-1.8C850.4,159.4,851.3,160.1,851.5,161z"/>
		<path class="st4" d="M840.7,136.9C840.8,136.9,840.8,136.9,840.7,136.9C840.8,136.9,840.8,136.9,840.7,136.9z"/>
		<path class="st4" d="M854.7,197.6c0,0.2-0.1,0.3-0.1,0.5C854.6,197.9,854.7,197.7,854.7,197.6z"/>
		<path class="st4" d="M850,210.1L850,210.1c0-0.2,0-0.3,0-0.5C850,209.8,850,210,850,210.1z"/>
		<path class="st4" d="M846.3,142.7c2.6,3.3,3.9,7.2,3.9,11.5c0,1.2-0.3,2.5,0.7,3.5c0,0,0.1,0.1,0.1,0.2c0-0.1,0-0.1,0.1-0.2
			c-0.9-0.9-0.7-2.2-0.7-3.1v-0.7c0-4.2-1.3-8-3.8-11.1c-1.7-2.1-3.4-4-5.2-5.5C843.1,139,844.8,140.8,846.3,142.7z"/>
		<path class="st4" d="M847.1,217.7c-1.1,3.3-2.6,6.3-4.6,9c2-2.7,3.6-5.7,4.7-9.2c0.4-0.9,0.7-2,1.5-2.9c0.6-0.6,1-1.3,1-2
			c-0.2,0.8-0.6,1.6-1.3,2.4C847.8,215.8,847.4,216.8,847.1,217.7z"/>
		<path class="st5" d="M693.9,180.7C693.9,180.8,693.9,180.8,693.9,180.7C693.9,180.8,693.9,180.8,693.9,180.7
			C693.9,180.8,693.9,180.8,693.9,180.7z"/>
		<path class="st5" d="M688.7,203.8c0,0,0-0.1,0-0.1c0,0.2,0,0.4,0,0.5c-0.3,0.6-0.3,1.3-0.3,1.9c0-0.6,0.1-1.2,0.4-1.8V203.8z"/>
		<path class="st6" d="M690.7,211.2c0,0.2,0,0.2,0,0.2c1.3,7.3,4.2,12.7,9.4,16.9c6.9,5.6,14.5,10,22.5,12.5c2.5,0.7,5.1,1.5,7.8,2
			c1.6,0.4,3.1,0.7,4.7,1.1c3.1,0.7,6.2,1.3,9.4,1.8c3.6,0.4,11.2,1.1,20.5,1.5h17.9c1.3,0,2.5-0.2,3.8-0.2c1.3,0,2.7-0.2,4-0.4
			c1.6-0.4,3.3-0.4,4.7-0.5c3.1-0.2,6.2-0.5,9.1-1.5c4.2-1.3,8.5-2.4,12.7-3.3c6.5-1.5,12.7-4,18.3-8c2.8-1.9,5.2-4.1,7.1-6.6
			c2-2.7,3.5-5.6,4.6-9c0.3-0.9,0.7-2,1.3-2.7c0.6-0.8,1-1.6,1.3-2.4c0-0.4-0.1-0.7-0.2-1.1L690.7,211.2z"/>
		<path class="st5" d="M687,191.8c0-1.7,0.5-3.2,1.4-4.5C687.4,188.6,687,190.1,687,191.8z"/>
		<path class="st5" d="M691.2,172.4c-0.9,1.8-0.4,3.4,1.5,4.4c0,0,0.2,0.2,0.4,0.2c0.5,0.2,1.3,0.5,1.6,1.3c0.7,1.1,1.5,2.4,0.9,3.3
			c-0.4,0.4-0.5,0.9-0.9,1.5c-0.5,1.3-1.3,2.7-2.9,3.4c-1.8,1.1-2.9,2.9-2.9,5.4c0,0.9,0.2,1.8,0.4,2.7c0.2,0.9,0.4,2,0.4,2.9
			c0.2,1.1,0.2,2,0.4,3.1c0,1.1,0.2,2,0.4,3.1v1.1c-0.4,1.1-0.4,2.2,0.2,3.6c0.2,0.4,0.2,0.9,0.4,1.3l159.1,0.5c0-0.2,0-0.3,0-0.5
			c-0.1-0.4-0.1-0.8-0.1-1.2v-0.3c0,0,0,0,0-0.1c-0.2-1.1-0.4-2.2,0.6-3c0.2-0.1,0.2-0.5,0.2-0.8c0-0.6,0.1-1.2,0.3-1.7
			c0.4-1,1.1-1.7,2.1-2.3c0.5-0.2,0.7-0.5,0.8-0.6c0,0,0-0.1,0.1-0.1c0.2-0.3,0.3-0.7,0.5-1c0.1-0.2,0.1-0.4,0.2-0.6
			c0-0.2,0.1-0.3,0.1-0.5c0-0.1,0.1-0.3,0.1-0.4c0.4-2.3,0.1-4.6-0.1-6.9c-0.2-1.8-0.5-3.6-0.8-5.5l0,0.1c-0.2-0.8-0.5-1.7-1-2.4
			c-0.8-1.2-1.8-2.3-2.6-3.5c-0.1-0.1-0.1-0.2-0.1-0.4l-158.5-10.5C691.9,169.7,691.7,171,691.2,172.4z"/>
		<path class="st5" d="M690.3,160.5c0.1-0.2,0.1-0.3,0.2-0.5c-0.2,0.3-0.3,0.6-0.4,0.8c-1.1,2.2-1.8,4.5-0.8,7c0,0.1,0,0.1,0.1,0.2
			C688.5,165.8,688.9,163.3,690.3,160.5z"/>
		<path class="st6" d="M833.1,132.4c-4-1.8-8.2-3.6-12.5-4.7c-10.9-3.1-22.3-5.1-33.5-5.8h-1.5l-4.2-0.2c-4.4-0.2-8.5-0.4-12.9-0.4
			c-1.8,0-3.4,0.2-5.3,0.2c-9.1,0.2-19.8,0.7-30.3,2.4c-8.7,1.3-15.4,3.3-21.4,6.2c-9.4,4.7-14.9,12-16.7,22.3c0,0-0.2,0.5-0.2,0.8
			c0,0.2-0.1,0.4-0.1,0.6c0,0.1,0,0.1,0,0.2l-0.1,0c0,1.5,0,2.9-1.3,4.4c-0.7,0.7-1.1,1.6-1.6,2.7c-0.9,2.2-1.3,3.8-0.9,5.4
			l159.9,10.2c0.5-0.9,1.5-2,2.5-2.9c0.9-0.8,1.4-1.8,1.4-2.8c-0.1-0.6-0.2-1.2-0.6-1.9c-0.5-0.9-1.1-1.8-1.3-2.8
			c-0.5-1.7-0.8-3.5-1.2-5.3c-0.2-0.9-1.2-1.7-0.6-2.7c0-0.1,0-0.2,0.1-0.3c0-0.1,0-0.1-0.1-0.2c-1-1-0.7-2.3-0.7-3.5
			c0-4.3-1.3-8.2-3.9-11.5c-1.5-1.9-3.2-3.7-5-5.3c-0.2-0.2-0.4-0.3-0.5-0.5c0,0,0,0,0,0c-1.9-1.6-3.9-2.9-6-3.8L833.1,132.4z"/>
		<path class="st3" d="M690.3,185.7c1.9-1.1,2.5-3.1,3.5-4.7c0-0.1,0.1-0.1,0.1-0.2c-0.4,0.5-0.5,1.1-0.9,1.4
			c-0.5,1.1-1.1,2.2-2.4,2.7c-0.9,0.7-1.7,1.5-2.3,2.4C688.9,186.7,689.5,186.1,690.3,185.7z"/>
		<path class="st3" d="M856.5,192c0-0.5,0-1.1-0.2-1.6c-0.2-1.6-0.4-3.3-0.7-4.9l-0.2-0.7c-0.2-0.5-0.4-1.8-1.1-2.7
			c-0.7-1.3-1.8-2.4-2.7-3.4c0,0,0-0.2,0-0.4c0.9-1.1,1.8-2.2,2.5-2.9c2-1.8,2.5-4.4,1.3-6.7c-0.2-0.4-0.4-0.5-0.5-0.9
			c-0.4-0.5-0.5-1.1-0.7-1.6c-0.2-0.9-0.4-1.8-0.5-2.5c-0.2-0.9-0.4-1.8-0.5-2.5c0-0.4-0.4-0.9-0.4-1.1c-0.4-0.5-0.4-0.7-0.2-1.1
			l0.2-0.2v-0.2c0-0.5-0.4-0.9-0.5-1.1c-0.4-0.4-0.4-1.1-0.4-2v-0.9c0-4.7-1.5-8.7-4.2-12.1c-4-5.1-8-8.3-12.3-10.3l-1.6-0.7
			c-4-1.8-8.2-3.8-12.7-4.9c-11.1-3.1-22.5-4.9-33.9-5.8c-7.8-0.5-16-0.9-23.9-0.7c-9.2,0.4-19.9,0.7-30.5,2.4
			c-8.9,1.3-15.8,3.3-21.8,6.3c-10.2,5.1-16.3,13.4-17.9,25.2c0,1.5,0,2.5-0.9,3.6c-0.8,0.8-1.3,1.6-1.6,2.6c0.4-0.7,0.8-1.4,1.4-2
			c1.2-1.2,1.1-2.8,1.3-4.2c1.5-11.2,7.3-19.4,17.4-24.3c6.8-3.3,14.1-5.1,21.5-6.3c10.1-1.6,20.3-2,30.5-2.4
			c7.9-0.3,15.8,0.2,23.7,0.7c11.5,0.7,22.7,2.6,33.8,5.7c4.9,1.4,9.5,3.6,14.2,5.6c2.4,1.1,4.6,2.5,6.5,4.1c0,0,0,0,0,0
			c0.2,0.2,0.4,0.3,0.5,0.5c1.8,1.5,3.5,3.4,5.2,5.5c2.5,3.1,3.8,6.9,3.8,11.1v0.7c0,0.9-0.2,2.2,0.7,3.1c0,0.1,0,0.1-0.1,0.2
			c0,0.1,0,0.2,0,0.2c0,0,0,0.1-0.1,0.1c-0.1,0.7,0.2,1.4,0.5,1.8c0.2,0.2,0.2,0.5,0.4,0.7c0.2,0.9,0.4,1.8,0.5,2.5
			c0.2,0.9,0.4,1.8,0.5,2.5c0.2,0.7,0.5,1.5,0.9,2.2c0.2,0.2,0.4,0.5,0.4,0.9c0.4,0.6,0.5,1.3,0.5,1.9c0.1,1.4-0.5,2.8-1.7,3.8
			c-1,0.9-1.9,2-2.7,3c-0.1,0.1-0.1,0.5-0.1,0.8l0.4,0c0,0.4,0,0.5,0.2,0.7l0.2,0.2c0.9,1.1,1.8,2.2,2.7,3.4c0.4,0.4,0.7,1.3,0.7,2
			l0.2,0.7c0.4,1.6,0.5,3.3,0.7,4.9c0,0.5,0,1.1,0.2,1.6c-0.2,1.7-0.3,3.3-0.6,5c0,0.1-0.1,0.3-0.1,0.4c0,0.2-0.1,0.3-0.1,0.5
			c-0.1,0.2-0.1,0.4-0.2,0.6c-0.1,0.3-0.3,0.6-0.4,1c0,0,0,0.1-0.1,0.1c-0.3,0.5-0.8,1-1.3,1.3c-0.8,0.4-1.3,1-1.7,1.7
			c-0.2,0.6-0.3,1.2-0.2,1.9h0.2v0.2c-1.5,1.1-1.1,2.4-1.1,3.4v0.1c0.1,0.5,0.1,1,0.1,1.4c0,0.2,0,0.3,0,0.5l0,0
			c0,0.9,0,1.7-0.3,2.5c0,0.7-0.4,1.4-1,2c-0.7,0.9-1.1,2-1.5,2.9c-1.1,3.4-2.7,6.5-4.7,9.2c-2,2.7-4.5,5.1-7.4,7.1
			c-5.7,3.9-11.9,6.6-18.6,8.1c-4.3,1-8.5,1.9-12.7,3.2c-4.5,1.4-9.2,1.1-13.8,1.8c-2.2,0.4-4.5,0.5-6,0.6c-7.4,0-14,0-20.6,0
			c-9.8,0-19.5-1.1-29.1-3.4c-4.2-1-8.4-1.8-12.5-3.1c-8.3-2.7-15.8-6.9-22.7-12.5c-5.5-4.6-8.5-10.4-9.7-17.3c-0.2-1-0.4-2-0.7-2.9
			c-0.3-0.8-0.5-1.5-0.5-2.3c0,1,0.3,2,0.5,2.8c0.4,0.9,0.5,1.8,0.7,2.7c1.3,7.6,4.5,13.4,10,17.9c7.1,5.8,14.7,10,22.8,12.7
			c2.5,0.7,5.3,1.5,7.8,2c1.6,0.4,3.1,0.7,4.7,1.1c8.9,2.2,18.9,3.4,29.4,3.4h0.7c2.9,0.2,6.2,0.2,9.2,0.2c2.7,0,5.6,0,8.5-0.2h2
			c0.5,0,1.1-0.2,1.6-0.2h0.7c3.6-0.2,7.4-0.5,10.9-1.1c1.6-0.2,3.3-0.4,5.1-0.9h0.2c0.4-0.2,0.9-0.2,1.3-0.4
			c4.2-1.3,8.3-2.2,12.7-3.1c6.7-1.5,13.1-4.2,18.9-8.3c6-4,10.2-9.6,12.3-16.7c0.4-0.9,0.5-1.8,1.1-2.4c2-2.4,2-5.1,1.6-7.4V208
			c-0.2-1.1-0.2-1.5,0.5-2c0.4-0.4,0.5-0.9,0.4-1.6c0-1.1,0.4-2,1.6-2.5c0.9-0.5,1.5-1.1,1.5-1.6C856.9,197.4,856.7,194.7,856.5,192
			z"/>
		<path class="st3" d="M691,177.4c-2.1-1.1-2.9-3.3-1.8-5.4c0.7-1.4,0.7-2.7,0.2-4.1c0,0,0,0.1,0,0.1c0.4,1.3,0.4,2.5-0.2,3.6
			c-1.3,2.5-0.4,5.1,2.2,6.5c0.2,0,0.4,0.2,0.5,0.2c0.4,0.2,0.7,0.4,0.9,0.5l0.2,0.2c0.2,0.4,0.7,1.2,0.9,1.6c0-0.6-0.6-1.6-1.1-2.2
			C692.5,178,691.6,177.8,691,177.4z"/>
		<path class="st3" d="M687.9,197.6c-0.3-1.9-0.8-3.8-0.8-5.8c0,0,0,0,0,0c0,0.1,0,0.1,0,0.2c0,0.9,0.2,2,0.4,2.9
			c0.2,0.9,0.4,1.8,0.4,2.9c0.2,1.1,0.4,2,0.4,3.1c0.3,0.9,0.4,1.9,0.5,2.8c0,0,0,0,0,0C688.4,201.6,688.2,199.6,687.9,197.6z"/>
		<path class="st3" d="M851,158.2c0,0,0-0.1,0-0.2c0,0.1-0.1,0.2-0.1,0.3C851,158.3,851,158.2,851,158.2z"/>
		<path class="st3" d="M840.8,136.9c0.2,0.2,0.4,0.3,0.5,0.5C841.2,137.2,841,137.1,840.8,136.9z"/>
		<path class="st3" d="M854.6,198c-0.1,0.2-0.1,0.4-0.2,0.6C854.5,198.4,854.5,198.2,854.6,198z"/>
		<path class="st3" d="M854.8,197.2c0,0.1-0.1,0.3-0.1,0.4C854.8,197.5,854.8,197.3,854.8,197.2z"/>
		<path class="st3" d="M849.9,209.7c0-0.5-0.1-0.9-0.1-1.4v0.3C849.8,208.9,849.9,209.3,849.9,209.7z"/>
		<path class="st3" d="M853.1,200.3c-1,0.6-1.8,1.4-2.1,2.3c0.3-0.7,0.9-1.2,1.7-1.7c0.5-0.3,1-0.7,1.3-1.3
			C853.8,199.9,853.5,200.1,853.1,200.3z"/>
		<path class="st3" d="M689.5,211.3c1.2,7,4.2,12.8,9.7,17.3c6.8,5.6,14.3,9.8,22.7,12.5c4.1,1.3,8.3,2.1,12.5,3.1
			c9.6,2.3,19.3,3.4,29.1,3.4c6.6,0,13.2,0,20.6,0c1.5-0.1,3.7-0.3,6-0.6c4.6-0.7,9.2-0.4,13.8-1.8c4.2-1.3,8.5-2.3,12.7-3.2
			c6.7-1.5,12.9-4.2,18.6-8.1c2.9-2,5.4-4.4,7.4-7.1c-1.9,2.5-4.3,4.8-7.1,6.6c-5.6,4-11.8,6.5-18.3,8c-4.2,0.9-8.5,2-12.7,3.3
			c-2.9,0.9-6,1.3-9.1,1.5c-1.5,0.2-3.1,0.2-4.7,0.5c-1.3,0.2-2.7,0.4-4,0.4c-1.3,0-2.5,0.2-3.8,0.2H765c-9.2-0.4-16.9-1.1-20.5-1.5
			c-3.3-0.5-6.3-1.1-9.4-1.8c-1.6-0.4-3.1-0.7-4.7-1.1c-2.7-0.5-5.3-1.3-7.8-2c-8-2.5-15.6-6.9-22.5-12.5c-5.3-4.2-8.2-9.6-9.4-16.9
			c0,0,0,0,0-0.2l158.8,0.4c0.2,0.4,0.3,0.7,0.2,1.1c0.2-0.8,0.3-1.7,0.3-2.5l-159.1-0.5c-0.2-0.4-0.2-0.9-0.4-1.3
			c-0.5-1.5-0.5-2.5-0.2-3.6v-1.1c-0.2-1.1-0.4-2-0.4-3.1c-0.2-1.1-0.2-2-0.4-3.1c0-0.9-0.2-2-0.4-2.9c-0.2-0.9-0.4-1.8-0.4-2.7
			c0-2.5,1.1-4.4,2.9-5.4c1.6-0.7,2.4-2.2,2.9-3.4c0.4-0.5,0.5-1.1,0.9-1.5c0.5-0.9-0.2-2.2-0.9-3.3c-0.4-0.7-1.1-1.1-1.6-1.3
			c-0.2,0-0.4-0.2-0.4-0.2c-1.8-0.9-2.4-2.5-1.5-4.4c0.5-1.5,0.7-2.7,0.4-4.4l158.5,10.5c-0.1-0.3,0-0.6,0.1-0.8
			c0.8-1.1,1.7-2.2,2.7-3c1.3-1.1,1.9-2.4,1.7-3.8c0,1-0.5,2-1.4,2.8c-1.1,0.9-2,2-2.5,2.9l-159.9-10.2c-0.4-1.6,0-3.3,0.9-5.4
			c0.5-1.1,0.9-2,1.6-2.7c1.3-1.5,1.3-2.9,1.3-4.4l0.1,0c0-0.1,0-0.1,0-0.2c0-0.2,0-0.4,0.1-0.6c0.1-0.3,0.2-0.8,0.2-0.8
			c1.8-10.3,7.3-17.6,16.7-22.3c6-2.9,12.7-4.9,21.4-6.2c10.5-1.6,21.2-2.2,30.3-2.4c1.8,0,3.4-0.2,5.3-0.2c4.4,0,8.5,0.2,12.9,0.4
			l4.2,0.2h1.5c11.2,0.7,22.7,2.7,33.5,5.8c4.4,1.1,8.5,2.9,12.5,4.7l1.6,0.7c2.1,0.9,4.1,2.2,6,3.8c-1.9-1.6-4.1-3.1-6.5-4.1
			c-4.7-2.1-9.3-4.2-14.2-5.6c-11.1-3.1-22.3-5-33.8-5.7c-7.9-0.4-15.8-1-23.7-0.7c-10.2,0.4-20.4,0.8-30.5,2.4
			c-7.4,1.2-14.7,2.9-21.5,6.3c-10.1,5-15.9,13.1-17.4,24.3c-0.2,1.5-0.2,3-1.3,4.2c-0.5,0.6-1,1.3-1.4,2c-0.1,0.2-0.1,0.3-0.2,0.5
			c-1.4,2.8-1.8,5.3-0.9,7.5c0.5,1.4,0.5,2.7-0.2,4.1c-1,2.2-0.3,4.3,1.8,5.4c0.6,0.3,1.4,0.5,1.8,1.1c0.5,0.6,1.1,1.7,1.1,2.2
			c0,0,0,0,0,0c0,0,0,0,0,0c0,0.1,0,0.1-0.1,0.2c-1.1,1.6-1.7,3.6-3.5,4.7c-0.8,0.5-1.4,1-1.9,1.7c-0.8,1.3-1.3,2.8-1.4,4.5
			c0,0,0,0,0,0c0.1,1.9,0.6,3.8,0.8,5.8c0.3,2,0.5,4,0.8,6c0,0,0,0,0,0c0,0,0,0.1,0,0.1v0.5c-0.3,0.6-0.4,1.2-0.4,1.8
			c0.1,0.8,0.3,1.5,0.5,2.3C689.1,209.3,689.4,210.3,689.5,211.3z"/>
	</g>
	<g>
		<path class="st4" d="M289.6,485.6c13.2,0.8,26.2,3,39,6.5c5.7,1.6,11,4.1,16.4,6.5c5.8,2.5,10.2,6.7,14,11.6
			c3,3.9,4.5,8.4,4.5,13.4c0,1.4-0.4,2.9,0.8,4.1c0,0,0,0.1,0.1,0.1c0-0.2,0.1-0.5,0.2-0.7c-1.1-1.1-0.8-2.5-0.8-3.6v-0.8
			c0-4.8-1.5-9.3-4.4-12.8c-4.4-5.5-8.9-9.3-13.7-11.4l-1.9-0.8c-4.6-2.1-9.5-4.2-14.5-5.5c-12.6-3.6-25.9-5.9-39-6.7h-1.7l-4.8-0.2
			c-5.1-0.2-9.9-0.4-15-0.4c-0.3,0-0.6,0-0.9,0C275,484.7,282.3,485.2,289.6,485.6z"/>
		<path class="st4" d="M363,586c0.1,0.6,0.2,1.3,0.2,1.9l0.1,0C363.2,587.3,363,586.6,363,586l0.1-0.4c0-0.8-0.2-1.6,0.1-2.5
			C362.6,584,362.8,585,363,586z"/>
		<path class="st4" d="M362.9,591c-0.1,0.5-0.3,1-0.6,1.5C362.6,592,362.9,591.5,362.9,591z"/>
		<path class="st4" d="M360.6,595.1c-0.2,0.4-0.4,0.9-0.5,1.3C360.3,596,360.5,595.6,360.6,595.1z"/>
		<path class="st4" d="M363.9,581.9c0.1-0.1,0.2-0.2,0.4-0.3v-0.2h-0.2c0-0.5,0-0.9,0.1-1.4c-0.2,0.5-0.2,1-0.2,1.6
			C364,581.7,363.9,581.8,363.9,581.9z"/>
		<path class="st4" d="M365,531.4c0.5,2,0.8,4.1,1.4,6.1c0.3,1.1,1,2.2,1.5,3.2c0.4,0.8,0.6,1.5,0.7,2.3c0.2-0.9,0-1.9-0.5-2.9
			c0-0.4-0.2-0.8-0.4-1.1c-0.4-0.8-0.8-1.7-1.1-2.5c-0.2-0.8-0.4-1.9-0.6-2.9c-0.2-0.8-0.4-1.9-0.6-2.9c-0.2-0.2-0.2-0.6-0.4-0.8
			c-0.3-0.4-0.5-1-0.6-1.6C363.6,529.4,364.7,530.3,365,531.4z"/>
		<path class="st4" d="M368.5,559.5l-0.2-0.8c0-0.8-0.4-1.9-0.8-2.3c-1.1-1.5-2.1-2.7-3.2-4l-0.2-0.2c-0.2-0.2-0.2-0.4-0.2-0.8
			l-0.6,0c0,0.3,0,0.7,0.2,0.9c1,1.4,2.1,2.7,3,4.1c0.5,0.8,0.9,1.8,1.1,2.8l0,0c0.4,2.1,0.8,4.2,1,6.3c0.2,2.6,0.7,5.3,0.2,7.9
			c0.5-2,0.5-4,0.8-6.2c-0.2-0.6-0.2-1.3-0.2-1.9C369.1,563.3,368.9,561.4,368.5,559.5z"/>
		<path class="st6" d="M227.3,487.6c-10.1,1.5-17.9,3.8-24.9,7.2c-11,5.5-17.3,13.9-19.4,25.9c0,0-0.2,0.6-0.3,0.9
			c-0.1,0.2-0.1,0.5-0.1,0.7c0,0.1,0,0.1,0,0.2l-0.1,0c0,1.7,0,3.4-1.5,5.1c-0.8,0.8-1.3,1.9-1.9,3.2c-1.1,2.5-1.5,4.4-1.1,6.3
			l185.9,11.8c0.6-1.1,1.7-2.3,3-3.4c0.9-0.7,1.4-1.6,1.6-2.6c0-0.7-0.2-1.5-0.7-2.3c-0.6-1-1.2-2.1-1.5-3.2c-0.6-2-0.9-4.1-1.4-6.1
			c-0.3-1.1-1.4-2-0.6-3.2c0-0.1,0-0.3,0-0.4c0,0,0-0.1-0.1-0.1c-1.2-1.2-0.8-2.7-0.8-4.1c0-5-1.5-9.5-4.5-13.4
			c-3.8-4.9-8.2-9-14-11.6c-5.4-2.4-10.7-4.9-16.4-6.5c-12.8-3.6-25.8-5.8-39-6.5c-7.3-0.4-14.5-0.9-21.8-0.9
			c-1.7,0-3.4,0.2-5.2,0.2C252,485.1,239.5,485.7,227.3,487.6z"/>
		<path class="st5" d="M368.6,565.3c-0.2-2.1-0.5-4.2-1-6.3l0,0c-0.2-1-0.6-2-1.1-2.8c-0.9-1.4-2.1-2.7-3-4.1
			c-0.1-0.2-0.2-0.6-0.2-0.9L179.1,539c0.4,1.9,0.2,3.4-0.4,5.1c-1.1,2.1-0.4,4,1.7,5.1c0,0,0.2,0.2,0.4,0.2
			c0.6,0.2,1.5,0.6,1.9,1.5c0.8,1.3,1.7,2.7,1.1,3.8c-0.4,0.4-0.6,1.1-1.1,1.7c-0.6,1.5-1.5,3.2-3.4,4c-2.1,1.3-3.4,3.4-3.4,6.3
			c0,1.1,0.2,2.1,0.4,3.2c0.2,1.1,0.4,2.3,0.4,3.4c0.2,1.3,0.2,2.3,0.4,3.6c0,1.3,0.2,2.3,0.4,3.6v1.3c-0.4,1.3-0.4,2.5,0.2,4.2
			c0.2,0.4,0.2,1.1,0.4,1.5l184.9,0.6c0-0.6-0.1-1.3-0.2-1.9c-0.1-1-0.3-2,0.2-2.9c0.1-0.4,0.4-0.8,0.8-1.2c0-0.1,0-0.2,0-0.3
			c0-0.6,0-1.1,0.2-1.6c0.3-1.5,1.2-2.7,2.7-3.5c0.8-0.4,1.1-0.8,1.1-0.8c0.4-0.8,0.7-1.7,0.9-2.5
			C369.3,570.6,368.8,567.9,368.6,565.3z"/>
		<path class="st6" d="M362.6,589.6L178,589.2c0,0.2,0,0.2,0,0.2c1.5,8.4,4.8,14.7,11,19.6c8,6.5,16.9,11.6,26.1,14.5
			c3,0.8,5.9,1.7,9.1,2.3c1.9,0.4,3.6,0.8,5.5,1.3c3.6,0.8,7.2,1.5,11,2.1c4.2,0.4,13.1,1.3,23.8,1.7h20.9c1.5,0,3-0.2,4.4-0.2
			c1.5,0,3.2-0.2,4.6-0.4c1.9-0.4,3.8-0.4,5.5-0.6c3.6-0.2,7.2-0.6,10.5-1.7c4.8-1.5,9.9-2.7,14.8-3.8c7.6-1.7,14.8-4.6,21.3-9.3
			c6.7-4.4,11.2-10.5,13.7-18.3c0,0,0-0.1,0-0.1c0.2-0.4,0.3-0.9,0.5-1.3c0.3-0.7,0.6-1.4,1.1-2c0.2-0.2,0.4-0.4,0.6-0.7
			c0.2-0.5,0.4-1,0.6-1.5C362.9,590.5,362.9,590.1,362.6,589.6z"/>
		<path class="st3" d="M370.8,566.8c0-0.6,0-1.3-0.2-1.9c-0.2-1.9-0.4-3.8-0.8-5.7l-0.2-0.8c-0.2-0.6-0.4-2.1-1.3-3.2
			c-0.8-1.5-2.1-2.7-3.2-4c0,0,0-0.2,0-0.4c1.1-1.3,2.1-2.5,3-3.4c2.3-2.1,3-5.1,1.5-7.8c-0.2-0.4-0.4-0.6-0.6-1.1
			c-0.4-0.6-0.6-1.3-0.8-1.9c-0.2-1.1-0.4-2.1-0.6-2.9c-0.2-1.1-0.4-2.1-0.6-2.9c0-0.4-0.4-1.1-0.4-1.3c-0.4-0.6-0.4-0.8-0.2-1.3
			l0.2-0.2v-0.2c0-0.6-0.4-1.1-0.6-1.3c-0.4-0.4-0.4-1.3-0.4-2.3v-1.1c0-5.5-1.7-10.1-4.8-14.1c-4.6-5.9-9.3-9.7-14.3-12l-1.9-0.8
			c-4.6-2.1-9.5-4.4-14.8-5.7c-12.9-3.6-26.1-5.7-39.4-6.7c-9.1-0.6-18.5-1.1-27.8-0.8c-10.7,0.4-23.2,0.8-35.4,2.7
			c-10.3,1.5-18.3,3.8-25.3,7.4c-11.8,5.9-19,15.6-20.9,29.3c0,1.7,0,2.9-1.1,4.2c-1.1,1.1-1.7,2.1-2.1,3.6
			c-1.7,3.4-2.1,6.3-1.1,8.8c0.4,1.5,0.4,2.9-0.2,4.2c-1.5,2.9-0.4,5.9,2.5,7.6c0.2,0,0.4,0.2,0.6,0.2c0.4,0.2,0.8,0.4,1.1,0.6
			l0.2,0.2c0.2,0.4,0.8,1.5,1.1,1.9c-0.4,0.6-0.6,1.3-1.1,1.7c-0.6,1.3-1.3,2.5-2.7,3.2c-2.5,1.9-4.2,4.6-4.2,8.2
			c0,1.1,0.2,2.3,0.4,3.4c0.2,1.1,0.4,2.1,0.4,3.4c0.2,1.3,0.4,2.3,0.4,3.6c0.4,1.1,0.4,2.3,0.6,3.4v0.6c-0.8,1.9-0.2,3.8,0.2,5.3
			c0.4,1.1,0.6,2.1,0.8,3.2c1.5,8.8,5.3,15.6,11.6,20.9c8.2,6.7,17.1,11.6,26.6,14.7c3,0.8,6.1,1.7,9.1,2.3c1.9,0.4,3.6,0.8,5.5,1.3
			c10.3,2.5,21.9,4,34.1,4h0.8c3.4,0.2,7.2,0.2,10.7,0.2c3.2,0,6.5,0,9.9-0.2h2.3c0.6,0,1.3-0.2,1.9-0.2h0.8
			c4.2-0.2,8.6-0.6,12.6-1.3c1.9-0.2,3.8-0.4,5.9-1.1h0.2c0.4-0.2,1.1-0.2,1.5-0.4c4.8-1.5,9.7-2.5,14.8-3.6
			c7.8-1.7,15.2-4.8,21.9-9.7c7-4.6,11.8-11.2,14.3-19.4c0.4-1.1,0.6-2.1,1.3-2.7c2.3-2.7,2.3-5.9,1.9-8.6v-0.4
			c-0.2-1.3-0.2-1.7,0.6-2.3c0.4-0.4,0.6-1.1,0.4-1.9c0-1.3,0.4-2.3,1.9-2.9c1.1-0.6,1.7-1.3,1.7-1.9
			C371.3,573.2,371,570,370.8,566.8z M368.8,573.2c-0.2,1-0.5,2-1,2.9c-0.3,0.6-0.9,1.2-1.5,1.5c-1,0.6-1.7,1.3-2.1,2.3
			c-0.1,0.4-0.1,0.9-0.1,1.4h0.2v0.2c-0.1,0.1-0.3,0.2-0.4,0.3c0,0.2-0.1,0.4-0.2,0.6c-0.2,0.2-0.4,0.4-0.5,0.6
			c-0.3,0.8-0.1,1.7-0.1,2.5v0.4c0,0.6,0.2,1.3,0.2,1.9l-0.1,0c0.1,1.1,0,2.1-0.3,3.1c0,0.5-0.3,1-0.6,1.5c-0.3,0.5-0.6,1-0.9,1.5
			c-0.3,0.3-0.5,0.8-0.7,1.2c-0.2,0.4-0.4,0.9-0.5,1.3c-0.1,0.2-0.1,0.4-0.2,0.6c-2.5,7.8-7.1,14-13.9,18.7
			c-6.6,4.6-13.7,7.7-21.5,9.4c-4.9,1.1-9.9,2.2-14.7,3.7c-5.2,1.6-10.6,1.3-15.9,2.1c-2.6,0.4-5.2,0.5-6.9,0.7
			c-8.6,0-16.2,0-23.8,0c-11.4,0-22.6-1.2-33.6-4c-4.8-1.2-9.7-2-14.4-3.6c-9.6-3.2-18.3-8-26.2-14.5c-6.4-5.3-9.9-12-11.2-20.1
			c-0.2-1.1-0.5-2.3-0.8-3.3c-0.5-1.6-0.9-3.2-0.3-4.8c0.1-0.2,0.1-0.4,0-0.7c-0.3-2.3-0.6-4.6-0.9-7c-0.3-2.2-0.9-4.4-1-6.7
			c-0.1-3.1,1.2-5.6,3.8-7.2c2.2-1.3,2.8-3.6,4.1-5.4c0.3-0.5-0.5-2-1.2-2.9c-0.4-0.6-1.4-0.8-2.1-1.2c-2.5-1.3-3.3-3.8-2.1-6.3
			c0.8-1.6,0.8-3.2,0.1-4.9c-1.2-2.8-0.3-5.5,0.9-8.1c0.6-1.2,1.2-2.3,2.1-3.3c1.3-1.4,1.3-3.2,1.5-4.9c1.7-13,8.4-22.4,20.1-28.2
			c7.8-3.9,16.2-5.9,24.8-7.2c11.7-1.9,23.4-2.3,35.2-2.8c1.9-0.1,3.7-0.1,5.5-0.1c0.3,0,0.6,0,0.9,0c5.1,0,9.9,0.2,15,0.4l4.8,0.2
			h1.7c13.1,0.8,26.3,3.2,39,6.7c5.1,1.3,9.9,3.4,14.5,5.5l1.9,0.8c4.8,2.1,9.3,5.9,13.7,11.4c3,3.6,4.4,8,4.4,12.8v0.8
			c0,1.1-0.2,2.5,0.8,3.6c-0.1,0.2-0.1,0.5-0.2,0.7c0.1,0.1,0.1,0.3,0,0.4c0,0,0,0.1,0,0.1c0.1,0.6,0.3,1.2,0.6,1.6
			c0.2,0.2,0.2,0.6,0.4,0.8c0.2,1.1,0.4,2.1,0.6,2.9c0.2,1.1,0.4,2.1,0.6,2.9c0.2,0.8,0.6,1.7,1.1,2.5c0.2,0.2,0.4,0.6,0.4,1.1
			c0.5,0.9,0.7,1.9,0.5,2.9c0.1,1.6-0.6,3.1-2,4.3c-1.2,1-2.2,2.3-3.2,3.5c-0.1,0.1-0.1,0.2-0.1,0.4l0.6,0c0,0.4,0,0.6,0.2,0.8
			l0.2,0.2c1.1,1.3,2.1,2.5,3.2,4c0.4,0.4,0.8,1.5,0.8,2.3l0.2,0.8c0.4,1.9,0.6,3.8,0.8,5.7c0,0.6,0,1.3,0.2,1.9
			C369.3,569.2,369.3,571.2,368.8,573.2z"/>
		<path class="st3" d="M364.3,528.2C364.4,528.1,364.4,528.1,364.3,528.2c0.1-0.1,0.1-0.3,0-0.4C364.3,527.9,364.3,528,364.3,528.2z
			"/>
		<path class="st3" d="M363.1,583.1c0.1-0.2,0.3-0.4,0.5-0.6c0.1-0.1,0.2-0.3,0.2-0.6C363.5,582.3,363.3,582.7,363.1,583.1z"/>
		<path class="st3" d="M366.8,576.5c-1.5,0.8-2.4,2-2.7,3.5c0.3-1,1-1.8,2.1-2.3c0.6-0.3,1.2-0.9,1.5-1.5c0.5-1,0.8-1.9,1-2.9
			c-0.2,0.8-0.5,1.6-0.9,2.5C367.9,575.7,367.7,576.1,366.8,576.5z"/>
		<path class="st3" d="M360.6,595.1c0.2-0.4,0.4-0.8,0.7-1.2c0.4-0.5,0.7-1,0.9-1.5c-0.2,0.2-0.3,0.5-0.6,0.7
			C361.3,593.8,360.9,594.5,360.6,595.1z"/>
		<path class="st3" d="M177.8,585.8c-0.6-1.7-0.6-2.9-0.2-4.2v-1.3c-0.2-1.3-0.4-2.3-0.4-3.6c-0.2-1.3-0.2-2.3-0.4-3.6
			c0-1.1-0.2-2.3-0.4-3.4c-0.2-1.1-0.4-2.1-0.4-3.2c0-2.9,1.3-5.1,3.4-6.3c1.9-0.8,2.7-2.5,3.4-4c0.4-0.6,0.6-1.3,1.1-1.7
			c0.6-1.1-0.2-2.5-1.1-3.8c-0.4-0.8-1.3-1.3-1.9-1.5c-0.2,0-0.4-0.2-0.4-0.2c-2.1-1.1-2.7-2.9-1.7-5.1c0.6-1.7,0.8-3.2,0.4-5.1
			l184.3,12.2c0-0.2,0-0.3,0.1-0.4c1-1.2,2-2.5,3.2-3.5c1.4-1.2,2.1-2.7,2-4.3c-0.2,1-0.7,1.9-1.6,2.6c-1.3,1.1-2.3,2.3-3,3.4
			l-185.9-11.8c-0.4-1.9,0-3.8,1.1-6.3c0.6-1.3,1.1-2.3,1.9-3.2c1.5-1.7,1.5-3.4,1.5-5.1l0.1,0c0-0.1,0-0.1,0-0.2
			c0-0.2,0-0.5,0.1-0.7c0.1-0.3,0.3-0.9,0.3-0.9c2.1-12,8.4-20.4,19.4-25.9c7-3.4,14.8-5.7,24.9-7.2c12.2-1.9,24.7-2.5,35.2-2.7
			c1.8,0,3.4-0.1,5.2-0.2c-1.8,0-3.7,0-5.5,0.1c-11.8,0.4-23.5,0.9-35.2,2.8c-8.6,1.4-17,3.4-24.8,7.2
			c-11.7,5.7-18.3,15.1-20.1,28.2c-0.2,1.7-0.2,3.5-1.5,4.9c-0.9,0.9-1.5,2.1-2.1,3.3c-1.2,2.6-2.1,5.3-0.9,8.1
			c0.7,1.7,0.7,3.3-0.1,4.9c-1.2,2.5-0.3,5,2.1,6.3c0.7,0.4,1.7,0.6,2.1,1.2c0.6,0.8,1.5,2.4,1.2,2.9c-1.2,1.9-1.9,4.1-4.1,5.4
			c-2.6,1.5-3.9,4.1-3.8,7.2c0.1,2.2,0.7,4.5,1,6.7c0.3,2.3,0.6,4.6,0.9,7c0,0.2,0,0.5,0,0.7c-0.7,1.7-0.3,3.2,0.3,4.8
			c0.4,1.1,0.7,2.2,0.8,3.3c1.3,8.1,4.8,14.8,11.2,20.1c7.9,6.5,16.6,11.3,26.2,14.5c4.7,1.5,9.6,2.4,14.4,3.6
			c11,2.7,22.3,3.9,33.6,4c7.6,0,15.3,0,23.8,0c1.7-0.2,4.3-0.3,6.9-0.7c5.3-0.8,10.7-0.5,15.9-2.1c4.8-1.5,9.8-2.6,14.7-3.7
			c7.8-1.7,14.9-4.8,21.5-9.4c6.7-4.7,11.3-10.8,13.9-18.7c0.1-0.2,0.1-0.4,0.2-0.6c0,0,0,0.1,0,0.1c-2.5,7.8-7,13.9-13.7,18.3
			c-6.5,4.6-13.7,7.6-21.3,9.3c-4.8,1.1-9.9,2.3-14.8,3.8c-3.4,1.1-7,1.5-10.5,1.7c-1.7,0.2-3.6,0.2-5.5,0.6
			c-1.5,0.2-3.2,0.4-4.6,0.4c-1.5,0-3,0.2-4.4,0.2h-20.9c-10.7-0.4-19.6-1.3-23.8-1.7c-3.8-0.6-7.4-1.3-11-2.1
			c-1.9-0.4-3.6-0.8-5.5-1.3c-3.2-0.6-6.1-1.5-9.1-2.3c-9.3-2.9-18.1-8-26.1-14.5c-6.1-4.8-9.5-11.2-11-19.6c0,0,0,0,0-0.2
			l184.6,0.4c0.2,0.5,0.3,1,0.3,1.4c0.3-1,0.3-2,0.3-3.1l-184.9-0.6C178,586.9,178,586.2,177.8,585.8z"/>
	</g>
	<g>
		<path class="st4" d="M-13.1,206.2c-13.5,2-24,5.2-33.3,9.8c-14.7,7.5-23.1,19-25.9,35.4c0,0-0.3,0.8-0.4,1.3
			c-0.1,0.3-0.1,0.7-0.1,1c0,0.1,0,0.2,0,0.3l-0.1,0c0,2.3,0,4.6-2,6.9c-1.1,1.2-1.7,2.6-2.5,4.3c-1.4,3.5-2,6-1.4,8.6L0,279v-74.5
			C-4.4,205-8.7,205.5-13.1,206.2z"/>
		<path class="st4" d="M-77.6,276.5c0.6,2.6,0.3,4.6-0.6,6.9c-1.4,2.9-0.6,5.5,2.3,6.9c0,0,0.3,0.3,0.6,0.3c0.8,0.3,2,0.9,2.5,2
			c1.1,1.7,2.3,3.7,1.4,5.2c-0.6,0.6-0.8,1.4-1.4,2.3c-0.8,2-2,4.3-4.5,5.5c-2.8,1.7-4.5,4.6-4.5,8.6c0,1.4,0.3,2.9,0.6,4.3
			c0.3,1.4,0.6,3.2,0.6,4.6c0.3,1.7,0.3,3.2,0.6,4.9c0,1.7,0.3,3.2,0.6,4.9v1.7c-0.6,1.7-0.6,3.5,0.3,5.8c0.3,0.6,0.3,1.4,0.6,2
			L0,342.7v-61L-77.6,276.5z"/>
		<path class="st4" d="M-79,345c0,0.3,0,0.3,0,0.3c2,11.5,6.5,20.2,14.7,26.8c10.7,8.9,22.5,15.8,34.9,19.9
			c3.9,1.2,7.9,2.3,12.1,3.2c2.5,0.6,4.8,1.2,7.3,1.7c3.3,0.8,6.6,1.4,10,2.1v-53.7L-79,345z"/>
		<path class="st5" d="M173.7,285.4c2.3-2,2.8-4.9,1.4-7.5c0-0.6-0.3-1.2-0.6-1.4c-0.6-1.2-1.1-2.3-1.4-3.5c-0.3-1.2-0.6-2.6-0.8-4
			c-0.3-1.2-0.6-2.6-0.8-4c-0.3-0.3-0.3-0.9-0.6-1.2c-0.6-0.9-1.1-2.3-0.6-3.7c-1.4-1.4-1.1-3.5-1.1-4.9V254c0-6.6-2-12.7-5.9-17.6
			c-5.9-7.5-11.8-12.7-18.3-15.6l-2.5-1.2c-6.2-2.9-12.7-5.8-19.4-7.5c-16.9-4.9-34.7-8.1-52.1-9.2h-2.3l-6.5-0.3
			c-6.8-0.3-13.2-0.6-20-0.6c-2.8,0-5.4,0.3-8.2,0.3c-10.3,0.2-22,0.7-34,2V279l169.8,11C170.6,288.6,172,286.9,173.7,285.4z"/>
		<path class="st6" d="M168.4,340.7v-0.6c0-1.7-0.6-3.7,1.7-5.5v-0.3h-0.3c-0.3-2.9,1.1-5.2,3.7-6.6c1.1-0.6,1.4-1.2,1.4-1.2
			c2-4,1.7-7.8,2.3-11.8c-0.3-0.9-0.3-1.7-0.3-2.6c-0.3-2.6-0.6-5.2-1.1-7.8l-0.3-1.2c0-1.2-0.6-2.6-1.1-3.2c-1.4-2-2.8-3.7-4.2-5.5
			l-0.3-0.3c-0.3-0.3-0.3-0.6-0.3-1.2L0,281.7v61l168.6,0.6C168.6,342.4,168.4,341.6,168.4,340.7z"/>
		<path class="st5" d="M36.5,402.1h27.9c2,0,3.9-0.3,5.9-0.3s4.2-0.3,6.2-0.6c2.5-0.6,5.1-0.6,7.3-0.9c4.8-0.3,9.6-0.9,14.1-2.3
			c6.5-2,13.2-3.7,19.7-5.2c10.1-2.3,19.7-6.3,28.5-12.7c9-6,14.9-14.4,18.3-25.1c0.6-1.4,1.1-3.2,2.3-4.6c1.4-1.4,2-3.2,1.1-4.9
			L0,345.2v53.7c1.5,0.3,3.1,0.5,4.6,0.8C10.3,400.3,22.1,401.5,36.5,402.1z"/>
		<path class="st3" d="M178.8,314.5c0-0.9,0-1.7-0.3-2.6c-0.3-2.6-0.6-5.2-1.1-7.8l-0.3-1.2c-0.3-0.9-0.6-2.9-1.7-4.3
			c-1.1-2-2.8-3.7-4.2-5.5c0,0,0-0.3,0-0.6c1.4-1.7,2.8-3.5,3.9-4.6c3.1-2.9,3.9-6.9,2-10.7c-0.3-0.6-0.6-0.9-0.8-1.4
			c-0.6-0.9-0.8-1.7-1.1-2.6c-0.3-1.4-0.6-2.9-0.8-4c-0.3-1.4-0.6-2.9-0.8-4c0-0.6-0.6-1.4-0.6-1.7c-0.6-0.9-0.6-1.2-0.3-1.7
			l0.3-0.3v-0.3c0-0.9-0.6-1.4-0.8-1.7c-0.6-0.6-0.6-1.7-0.6-3.2v-1.4c0-7.5-2.3-13.8-6.5-19.3c-6.2-8.1-12.4-13.2-19.2-16.4
			l-2.5-1.2c-6.2-2.9-12.7-6-19.7-7.8c-17.2-4.9-34.9-7.8-52.7-9.2c-12.1-0.9-24.8-1.4-37.2-1.2c-14.4,0.6-31,1.2-47.3,3.7
			c-13.8,2-24.5,5.2-33.8,10.1c-15.8,8.1-25.4,21.3-27.9,40c0,2.3,0,4-1.4,5.8c-1.4,1.4-2.3,2.9-2.8,4.9c-2.3,4.6-2.8,8.6-1.4,12.1
			c0.6,2,0.6,4-0.3,5.8c-2,4-0.6,8.1,3.4,10.4c0.3,0,0.6,0.3,0.8,0.3c0.6,0.3,1.1,0.6,1.4,0.9l0.3,0.3c0.3,0.6,1.1,2,1.4,2.6
			c-0.6,0.9-0.8,1.7-1.4,2.3c-0.8,1.7-1.7,3.5-3.7,4.3c-3.4,2.6-5.6,6.3-5.6,11.2c0,1.4,0.3,3.2,0.6,4.6c0.3,1.4,0.6,2.9,0.6,4.6
			c0.3,1.7,0.6,3.2,0.6,4.9c0.6,1.4,0.6,3.2,0.8,4.6v0.9c-1.1,2.6-0.3,5.2,0.3,7.2c0.6,1.4,0.8,2.9,1.1,4.3c2,12.1,7,21.3,15.5,28.5
			c11,9.2,22.8,15.8,35.5,20.2c3.9,1.2,8.2,2.3,12.1,3.2c2.5,0.6,4.8,1.2,7.3,1.7c13.8,3.5,29.3,5.5,45.6,5.5h1.1
			c4.5,0.3,9.6,0.3,14.4,0.3c4.2,0,8.7,0,13.2-0.3h3.1c0.8,0,1.7-0.3,2.5-0.3h1.1c5.6-0.3,11.6-0.9,16.9-1.7
			c2.5-0.3,5.1-0.6,7.9-1.4h0.3c0.6-0.3,1.4-0.3,2-0.6c6.5-2,13-3.5,19.7-4.9c10.4-2.3,20.3-6.6,29.3-13.2
			c9.3-6.3,15.8-15.3,19.2-26.5c0.6-1.4,0.8-2.9,1.7-3.7c3.1-3.7,3.1-8.1,2.5-11.8v-0.6c-0.3-1.7-0.3-2.3,0.8-3.2
			c0.6-0.6,0.8-1.4,0.6-2.6c0-1.7,0.6-3.2,2.5-4c1.4-0.9,2.3-1.7,2.3-2.6C179.4,323.1,179.1,318.8,178.8,314.5z M176.3,327
			c-0.5,0.9-1.3,1.7-2.1,2.1c-2.2,1.2-3.3,3-3.1,5.4c0,0.4-0.1,1-0.4,1.2c-1.6,1.4-1.2,3.1-1,4.8c0.5,3.9,0.6,7.7-2.2,11
			c-1,1.2-1.5,2.8-2,4.3c-3.5,10.8-9.9,19.3-19.1,25.8c-9,6.3-18.9,10.6-29.6,13c-6.8,1.5-13.7,3.1-20.3,5.2
			c-7.2,2.2-14.7,1.8-21.9,2.9c-3.6,0.5-7.2,0.7-9.5,1c-11.8,0-22.4,0-32.9,0c-10.8,0-21.4-0.8-32-2.5v-2.2c-3.4-0.6-6.7-1.3-10-2.1
			c-2.5-0.6-4.8-1.2-7.3-1.7c-4.2-0.9-8.2-2-12.1-3.2c-12.4-4-24.2-10.9-34.9-19.9c-8.2-6.6-12.7-15.3-14.7-26.8c0,0,0,0,0-0.3
			l79,0.2v-2.5l-78.8-0.3c-0.3-0.6-0.3-1.4-0.6-2c-0.8-2.3-0.8-4-0.3-5.8v-1.7c-0.3-1.7-0.6-3.2-0.6-4.9c-0.3-1.7-0.3-3.2-0.6-4.9
			c0-1.4-0.3-3.2-0.6-4.6c-0.3-1.4-0.6-2.9-0.6-4.3c0-4,1.7-6.9,4.5-8.6c2.5-1.2,3.7-3.5,4.5-5.5c0.6-0.9,0.8-1.7,1.4-2.3
			c0.8-1.4-0.3-3.5-1.4-5.2c-0.6-1.2-1.7-1.7-2.5-2c-0.3,0-0.6-0.3-0.6-0.3c-2.8-1.4-3.7-4-2.3-6.9c0.8-2.3,1.1-4.3,0.6-6.9L0,281.7
			V279l-78.8-5.1c-0.6-2.6,0-5.2,1.4-8.6c0.8-1.7,1.4-3.2,2.5-4.3c2-2.3,2-4.6,2-6.9l0.1,0c0-0.1,0-0.2,0-0.3c0-0.3,0-0.7,0.1-1
			c0.1-0.5,0.4-1.3,0.4-1.3C-69.5,235-61,223.5-46.4,216c9.3-4.6,19.7-7.8,33.3-9.8c4.4-0.7,8.8-1.3,13.1-1.7v-2
			c10.1-0.9,20.2-1.3,30.4-1.6c12.7-0.5,25.2,0.4,37.8,1.1c18.3,1,36.3,4.1,53.9,9c7.9,2.2,15.2,5.7,22.7,9c8,3.5,14,9.3,19.3,16
			c4.2,5.3,6.2,11.6,6.2,18.4c0,1.9-0.6,4,1.1,5.6c0.1,0.1,0.2,0.5,0.1,0.6c-1.2,1.8,0.5,3,0.8,4.5c0.7,2.8,1.1,5.7,1.9,8.5
			c0.5,1.6,1.4,3,2.1,4.4c1.8,3.3,1,6.7-1.9,9.1c-1.6,1.4-3,3.1-4.4,4.8c-0.3,0.4-0.2,1.4,0.1,1.8c1.3,1.9,2.9,3.7,4.2,5.6
			c0.8,1.1,1.3,2.5,1.6,3.9c0.6,2.9,1.1,5.8,1.3,8.7v0C177.9,317,178.9,322.2,176.3,327z"/>
		<path class="st3" d="M177.5,312c-0.3-2.9-0.8-5.8-1.3-8.7c-0.3-1.3-0.8-2.7-1.6-3.9c-1.3-2-2.8-3.7-4.2-5.6
			c-0.3-0.4-0.4-1.4-0.1-1.8c1.4-1.7,2.7-3.4,4.4-4.8c2.9-2.5,3.7-5.8,1.9-9.1c-0.8-1.4-1.7-2.9-2.1-4.4c-0.8-2.8-1.2-5.6-1.9-8.5
			c-0.4-1.5-2-2.7-0.8-4.5c0.1-0.1,0-0.5-0.1-0.6c-1.7-1.6-1.1-3.7-1.1-5.6c0-6.9-2.1-13.1-6.2-18.4c-5.2-6.7-11.3-12.4-19.3-16
			c-7.4-3.3-14.8-6.8-22.7-9c-17.7-4.9-35.6-8-53.9-9c-12.6-0.7-25.2-1.6-37.8-1.1c-10.2,0.4-20.3,0.8-30.4,1.6v2
			c11.9-1.3,23.6-1.8,34-2c2.8,0,5.4-0.3,8.2-0.3c6.8,0,13.2,0.3,20,0.6l6.5,0.3h2.3c17.5,1.2,35.2,4.3,52.1,9.2
			c6.8,1.7,13.2,4.6,19.4,7.5l2.5,1.2c6.5,2.9,12.4,8.1,18.3,15.6c3.9,4.9,5.9,10.9,5.9,17.6v1.2c0,1.4-0.3,3.5,1.1,4.9
			c-0.6,1.4,0,2.9,0.6,3.7c0.3,0.3,0.3,0.9,0.6,1.2c0.3,1.4,0.6,2.9,0.8,4c0.3,1.4,0.6,2.9,0.8,4c0.3,1.2,0.8,2.3,1.4,3.5
			c0.3,0.3,0.6,0.9,0.6,1.4c1.4,2.6,0.8,5.5-1.4,7.5c-1.7,1.4-3.1,3.2-3.9,4.6L0,279v2.7l169.5,11.5c0,0.6,0,0.9,0.3,1.2l0.3,0.3
			c1.4,1.7,2.8,3.5,4.2,5.5c0.6,0.6,1.1,2,1.1,3.2l0.3,1.2c0.6,2.6,0.8,5.2,1.1,7.8c0,0.9,0,1.7,0.3,2.6c-0.6,4-0.3,7.8-2.3,11.8
			c0,0-0.3,0.6-1.4,1.2c-2.5,1.4-3.9,3.7-3.7,6.6h0.3v0.3c-2.3,1.7-1.7,3.7-1.7,5.5v0.6c0,0.9,0.3,1.7,0.3,2.6L0,342.7v2.5
			l167.8,0.4c0.8,1.7,0.3,3.5-1.1,4.9c-1.1,1.4-1.7,3.2-2.3,4.6c-3.4,10.7-9.3,19-18.3,25.1c-8.7,6.3-18.3,10.4-28.5,12.7
			c-6.5,1.4-13.2,3.2-19.7,5.2c-4.5,1.4-9.3,2-14.1,2.3c-2.3,0.3-4.8,0.3-7.3,0.9c-2,0.3-4.2,0.6-6.2,0.6s-3.9,0.3-5.9,0.3H36.5
			c-14.4-0.6-26.2-1.7-31.8-2.3c-1.6-0.3-3.1-0.5-4.6-0.8v2.2c10.6,1.7,21.2,2.5,32,2.5c10.5,0,21.1,0,32.9,0c2.3-0.2,6-0.4,9.5-1
			c7.3-1.1,14.8-0.7,21.9-2.9c6.7-2.1,13.5-3.6,20.3-5.2c10.7-2.4,20.6-6.7,29.6-13c9.3-6.5,15.7-15,19.1-25.8c0.5-1.5,1-3.1,2-4.3
			c2.8-3.3,2.8-7.1,2.2-11c-0.2-1.8-0.7-3.5,1-4.8c0.3-0.2,0.4-0.8,0.4-1.2c-0.1-2.4,1-4.2,3.1-5.4c0.9-0.5,1.7-1.3,2.1-2.1
			C178.9,322.2,177.9,317,177.5,312L177.5,312z"/>
	</g>
	<g>
		<path class="st4" d="M857.2,582.1L857.2,582.1c-0.1,0.2-0.1,0.2-0.1,0.2c0.9,4.9,2.6,8.9,5.4,12.2c-2.8-3.4-4.5-7.5-5.3-12.1
			C857.2,582.2,857.2,582.2,857.2,582.1z"/>
		<path class="st5" d="M1001.7,548.7c1.3-1.1,1.6-2.7,0.8-4.2c0-0.3-0.2-0.6-0.3-0.8c-0.3-0.6-0.6-1.3-0.8-1.9
			c-0.2-0.6-0.3-1.5-0.5-2.3c-0.2-0.6-0.3-1.5-0.5-2.3c-0.2-0.2-0.2-0.5-0.3-0.6c-0.3-0.5-0.6-1.3-0.3-2.1c-0.8-0.8-0.6-1.9-0.6-2.7
			v-0.6c0-3.7-1.1-7.1-3.4-9.8c-3.4-4.2-6.8-7.1-10.5-8.7l-1.5-0.6c-3.5-1.6-7.3-3.2-11.1-4.2c-9.7-2.7-19.8-4.5-29.8-5.2h-1.3
			l-3.7-0.2c-3.9-0.2-7.6-0.3-11.4-0.3c-1.6,0-3.1,0.2-4.7,0.2c-8.1,0.2-17.6,0.6-26.9,2.1c-7.7,1.1-13.7,2.9-19,5.5
			c-8.4,4.2-13.2,10.7-14.8,19.9c0,0-0.2,0.5-0.2,0.7c0,0.2-0.1,0.4-0.1,0.6c0,0.1,0,0.1,0,0.2l-0.1,0c0,1.3,0,2.6-1.1,3.9
			c-0.6,0.6-1,1.5-1.5,2.4c-0.8,1.9-1.1,3.4-0.8,4.8l142.1,9C999.9,550.5,1000.7,549.5,1001.7,548.7z"/>
		<path class="st5" d="M865.5,597.3c6.1,5,12.9,8.9,20,11.1c2.3,0.6,4.5,1.3,6.9,1.8c1.5,0.3,2.7,0.6,4.2,1c2.7,0.6,5.5,1.1,8.4,1.6
			c3.2,0.3,10,1,18.2,1.3h16c1.1,0,2.3-0.2,3.4-0.2c1.1,0,2.4-0.2,3.5-0.3c1.5-0.3,2.9-0.3,4.2-0.5c2.7-0.2,5.5-0.5,8.1-1.3
			c3.7-1.1,7.6-2.1,11.3-2.9c5.8-1.3,11.3-3.6,16.3-7.1c5.2-3.4,8.5-8.1,10.5-14c0.3-0.8,0.6-1.8,1.3-2.6c0.8-0.8,1.1-1.8,0.6-2.7
			l-141.1-0.3c0,0.1,0,0.1,0,0.2c0.8,4.6,2.5,8.7,5.3,12.1C863.4,595.5,864.4,596.4,865.5,597.3z"/>
		<path class="st6" d="M1002.8,559.4l-0.2-0.6c0-0.6-0.3-1.5-0.6-1.8c-0.8-1.1-1.6-2.1-2.4-3.1l-0.2-0.2c-0.2-0.2-0.2-0.3-0.2-0.6
			l-141.3-9.4c0.3,1.5,0.2,2.6-0.3,3.9c-0.8,1.6-0.3,3.1,1.3,3.9c0,0,0.2,0.2,0.3,0.2c0.5,0.2,1.1,0.5,1.5,1.1
			c0.6,1,1.3,2.1,0.8,2.9c-0.3,0.3-0.5,0.8-0.8,1.3c-0.5,1.1-1.1,2.4-2.6,3.1c-1.6,1-2.6,2.6-2.6,4.8c0,0.8,0.2,1.6,0.3,2.4
			c0.2,0.8,0.3,1.8,0.3,2.6c0.2,1,0.2,1.8,0.3,2.7c0,1,0.2,1.8,0.3,2.7v1c-0.3,1-0.3,1.9,0.2,3.2c0.2,0.3,0.2,0.8,0.3,1.1l141.5,0.5
			c0-0.5-0.2-1-0.2-1.5v-0.3c0-1-0.3-2.1,1-3.1v-0.2h-0.2c-0.2-1.6,0.6-2.9,2.1-3.7c0.6-0.3,0.8-0.6,0.8-0.6c1.1-2.3,1-4.4,1.3-6.6
			c-0.2-0.5-0.2-1-0.2-1.5C1003.3,562.3,1003.1,560.8,1002.8,559.4z"/>
		<path class="st3" d="M1004.6,565c0-0.5,0-1-0.2-1.5c-0.2-1.5-0.3-2.9-0.6-4.4l-0.2-0.6c-0.2-0.5-0.3-1.6-1-2.4
			c-0.6-1.1-1.6-2.1-2.4-3.1c0,0,0-0.2,0-0.3c0.8-1,1.6-1.9,2.3-2.6c1.8-1.6,2.3-3.9,1.1-6c-0.2-0.3-0.3-0.5-0.5-0.8
			c-0.3-0.5-0.5-1-0.6-1.5c-0.2-0.8-0.3-1.6-0.5-2.3c-0.2-0.8-0.3-1.6-0.5-2.3c0-0.3-0.3-0.8-0.3-1c-0.3-0.5-0.3-0.6-0.2-1l0.2-0.2
			v-0.2c0-0.5-0.3-0.8-0.5-1c-0.3-0.3-0.3-1-0.3-1.8v-0.8c0-4.2-1.3-7.7-3.7-10.8c-3.5-4.5-7.1-7.4-11-9.2l-1.5-0.6
			c-3.5-1.6-7.3-3.4-11.3-4.4c-9.8-2.7-20-4.4-30.1-5.2c-6.9-0.5-14.2-0.8-21.3-0.6c-8.2,0.3-17.7,0.6-27.1,2.1
			c-7.9,1.1-14,2.9-19.3,5.6c-9,4.5-14.5,11.9-16,22.4c0,1.3,0,2.3-0.8,3.2c-0.8,0.8-1.3,1.6-1.6,2.7c-1.3,2.6-1.6,4.8-0.8,6.8
			c0.3,1.1,0.3,2.3-0.2,3.2c-1.1,2.3-0.3,4.5,1.9,5.8c0.2,0,0.3,0.2,0.5,0.2c0.3,0.2,0.6,0.3,0.8,0.5l0.2,0.2
			c0.2,0.3,0.6,1.1,0.8,1.5c-0.3,0.5-0.5,1-0.8,1.3c-0.5,1-1,1.9-2.1,2.4c-1.9,1.5-3.2,3.6-3.2,6.3c0,0.8,0.2,1.8,0.3,2.6
			c0.2,0.8,0.3,1.6,0.3,2.6c0.2,1,0.3,1.8,0.3,2.7c0.3,0.8,0.3,1.8,0.5,2.6v0.5c-0.6,1.5-0.2,2.9,0.2,4c0.3,0.8,0.5,1.6,0.6,2.4
			c1.1,6.8,4,11.9,8.9,16c6.3,5.2,13.1,8.9,20.3,11.3c2.3,0.6,4.7,1.3,6.9,1.8c1.5,0.3,2.7,0.6,4.2,1c7.9,1.9,16.8,3.1,26.1,3.1h0.6
			c2.6,0.2,5.5,0.2,8.2,0.2c2.4,0,5,0,7.6-0.2h1.8c0.5,0,1-0.2,1.5-0.2h0.6c3.2-0.2,6.6-0.5,9.7-1c1.5-0.2,2.9-0.3,4.5-0.8h0.2
			c0.3-0.2,0.8-0.2,1.1-0.3c3.7-1.1,7.4-1.9,11.3-2.7c6-1.3,11.6-3.7,16.8-7.4c5.3-3.6,9-8.6,11-14.9c0.3-0.8,0.5-1.6,1-2.1
			c1.8-2.1,1.8-4.5,1.5-6.6v-0.3c-0.2-1-0.2-1.3,0.5-1.8c0.3-0.3,0.5-0.8,0.3-1.5c0-1,0.3-1.8,1.5-2.3c0.8-0.5,1.3-1,1.3-1.5
			C1004.9,569.8,1004.7,567.4,1004.6,565z M1003,572c-0.3,0.5-0.7,0.9-1.2,1.2c-1.2,0.6-1.8,1.6-1.7,3c0,0.2-0.1,0.6-0.2,0.7
			c-0.9,0.8-0.7,1.7-0.5,2.7c0.3,2.2,0.3,4.3-1.2,6.1c-0.5,0.7-0.8,1.5-1.1,2.4c-1.9,6-5.5,10.8-10.6,14.4c-5,3.5-10.5,5.9-16.5,7.2
			c-3.8,0.8-7.6,1.7-11.3,2.9c-4,1.2-8.2,1-12.2,1.6c-2,0.3-4,0.4-5.3,0.5c-6.6,0-12.4,0-18.3,0c-8.7,0-17.3-1-25.8-3
			c-3.7-0.9-7.5-1.6-11-2.8c-7.4-2.4-14.1-6.2-20.1-11.1c-1.2-1-2.3-2.1-3.3-3.3c-2.8-3.3-4.5-7.2-5.4-12.2c0,0,0,0,0-0.2l0.1,0
			c-0.1-0.8-0.3-1.6-0.6-2.4c-0.4-1.2-0.7-2.4-0.2-3.7c0.1-0.2,0.1-0.3,0-0.5c-0.2-1.8-0.4-3.6-0.7-5.3c-0.2-1.7-0.7-3.4-0.7-5.1
			c-0.1-2.4,0.9-4.3,2.9-5.5c1.7-1,2.2-2.7,3.1-4.2c0.2-0.4-0.4-1.6-0.9-2.2c-0.3-0.5-1.1-0.7-1.6-0.9c-1.9-1-2.5-2.9-1.6-4.8
			c0.6-1.3,0.6-2.5,0.1-3.8c-0.9-2.2-0.3-4.2,0.7-6.2c0.4-0.9,0.9-1.8,1.6-2.5c1-1.1,1-2.5,1.2-3.8c1.3-10,6.5-17.2,15.4-21.7
			c6-3,12.5-4.5,19.1-5.6c9-1.4,18-1.8,27-2.1c7-0.3,14,0.2,21,0.6c10.2,0.6,20.2,2.3,30,5c4.4,1.2,8.5,3.2,12.6,5
			c4.4,2,7.8,5.2,10.7,8.9c2.3,3,3.5,6.4,3.5,10.3c0,1.1-0.3,2.2,0.6,3.1c0.1,0.1,0.1,0.3,0.1,0.3c-0.7,1,0.2,1.7,0.5,2.5
			c0.4,1.6,0.6,3.2,1.1,4.7c0.2,0.9,0.8,1.7,1.2,2.5c1,1.9,0.6,3.7-1,5.1c-0.9,0.8-1.7,1.8-2.4,2.7c-0.2,0.2-0.1,0.8,0,1
			c0.7,1.1,1.6,2,2.3,3.1c0.4,0.6,0.7,1.4,0.9,2.2l0,0c0.3,1.6,0.6,3.2,0.7,4.9C1003.9,566.4,1004.5,569.3,1003,572z"/>
		<path class="st3" d="M1002.9,558.8L1002.9,558.8c-0.1-0.7-0.4-1.5-0.9-2.1c-0.7-1.1-1.6-2.1-2.3-3.1c-0.2-0.2-0.2-0.8,0-1
			c0.8-1,1.5-1.9,2.4-2.7c1.6-1.4,2-3.2,1-5.1c-0.4-0.8-0.9-1.6-1.2-2.5c-0.4-1.5-0.7-3.2-1.1-4.7c-0.2-0.8-1.1-1.5-0.5-2.5
			c0-0.1,0-0.3-0.1-0.3c-0.9-0.9-0.6-2-0.6-3.1c0-3.8-1.2-7.3-3.5-10.3c-2.9-3.7-6.3-6.9-10.7-8.9c-4.1-1.8-8.2-3.8-12.6-5
			c-9.8-2.8-19.8-4.5-30-5c-7-0.4-14-0.9-21-0.6c-9,0.3-18,0.7-27,2.1c-6.6,1-13,2.6-19.1,5.6c-9,4.4-14.1,11.7-15.4,21.7
			c-0.2,1.3-0.1,2.7-1.2,3.8c-0.7,0.7-1.2,1.6-1.6,2.5c-0.9,2-1.6,4-0.7,6.2c0.5,1.3,0.5,2.5-0.1,3.8c-0.9,1.9-0.2,3.8,1.6,4.8
			c0.5,0.3,1.3,0.5,1.6,0.9c0.5,0.7,1.1,1.8,0.9,2.2c-1,1.4-1.5,3.2-3.1,4.2c-2,1.2-3,3.2-2.9,5.5c0.1,1.7,0.5,3.4,0.7,5.1
			c0.2,1.8,0.5,3.6,0.7,5.3c0,0.2,0,0.3,0,0.5c-0.5,1.3-0.2,2.5,0.2,3.7c0.3,0.8,0.5,1.6,0.6,2.4l141.1,0.3c0.5,1,0.2,1.9-0.6,2.7
			c-0.6,0.8-1,1.8-1.3,2.6c-1.9,6-5.3,10.7-10.5,14c-5,3.6-10.5,5.8-16.3,7.1c-3.7,0.8-7.6,1.8-11.3,2.9c-2.6,0.8-5.3,1.1-8.1,1.3
			c-1.3,0.2-2.7,0.2-4.2,0.5c-1.1,0.2-2.4,0.3-3.5,0.3c-1.1,0-2.3,0.2-3.4,0.2h-16c-8.2-0.3-15-1-18.2-1.3c-2.9-0.5-5.6-1-8.4-1.6
			c-1.5-0.3-2.7-0.6-4.2-1c-2.4-0.5-4.7-1.1-6.9-1.8c-7.1-2.3-13.9-6.1-20-11.1c-1.1-0.9-2.1-1.8-3-2.9c1,1.2,2.1,2.3,3.3,3.3
			c6,5,12.7,8.7,20.1,11.1c3.6,1.2,7.4,1.9,11,2.8c8.5,2.1,17.1,3,25.8,3c5.9,0,11.7,0,18.3,0c1.3-0.1,3.3-0.2,5.3-0.5
			c4-0.6,8.2-0.4,12.2-1.6c3.7-1.2,7.5-2,11.3-2.9c6-1.3,11.5-3.7,16.5-7.2c5.2-3.6,8.7-8.3,10.6-14.4c0.3-0.8,0.6-1.7,1.1-2.4
			c1.6-1.8,1.5-4,1.2-6.1c-0.1-1-0.4-1.9,0.5-2.7c0.2-0.1,0.2-0.5,0.2-0.7c-0.1-1.3,0.5-2.3,1.7-3c0.5-0.3,0.9-0.7,1.2-1.2
			c1.5-2.7,0.9-5.5,0.7-8.4C1003.5,562,1003.3,560.4,1002.9,558.8z M857.3,542.2c-0.3-1.5,0-2.9,0.8-4.8c0.5-1,0.8-1.8,1.5-2.4
			c1.1-1.3,1.1-2.6,1.1-3.9l0.1,0c0-0.1,0-0.1,0-0.2c0-0.2,0-0.4,0.1-0.6c0.1-0.3,0.2-0.7,0.2-0.7c1.6-9.2,6.4-15.7,14.8-19.9
			c5.3-2.6,11.3-4.4,19-5.5c9.3-1.5,18.9-1.9,26.9-2.1c1.6,0,3.1-0.2,4.7-0.2c3.9,0,7.6,0.2,11.4,0.3l3.7,0.2h1.3
			c10,0.6,20.1,2.4,29.8,5.2c3.9,1,7.6,2.6,11.1,4.2l1.5,0.6c3.7,1.6,7.1,4.5,10.5,8.7c2.3,2.7,3.4,6.1,3.4,9.8v0.6
			c0,0.8-0.2,1.9,0.6,2.7c-0.3,0.8,0,1.6,0.3,2.1c0.2,0.2,0.2,0.5,0.3,0.6c0.2,0.8,0.3,1.6,0.5,2.3c0.2,0.8,0.3,1.6,0.5,2.3
			c0.2,0.6,0.5,1.3,0.8,1.9c0.2,0.2,0.3,0.5,0.3,0.8c0.8,1.5,0.5,3.1-0.8,4.2c-1,0.8-1.8,1.8-2.3,2.6L857.3,542.2z M1002.3,571.8
			c0,0-0.2,0.3-0.8,0.6c-1.5,0.8-2.3,2.1-2.1,3.7h0.2v0.2c-1.3,1-1,2.1-1,3.1v0.3c0,0.5,0.2,1,0.2,1.5l-141.5-0.5
			c-0.2-0.3-0.2-0.8-0.3-1.1c-0.5-1.3-0.5-2.3-0.2-3.2v-1c-0.2-1-0.3-1.8-0.3-2.7c-0.2-1-0.2-1.8-0.3-2.7c0-0.8-0.2-1.8-0.3-2.6
			c-0.2-0.8-0.3-1.6-0.3-2.4c0-2.3,1-3.9,2.6-4.8c1.5-0.6,2.1-1.9,2.6-3.1c0.3-0.5,0.5-1,0.8-1.3c0.5-0.8-0.2-1.9-0.8-2.9
			c-0.3-0.6-1-1-1.5-1.1c-0.2,0-0.3-0.2-0.3-0.2c-1.6-0.8-2.1-2.3-1.3-3.9c0.5-1.3,0.6-2.4,0.3-3.9l141.3,9.4c0,0.3,0,0.5,0.2,0.6
			l0.2,0.2c0.8,1,1.6,1.9,2.4,3.1c0.3,0.3,0.6,1.1,0.6,1.8l0.2,0.6c0.3,1.5,0.5,2.9,0.6,4.4c0,0.5,0,1,0.2,1.5
			C1003.3,567.4,1003.5,569.5,1002.3,571.8z"/>
	</g>
	<path class="st4" d="M1377.6,412L1377.6,412c0.4,2.1,0.8,4.2,1,6.3c0.2,1.8,0.4,3.5,0.4,5.3c0.1-1,0.2-1.9,0.3-2.9
		c-0.2-0.6-0.2-1.2-0.2-1.9c-0.2-1.9-0.4-3.7-0.8-5.6l-0.2-0.8c0-0.8-0.4-1.9-0.8-2.3c-0.3-0.4-0.6-0.8-0.9-1.2
		c0.1,0.1,0.1,0.2,0.2,0.2C1377,410,1377.4,411,1377.6,412z"/>
	<path class="st4" d="M1374.1,435v-0.2h-0.1c0,0.1,0,0.3-0.1,0.4C1373.9,435.1,1374,435.1,1374.1,435z"/>
	<path class="st4" d="M1373.6,405.3c0-0.1,0-0.1,0-0.2l-0.2,0c0,0,0,0,0,0C1373.5,405.2,1373.6,405.2,1373.6,405.3z"/>
	<path class="st4" d="M1375.7,387.7c-0.1-0.4-0.2-0.8-0.3-1.2c0.2,0.9,0.4,1.9,0.6,2.8C1376,388.7,1375.8,388.2,1375.7,387.7z"/>
	<path class="st4" d="M1374.2,381.5C1374.2,381.6,1374.2,381.6,1374.2,381.5C1374.2,381.6,1374.2,381.6,1374.2,381.5z"/>
	<path class="st4" d="M1375.1,384.8C1375.1,384.7,1375.1,384.7,1375.1,384.8c0,0.3,0.1,0.7,0.2,1.1
		C1375.3,385.5,1375.2,385.1,1375.1,384.8z"/>
	<path class="st4" d="M1374.1,382.1c0-0.1,0-0.2,0-0.3C1374.1,381.9,1374.1,382,1374.1,382.1z"/>
	<path class="st5" d="M1289.6,338.1c-5.8-0.3-11.6-0.5-17.5-0.2c-6.8,0.3-13.7,0.5-20.5,1.1c7.2-0.6,14.2-0.8,20.6-1.1
		C1278.1,337.7,1283.9,337.8,1289.6,338.1z"/>
	<path class="st5" d="M1249.5,339.1c0.3,0,0.6-0.1,0.9-0.1C1250.1,339,1249.8,339,1249.5,339.1z"/>
	<path class="st6" d="M1373.4,377.7v-0.8c0-4.8-1.5-9.1-4.4-12.7c-4.4-5.4-8.8-9.1-13.7-11.2l-1.9-0.8c-4.6-2.1-9.5-4.2-14.5-5.4
		c-12.6-3.5-25.9-5.8-38.9-6.6h-1.7l-4.8-0.2c-5-0.2-9.9-0.4-14.9-0.4c-2.1,0-4,0.2-6.1,0.2c-10.5,0.2-22.9,0.8-35.1,2.7
		c-10.1,1.5-17.9,3.7-24.8,7.1c-10.9,5.4-17.2,13.7-19.3,25.5c0,0-0.2,0.6-0.3,0.9c-0.1,0.2-0.1,0.5-0.1,0.7c0,0.1,0,0.1,0,0.2
		l-0.1,0c0,1.7,0,3.3-1.5,5c-0.8,0.8-1.3,1.9-1.9,3.1c-1.1,2.5-1.5,4.4-1.1,6.2l185.4,11.6c0.6-1,1.7-2.3,2.9-3.3
		c1.7-1.5,2.1-3.5,1.1-5.4c0-0.4-0.2-0.8-0.4-1c-0.4-0.8-0.8-1.7-1.1-2.5c-0.1-0.4-0.2-0.9-0.3-1.3c-0.2-0.9-0.4-1.9-0.6-2.8
		c0-0.2-0.1-0.4-0.1-0.6c-0.1-0.4-0.2-0.8-0.3-1.1c-0.2-0.2-0.2-0.6-0.4-0.8c-0.3-0.4-0.6-1.1-0.6-1.8c0-0.1,0-0.2,0-0.3
		c0-0.1,0-0.1,0-0.2c0,0,0,0,0,0c0-0.1,0.1-0.2,0.1-0.3C1373.2,380.2,1373.4,378.7,1373.4,377.7z"/>
	<path class="st5" d="M1332.7,343.6c-10.9-2.7-21.9-4.4-33.2-5c-0.4,0-0.8,0-1.2-0.1c0.6,0,1.1,0.1,1.7,0.1
		C1311,339.5,1322,341.1,1332.7,343.6z"/>
	<path class="st6" d="M1199.2,462c8,6.4,16.8,11.4,26.1,14.3c2.9,0.8,5.9,1.7,9,2.3c1.9,0.4,3.6,0.8,5.5,1.2
		c3.6,0.8,7.1,1.5,10.9,2.1c4.2,0.4,13,1.2,23.8,1.7h20.8c1.5,0,2.9-0.2,4.4-0.2c1.5,0,3.2-0.2,4.6-0.4c1.9-0.4,3.8-0.4,5.5-0.6
		c3.6-0.2,7.1-0.6,10.5-1.7c4.8-1.5,9.9-2.7,14.7-3.7c7.6-1.7,14.7-4.6,21.2-9.1c6.7-4.4,11.1-10.4,13.7-18.1c0.4-1,0.8-2.3,1.7-3.3
		c1.1-1,1.5-2.3,0.8-3.5l-184.2-0.4c0,0.2,0,0.2,0,0.2C1189.7,451,1193.1,457.2,1199.2,462z"/>
	<path class="st5" d="M1188.8,398c-1.1,2.1-0.4,3.9,1.7,5c0,0,0.2,0.2,0.4,0.2c0.6,0.2,1.5,0.6,1.9,1.5c0.8,1.2,1.7,2.7,1.1,3.7
		c-0.4,0.4-0.6,1-1.1,1.7c-0.6,1.5-1.5,3.1-3.4,3.9c-2.1,1.2-3.4,3.3-3.4,6.2c0,1,0.2,2.1,0.4,3.1s0.4,2.3,0.4,3.3
		c0.2,1.2,0.2,2.3,0.4,3.5c0,1.2,0.2,2.3,0.4,3.5v1.2c-0.4,1.2-0.4,2.5,0.2,4.2c0.2,0.4,0.2,1,0.4,1.5l184.6,0.6
		c0-0.6-0.2-1.2-0.2-1.9V439c0-1.2-0.4-2.6,1.1-3.8c0-0.1,0.1-0.3,0.1-0.4h-0.1c-0.2-2.1,0.8-3.7,2.7-4.8c0.8-0.4,1.1-0.8,1.1-0.8
		c1-1.9,1.2-3.8,1.4-5.6c0-1.8-0.2-3.5-0.4-5.3c-0.2-2.1-0.6-4.2-1-6.3l0,0c-0.2-1-0.6-2-1.1-2.8c-0.1-0.1-0.1-0.2-0.2-0.2
		c-0.8-1-1.5-1.9-2.3-2.8l-0.2-0.2c-0.2-0.2-0.2-0.3-0.2-0.6c-0.1-0.1-0.1-0.1-0.2-0.2c0,0,0,0,0,0l-184.2-12
		C1189.7,394.9,1189.5,396.4,1188.8,398z"/>
	<path class="st3" d="M1289.6,338.1c2.9,0.1,5.8,0.3,8.7,0.5C1295.5,338.3,1292.6,338.2,1289.6,338.1z"/>
	<path class="st3" d="M1250.4,339c0.4,0,0.9-0.1,1.3-0.1C1251.3,338.9,1250.8,338.9,1250.4,339z"/>
	<path class="st3" d="M1380.6,420.5c0-0.6,0-1.2-0.2-1.9c-0.2-1.9-0.4-3.7-0.8-5.6l-0.2-0.8c-0.2-0.6-0.4-2.1-1.3-3.1
		c-0.8-1.5-2.1-2.7-3.2-3.9c0,0,0-0.2,0-0.4c1.1-1.2,2.1-2.5,2.9-3.3c2.3-2.1,2.9-5,1.5-7.7c-0.2-0.4-0.4-0.6-0.6-1
		c-0.4-0.6-0.6-1.2-0.8-1.9c-0.2-1-0.4-2.1-0.6-2.9c-0.2-1-0.4-2.1-0.6-2.9c0-0.4-0.4-1-0.4-1.2c-0.4-0.6-0.4-0.8-0.2-1.2l0.2-0.2
		v-0.2c0-0.6-0.4-1-0.6-1.2c-0.4-0.4-0.4-1.2-0.4-2.3v-1c0-5.4-1.7-10-4.8-13.9c-4.6-5.8-9.2-9.6-14.3-11.8l-1.9-0.8
		c-4.6-2.1-9.5-4.4-14.7-5.6c-2.2-0.6-4.4-1.2-6.6-1.7c2,0.5,3.9,1,5.9,1.5c5.7,1.6,11,4.1,16.4,6.5c5.8,2.5,10.2,6.7,13.9,11.6
		c3,3.9,4.5,8.4,4.5,13.3c0,1.4-0.4,2.9,0.8,4.1c0.1,0.1,0.2,0.4,0.1,0.5c-0.1,0.2-0.2,0.3-0.2,0.5c0,0,0,0,0,0c0,0.1,0,0.1,0,0.2
		c0,0.1,0,0.2,0,0.3c0,0.8,0.7,1.5,0.9,2.3c0,0.1,0,0.2,0.1,0.3c0,0,0,0,0,0.1c0.1,0.4,0.1,0.7,0.2,1.1c0,0.2,0.1,0.4,0.1,0.6
		c0.1,0.4,0.2,0.9,0.3,1.2c0.1,0.5,0.2,1.1,0.3,1.6c0.1,0.4,0.2,0.8,0.3,1.3c0.3,1.1,1,2.1,1.6,3.2c1.3,2.4,0.7,4.8-1.3,6.6
		c-1.2,1-2.2,2.3-3.2,3.5c-0.2,0.3-0.2,1,0.1,1.3l0.2,0c0,0.1,0,0.1,0,0.2c0.9,1.2,1.9,2.4,2.7,3.6c0.3,0.4,0.6,0.8,0.9,1.2
		c0.4,0.4,0.8,1.5,0.8,2.3l0.2,0.8c0.4,1.9,0.6,3.7,0.8,5.6c0,0.6,0,1.2,0.2,1.9c-0.1,1-0.2,1.9-0.3,2.9c0,1.9-0.3,3.8-1.3,5.6
		c-0.3,0.6-0.9,1.2-1.5,1.5c-1.6,0.8-2.4,2.1-2.3,3.9c0,0.1,0,0.1,0,0.2h0.1v0.2c-0.1,0.1-0.1,0.1-0.2,0.2c0,0.1-0.1,0.2-0.2,0.3
		c-1.2,1-0.9,2.2-0.7,3.5c0.4,2.8,0.4,5.6-1.6,8c-0.7,0.8-1.1,2-1.5,3.1c-2.5,7.8-7.1,14-13.9,18.7c-6.5,4.6-13.7,7.7-21.4,9.4
		c-4.9,1.1-9.9,2.2-14.7,3.7c-5.2,1.6-10.6,1.3-15.9,2.1c-2.6,0.4-5.2,0.5-6.9,0.7c-8.6,0-16.2,0-23.8,0c-11.4,0-22.6-1.2-33.6-4
		c-4.8-1.2-9.7-2-14.4-3.6c-9.6-3.2-18.3-8-26.2-14.5c-6.4-5.3-9.9-12-11.2-20.1c-0.2-1.1-0.5-2.3-0.8-3.3c-0.5-1.6-0.9-3.2-0.3-4.8
		c0.1-0.2,0.1-0.4,0.1-0.7c-0.3-2.3-0.6-4.6-0.9-7c-0.3-2.2-0.9-4.4-1-6.7c-0.1-3.1,1.2-5.6,3.8-7.2c2.2-1.3,2.8-3.6,4.1-5.4
		c0.3-0.5-0.6-2-1.2-2.9c-0.4-0.6-1.4-0.9-2.1-1.2c-2.4-1.3-3.3-3.8-2.1-6.3c0.8-1.7,0.8-3.2,0.1-4.9c-1.2-2.8-0.3-5.5,0.9-8.1
		c0.5-1.2,1.2-2.3,2.1-3.3c1.4-1.4,1.3-3.2,1.5-4.9c1.7-13,8.4-22.4,20.1-28.2c7.8-3.8,16.2-5.9,24.8-7.2c4.1-0.7,8.3-1.1,12.4-1.5
		c-4.1,0.4-8.3,0.8-12.5,1.5c-10.3,1.5-18.3,3.7-25.2,7.3c-11.8,5.8-18.9,15.4-20.8,28.9c0,1.7,0,2.9-1.1,4.2
		c-1.1,1-1.7,2.1-2.1,3.5c-1.7,3.3-2.1,6.2-1.1,8.7c0.4,1.5,0.4,2.9-0.2,4.2c-1.5,2.9-0.4,5.8,2.5,7.5c0.2,0,0.4,0.2,0.6,0.2
		c0.4,0.2,0.8,0.4,1.1,0.6l0.2,0.2c0.2,0.4,0.8,1.5,1.1,1.9c-0.4,0.6-0.6,1.2-1.1,1.7c-0.6,1.2-1.3,2.5-2.7,3.1
		c-2.5,1.9-4.2,4.6-4.2,8.1c0,1,0.2,2.3,0.4,3.3s0.4,2.1,0.4,3.3c0.2,1.2,0.4,2.3,0.4,3.5c0.4,1,0.4,2.3,0.6,3.3v0.6
		c-0.8,1.9-0.2,3.7,0.2,5.2c0.4,1,0.6,2.1,0.8,3.1c1.5,8.7,5.3,15.4,11.6,20.6c8.2,6.6,17,11.4,26.5,14.5c2.9,0.8,6.1,1.7,9,2.3
		c1.9,0.4,3.6,0.8,5.5,1.2c10.3,2.5,21.9,3.9,34.1,3.9h0.8c3.4,0.2,7.1,0.2,10.7,0.2c3.2,0,6.5,0,9.9-0.2h2.3c0.6,0,1.3-0.2,1.9-0.2
		h0.8c4.2-0.2,8.6-0.6,12.6-1.2c1.9-0.2,3.8-0.4,5.9-1h0.2c0.4-0.2,1.1-0.2,1.5-0.4c4.8-1.5,9.7-2.5,14.7-3.5
		c7.8-1.7,15.1-4.8,21.9-9.6c6.9-4.6,11.8-11,14.3-19.1c0.4-1,0.6-2.1,1.3-2.7c2.3-2.7,2.3-5.8,1.9-8.5v-0.4
		c-0.2-1.2-0.2-1.7,0.6-2.3c0.4-0.4,0.6-1,0.4-1.9c0-1.2,0.4-2.3,1.9-2.9c1.1-0.6,1.7-1.2,1.7-1.9
		C1381,426.7,1380.8,423.6,1380.6,420.5z"/>
	<path class="st3" d="M1212.2,347.8c-11.7,5.7-18.3,15.2-20.1,28.2c-0.2,1.7-0.2,3.5-1.5,4.9c-0.9,0.9-1.5,2.1-2.1,3.3
		c-1.2,2.6-2.1,5.3-0.9,8.1c0.7,1.7,0.7,3.3-0.1,4.9c-1.2,2.5-0.3,5,2.1,6.3c0.7,0.4,1.7,0.6,2.1,1.2c0.6,0.8,1.5,2.4,1.2,2.9
		c-1.2,1.9-1.9,4.1-4.1,5.4c-2.6,1.5-3.9,4.1-3.8,7.2c0.1,2.2,0.7,4.5,1,6.7c0.3,2.3,0.6,4.6,0.9,7c0,0.2,0,0.5-0.1,0.7
		c-0.7,1.6-0.3,3.2,0.3,4.8c0.4,1.1,0.7,2.2,0.8,3.3c1.3,8.1,4.8,14.8,11.2,20.1c7.9,6.5,16.6,11.3,26.2,14.5
		c4.7,1.5,9.6,2.4,14.4,3.6c11.1,2.7,22.3,3.9,33.6,4c7.6,0,15.3,0,23.8,0c1.7-0.2,4.3-0.3,6.9-0.7c5.3-0.8,10.7-0.5,15.9-2.1
		c4.8-1.5,9.8-2.6,14.7-3.7c7.8-1.7,14.9-4.8,21.4-9.4c6.7-4.7,11.3-10.8,13.9-18.7c0.3-1.1,0.8-2.3,1.5-3.1c2-2.4,2-5.1,1.6-8
		c-0.2-1.3-0.5-2.5,0.7-3.5c0.1-0.1,0.1-0.2,0.2-0.3c-1.4,1.2-1.1,2.6-1.1,3.8v0.4c0,0.6,0.2,1.2,0.2,1.9l-184.6-0.6
		c-0.2-0.4-0.2-1-0.4-1.5c-0.6-1.7-0.6-2.9-0.2-4.2v-1.2c-0.2-1.2-0.4-2.3-0.4-3.5c-0.2-1.2-0.2-2.3-0.4-3.5c0-1-0.2-2.3-0.4-3.3
		s-0.4-2.1-0.4-3.1c0-2.9,1.3-5,3.4-6.2c1.9-0.8,2.7-2.5,3.4-3.9c0.4-0.6,0.6-1.2,1.1-1.7c0.6-1-0.2-2.5-1.1-3.7
		c-0.4-0.8-1.3-1.2-1.9-1.5c-0.2,0-0.4-0.2-0.4-0.2c-2.1-1-2.7-2.9-1.7-5c0.6-1.7,0.8-3.1,0.4-5l184.2,12c-0.2-0.3-0.3-1-0.1-1.3
		c1-1.2,2-2.5,3.2-3.5c2.1-1.8,2.6-4.2,1.3-6.6c-0.6-1-1.2-2.1-1.6-3.2c-0.1-0.4-0.2-0.8-0.3-1.3c0.1,0.5,0.2,0.9,0.3,1.3
		c0.2,0.8,0.6,1.7,1.1,2.5c0.2,0.2,0.4,0.6,0.4,1c1.1,1.9,0.6,3.9-1.1,5.4c-1.3,1-2.3,2.3-2.9,3.3l-185.4-11.6
		c-0.4-1.9,0-3.7,1.1-6.2c0.6-1.2,1.1-2.3,1.9-3.1c1.5-1.7,1.5-3.3,1.5-5l0.1,0c0-0.1,0-0.1,0-0.2c0-0.2,0-0.5,0.1-0.7
		c0.1-0.3,0.3-0.9,0.3-0.9c2.1-11.8,8.4-20.1,19.3-25.5c6.9-3.3,14.7-5.6,24.8-7.1c12.2-1.9,24.6-2.5,35.1-2.7c2.1,0,4-0.2,6.1-0.2
		c5,0,9.9,0.2,14.9,0.4l4.8,0.2h1.7c13,0.8,26.3,3.1,38.9,6.6c5,1.2,9.9,3.3,14.5,5.4l1.9,0.8c4.8,2.1,9.2,5.8,13.7,11.2
		c2.9,3.5,4.4,7.9,4.4,12.7v0.8c0,1-0.2,2.5,0.8,3.5c0,0.1-0.1,0.2-0.1,0.3c0-0.1,0.1-0.3,0.2-0.5c0.1-0.1,0-0.4-0.1-0.5
		c-1.2-1.2-0.8-2.7-0.8-4.1c0-5-1.5-9.5-4.5-13.3c-3.8-4.9-8.2-9-13.9-11.6c-5.4-2.4-10.7-4.9-16.4-6.5c-2-0.5-3.9-1-5.9-1.5
		c-10.7-2.5-21.7-4.1-32.7-5c-0.6,0-1.1-0.1-1.7-0.1c-2.9-0.2-5.8-0.3-8.7-0.5c-5.8-0.3-11.6-0.4-17.3-0.2
		c-6.4,0.2-13.4,0.5-20.6,1.1c-0.4,0-0.9,0.1-1.3,0.1c-0.3,0-0.6,0.1-0.9,0.1c-4.2,0.4-8.3,0.8-12.4,1.5
		C1228.4,341.9,1220,344,1212.2,347.8z M1188.2,442.5l184.2,0.4c0.6,1.2,0.2,2.5-0.8,3.5c-0.8,1-1.3,2.3-1.7,3.3
		c-2.5,7.7-6.9,13.7-13.7,18.1c-6.5,4.6-13.7,7.5-21.2,9.1c-4.8,1-9.9,2.3-14.7,3.7c-3.4,1-6.9,1.5-10.5,1.7
		c-1.7,0.2-3.6,0.2-5.5,0.6c-1.5,0.2-3.2,0.4-4.6,0.4c-1.5,0-2.9,0.2-4.4,0.2h-20.8c-10.7-0.4-19.6-1.2-23.8-1.7
		c-3.8-0.6-7.4-1.2-10.9-2.1c-1.9-0.4-3.6-0.8-5.5-1.2c-3.2-0.6-6.1-1.5-9-2.3c-9.2-2.9-18.1-7.9-26.1-14.3
		c-6.1-4.8-9.5-11-10.9-19.3C1188.2,442.7,1188.2,442.7,1188.2,442.5z"/>
	<path class="st3" d="M1376.6,430c-1.9,1-2.9,2.7-2.7,4.8h0.1c0-0.1,0-0.2,0-0.2c-0.1-1.8,0.7-3,2.3-3.9c0.6-0.3,1.2-0.9,1.5-1.5
		c1-1.8,1.3-3.7,1.3-5.6c-0.2,1.9-0.4,3.7-1.4,5.6C1377.6,429.2,1377.4,429.6,1376.6,430z"/>
	<path class="st3" d="M1374.1,406.1c0.8,0.9,1.5,1.8,2.3,2.8c-0.8-1.2-1.8-2.4-2.7-3.6c0,0.3,0,0.5,0.2,0.6L1374.1,406.1z"/>
	<path class="st3" d="M1374.2,381.6c0,0.1,0,0.1,0,0.2C1374.1,381.7,1374.1,381.6,1374.2,381.6z"/>
	<path class="st3" d="M1375.3,385.8c0,0.2,0.1,0.4,0.1,0.6C1375.4,386.2,1375.4,386,1375.3,385.8z"/>
	<path class="st3" d="M1375.1,384.7c0-0.1,0-0.2-0.1-0.3c-0.2-0.8-0.9-1.5-0.9-2.3c0,0.7,0.3,1.4,0.6,1.8
		C1374.9,384.1,1374.9,384.5,1375.1,384.7z"/>
</g>
</svg>
