<?xml version="1.0" encoding="utf-8"?>
<!-- Generator: Adobe Illustrator 27.0.0, SVG Export Plug-In . SVG Version: 6.00 Build 0)  -->
<svg version="1.1" xmlns="http://www.w3.org/2000/svg" xmlns:xlink="http://www.w3.org/1999/xlink" x="0px" y="0px"
	 viewBox="0 0 106 135" style="enable-background:new 0 0 106 135;" xml:space="preserve">
<style type="text/css">
	.st0{opacity:0.4;fill:#FFFFFF;stroke:#FFFFFF;stroke-miterlimit:10;}
	.st1{fill:#FFFFFF;stroke:#FFFFFF;stroke-miterlimit:10;}
	.st2{fill:#FFFFFF;}
</style>
<g id="圖層_3">
</g>
<g id="圖層_3_拷貝">
</g>
<g id="圖層_1">
	<g>
		<path class="st0" d="M17.2,38.9l-2.9,1.9l-1.8,2.7l-1.7,2.9L10,49.1V52l-1,0.5l-1,1.7l0,2.2L8,57.6l-0.1,0.9c0,0,0.5,0.5,0,1.3
			c-0.5,0.8,0.3,1.1,0.3,1.1l-0.3,1.8L8.6,64l0.8,0.4l0.5,1l-0.5,1.9l-1.3,0.5l-1.3,2.5L7,71.7l0.2,1.5l-0.1,2.2l0.5,1.1l-0.2,1.3
			l-0.1,1.3l0.7,4.7l2.1,5.1l5.2,4.9l6.2,3.4l7.1,2.7l11.7,2.3l9.5,0.4l14.6-0.4l8-1.5l11.2-3l4.8-2.9l3.6-3.2l2.5-4.8l1.4-3.5
			l0.4-1.6v-2.1l0.6-1.5l1.1-1.5l0.8-1.6v-4.1l-0.8-4l-1.7-2.4l0.1-0.9l2-2l0.4-2L97,53.6l-0.3-2.2v-2.7l-2.8-5.4l-6.7-5.2
			l-12.3-3.5l-8.4-1.5l-14-0.6l-12,0.3L28.8,34L21,36.4L17.2,38.9z"/>
		<path class="st1" d="M99.7,71.7c0-0.3,0-0.6-0.1-0.9c-0.1-0.9-0.2-1.8-0.4-2.7l-0.1-0.4c-0.1-0.3-0.2-1-0.6-1.5
			c-0.4-0.7-1-1.3-1.5-1.9c0,0,0-0.1,0-0.2c0.5-0.6,1-1.2,1.4-1.6c1.1-1,1.4-2.4,0.7-3.7c-0.1-0.2-0.2-0.3-0.3-0.5
			c-0.2-0.3-0.3-0.6-0.4-0.9c-0.1-0.5-0.2-1-0.3-1.4c-0.1-0.5-0.2-1-0.3-1.4c0-0.2-0.2-0.5-0.2-0.6c-0.2-0.3-0.2-0.4-0.1-0.6
			l0.1-0.1v-0.1c0-0.3-0.2-0.5-0.3-0.6c-0.2-0.2-0.2-0.6-0.2-1.1c0-0.2,0-0.3,0-0.5c0-2.6-0.8-4.8-2.3-6.7c-2.2-2.8-4.4-4.6-6.8-5.7
			l-0.9-0.4c-2.2-1-4.5-2.1-7-2.7c-6.1-1.7-12.4-2.7-18.7-3.2c-4.3-0.3-8.8-0.5-13.2-0.4c-5.1,0.2-11,0.4-16.8,1.3
			c-4.9,0.7-8.7,1.8-12,3.5c-5.6,2.8-9,7.4-9.9,13.9c0,0.8,0,1.4-0.5,2c-0.5,0.5-0.8,1-1,1.7c-0.8,1.6-1,3-0.5,4.2
			c0.2,0.7,0.2,1.4-0.1,2c-0.7,1.4-0.2,2.8,1.2,3.6c0.1,0,0.2,0.1,0.3,0.1c0.2,0.1,0.4,0.2,0.5,0.3l0.1,0.1c0.1,0.2,0.4,0.7,0.5,0.9
			c-0.2,0.3-0.3,0.6-0.5,0.8c-0.3,0.6-0.6,1.2-1.3,1.5C7,68.7,6.2,70,6.2,71.7c0,0.5,0.1,1.1,0.2,1.6c0.1,0.5,0.2,1,0.2,1.6
			c0.1,0.6,0.2,1.1,0.2,1.7C7,77.1,7,77.7,7.1,78.2v0.3C6.7,79.4,7,80.3,7.2,81c0.2,0.5,0.3,1,0.4,1.5c0.7,4.2,2.5,7.4,5.5,9.9
			c3.9,3.2,8.1,5.5,12.6,7c1.4,0.4,2.9,0.8,4.3,1.1c0.9,0.2,1.7,0.4,2.6,0.6c4.9,1.2,10.4,1.9,16.2,1.9l0.4,0
			c1.6,0.1,3.4,0.1,5.1,0.1c1.5,0,3.1,0,4.7-0.1l1.1,0c0.3,0,0.6-0.1,0.9-0.1c0.1,0,0.3,0,0.4,0c2-0.1,4.1-0.3,6-0.6
			c0.9-0.1,1.8-0.2,2.8-0.5c0,0,0.1,0,0.1,0c0,0,0,0,0,0c0.2-0.1,0.5-0.1,0.7-0.2c2.3-0.7,4.6-1.2,7-1.7c3.7-0.8,7.2-2.3,10.4-4.6
			c3.3-2.2,5.6-5.3,6.8-9.2c0.2-0.5,0.3-1,0.6-1.3c1.1-1.3,1.1-2.8,0.9-4.1l0-0.2c-0.1-0.6-0.1-0.8,0.3-1.1c0.2-0.2,0.3-0.5,0.2-0.9
			c0-0.6,0.2-1.1,0.9-1.4c0.5-0.3,0.8-0.6,0.8-0.9C99.9,74.7,99.8,73.2,99.7,71.7z M19.8,37.5c3.3-1.6,7-2.7,11.8-3.4
			c5.8-0.9,11.7-1.2,16.7-1.3c1,0,1.9-0.1,2.9-0.1c2.4,0,4.7,0.1,7.1,0.2L10.6,49.8C11.6,44.1,14.6,40.1,19.8,37.5z M8.8,54.6
			c0.3-0.6,0.5-1.1,0.9-1.5c0.7-0.8,0.7-1.6,0.7-2.4l50.2-17.7c0.3,0,0.5,0,0.8,0c6.2,0.4,12.5,1.5,18.5,3.2
			c2.4,0.6,4.7,1.6,6.9,2.6l0.9,0.4c2.3,1,4.4,2.8,6.5,5.4c1.4,1.7,2.1,3.8,2.1,6.1c0,0.1,0,0.3,0,0.4c0,0.5-0.1,1.2,0.4,1.7
			c-0.2,0.5,0,1,0.2,1.3c0.1,0.1,0.1,0.3,0.2,0.4c0.1,0.5,0.2,1,0.3,1.4c0.1,0.5,0.2,1,0.3,1.4c0.1,0.4,0.3,0.8,0.5,1.2
			c0.1,0.1,0.2,0.3,0.2,0.5c0.5,0.9,0.3,1.9-0.5,2.6c-0.6,0.5-1.1,1.1-1.4,1.6L8.3,57.6C8.1,56.7,8.3,55.8,8.8,54.6z M97.1,64.1
			C97.1,64.1,97.1,64.1,97.1,64.1C97.1,64.1,97.1,64.1,97.1,64.1C97.1,64.1,97.1,64.1,97.1,64.1z M95.4,84.2
			c-0.4,0.5-0.6,1.1-0.8,1.6c-1.2,3.7-3.3,6.6-6.5,8.7c-3.1,2.2-6.5,3.6-10.1,4.4c-2.3,0.5-4.7,1.1-7,1.8c-1.6,0.5-3.3,0.7-5,0.8
			c-0.8,0.1-1.7,0.1-2.6,0.3c-0.7,0.1-1.5,0.2-2.2,0.2c-0.7,0-1.4,0.1-2.1,0.1h-9.9c-5.1-0.2-9.3-0.6-11.3-0.8
			c-1.8-0.3-3.5-0.6-5.2-1c-0.9-0.2-1.7-0.4-2.6-0.6c-1.5-0.3-2.9-0.7-4.3-1.1c-4.4-1.4-8.6-3.8-12.4-6.9c-2.9-2.3-4.5-5.3-5.2-9.3
			c0,0,0,0,0-0.1l87.6,0.2C96.1,83.1,95.9,83.7,95.4,84.2z M98.3,75.9c0,0-0.1,0.2-0.5,0.4c-0.9,0.5-1.4,1.3-1.3,2.3l0.1,0l0,0.1
			c-0.8,0.6-0.6,1.3-0.6,1.9l0,0.2c0,0.3,0.1,0.6,0.1,0.9L8.3,81.4c-0.1-0.2-0.1-0.5-0.2-0.7c-0.3-0.8-0.3-1.4-0.1-2l0-0.1l0-0.5
			c-0.1-0.6-0.2-1.1-0.2-1.7c-0.1-0.6-0.1-1.1-0.2-1.7c0-0.5-0.1-1.1-0.2-1.6c-0.1-0.5-0.2-1-0.2-1.5c0-1.4,0.6-2.4,1.6-3
			c0.9-0.4,1.3-1.2,1.6-1.9c0.2-0.3,0.3-0.6,0.5-0.8c0.3-0.5-0.1-1.2-0.5-1.8c-0.2-0.4-0.6-0.6-0.9-0.7c-0.1,0-0.2-0.1-0.2-0.1
			c-1-0.5-1.3-1.4-0.8-2.4c0.3-0.8,0.4-1.5,0.2-2.4l87.7,5.8c0,0.2,0,0.3,0.1,0.4l0.1,0.1c0.5,0.6,1,1.2,1.5,1.9
			c0.2,0.2,0.4,0.7,0.4,1.1l0.1,0.4c0.2,0.9,0.3,1.8,0.4,2.7c0,0.3,0,0.6,0.1,0.9C98.9,73.2,99,74.5,98.3,75.9z"/>
		<g>
			<path class="st2" d="M35.1,76.8v-0.7c1.2,0,1.8-0.5,1.8-1.5v-7.9c0-0.3-0.2-0.5-0.7-0.5c-0.4,0-0.7,0.1-0.9,0.2
				c-0.3,0.1-0.5,0.3-0.7,0.5s-0.4,0.5-0.5,0.9c-0.1,0.4-0.3,0.8-0.4,1.3L32.7,69l0.5-3.9c0.3,0,0.6,0.1,1,0.1s0.6,0,0.9,0h6.9
				c0.3,0,0.6,0,0.9,0s0.7-0.1,1-0.1v3.8l-1,0.1c-0.1-0.9-0.3-1.6-0.6-2.1c-0.3-0.5-0.9-0.7-1.7-0.7c-0.5,0-0.8,0.2-0.8,0.5v7.9
				c0,1,0.6,1.5,1.8,1.5v0.7H35.1z"/>
			<path class="st2" d="M60.6,71c0,1-0.2,1.9-0.5,2.6c-0.3,0.8-0.7,1.4-1.3,1.9c-0.6,0.5-1.2,0.9-2,1.2s-1.6,0.4-2.5,0.4
				c-0.8,0-1.6-0.1-2.4-0.3c-0.7-0.2-1.4-0.6-1.9-1.1s-1-1.1-1.3-1.9s-0.5-1.7-0.5-2.7c0-1.1,0.2-2,0.5-2.7s0.7-1.4,1.3-1.9
				c0.5-0.5,1.2-0.9,1.9-1.1s1.5-0.3,2.4-0.3c0.8,0,1.6,0.1,2.4,0.4c0.8,0.3,1.4,0.6,2,1.1c0.6,0.5,1,1.1,1.3,1.8
				C60.4,69.1,60.6,70,60.6,71z M54.6,76.2c0.6,0,1.1-0.1,1.5-0.4c0.4-0.3,0.7-0.6,0.9-1.1c0.2-0.5,0.4-1,0.5-1.6
				c0.1-0.6,0.1-1.3,0.1-2c0-0.7,0-1.3-0.1-1.9c-0.1-0.6-0.3-1.2-0.5-1.7c-0.2-0.5-0.6-0.9-1-1.2c-0.4-0.3-1-0.4-1.7-0.4
				c-0.6,0-1.2,0.1-1.5,0.4c-0.4,0.3-0.7,0.7-0.9,1.1c-0.2,0.5-0.3,1-0.4,1.6c-0.1,0.6-0.1,1.3-0.1,1.9c0,0.7,0,1.4,0.1,2.1
				s0.3,1.2,0.5,1.7c0.2,0.5,0.6,0.8,1,1.1C53.4,76.1,53.9,76.2,54.6,76.2z"/>
			<path class="st2" d="M65.2,76.8v-0.7c1,0,1.6-0.4,1.6-1.1v-8c0-0.6-0.5-0.9-1.6-0.9v-0.8h3.9c0.4,0,0.8,0,1.1,0c0.3,0,0.6,0,1,0
				c1.5,0,2.7,0.3,3.4,0.8c0.7,0.6,1.1,1.4,1.1,2.6c0,0.4-0.1,0.9-0.2,1.3c-0.2,0.4-0.4,0.7-0.8,1c-0.4,0.3-0.8,0.5-1.4,0.7
				c-0.6,0.2-1.3,0.3-2.1,0.3c-0.3,0-0.6,0-0.9,0c-0.2,0-0.4-0.1-0.7-0.1v3.2c0,0.4,0.1,0.7,0.4,0.9c0.3,0.2,0.7,0.3,1.3,0.3v0.7
				H65.2z M69.6,70.8c0.2,0.1,0.5,0.1,0.7,0.1c0.2,0,0.5,0,0.8,0c0.4,0,0.6-0.1,0.8-0.2c0.2-0.1,0.4-0.3,0.5-0.5
				c0.1-0.2,0.2-0.5,0.2-0.8c0-0.3,0-0.6,0-0.9c0-0.4,0-0.8-0.1-1.1s-0.2-0.6-0.4-0.8c-0.2-0.2-0.4-0.4-0.7-0.5
				c-0.3-0.1-0.7-0.2-1.2-0.2c-0.4,0-0.6,0.3-0.6,0.8V70.8z"/>
		</g>
	</g>
</g>
</svg>
