<?xml version="1.0" encoding="utf-8"?>
<!-- Generator: Adobe Illustrator 27.0.0, SVG Export Plug-In . SVG Version: 6.00 Build 0)  -->
<svg version="1.1" xmlns="http://www.w3.org/2000/svg" xmlns:xlink="http://www.w3.org/1999/xlink" x="0px" y="0px"
	 viewBox="0 0 100 100" style="enable-background:new 0 0 100 100;" xml:space="preserve">
<style type="text/css">
	.st0{fill:#FFFFFF;}
</style>
<g id="圖層_2">
</g>
<g id="圖層_1">
	<g>
		<path class="st0" d="M66.9,45.9c-0.9,0-1.1,0.2-0.9,1.1c0.5,2.5,0.3,5.1-0.4,7.6C63.3,62.5,55,67.5,46.7,65.9
			c-8.1-1.6-13.7-9.5-12.8-17.7c0.3-2.3,0.2-2.2-2.2-2.4c-1.7,0-2.2,0.4-2.2,2.2c0.1,6.5,0.1,13,0.1,19.3c0,2.5,0.7,3.2,3.1,3.2
			c5.8,0,11.6,0,17.3,0s11.5,0,17.3,0c2.5,0,3.2-0.7,3.2-3.2c0-6,0-12,0.1-18C70.6,45.6,70.6,45.6,66.9,45.9z"/>
		<path class="st0" d="M49.8,60.2c5.7,0.1,10.4-4.6,10.4-10.2c0.1-5.5-4.7-10.3-10.2-10.3s-10.2,4.6-10.3,10.1
			C39.5,55.4,44.2,60.1,49.8,60.2z"/>
		<path class="st0" d="M65.3,39.9c5.2,0,5.2,0,5.2-5.1c0-5.3,0-5.3-5.3-5.3c-5.1,0-5.1,0-5.1,5.2S60.1,39.9,65.3,39.9z"/>
		<path class="st0" d="M50,1C22.9,1,1,22.9,1,50s22,49,49,49c27.1,0,49-21.9,49-49C99,23,77.1,1,50,1z M76.5,69.5c0,4.5-2.5,7-7,7
			c-13.1,0-26.1,0-39.2,0c-4.3,0-6.8-2.4-6.8-6.9c0-6.5,0-13.1,0-19.5c0-6.5,0-13,0-19.4c0-4.7,2.4-7.1,7-7.1c13,0,26,0,39,0
			c4.5,0,7,2.4,7,7C76.5,43.6,76.5,56.5,76.5,69.5z"/>
	</g>
</g>
</svg>
