<?xml version="1.0" encoding="utf-8"?>
<!-- Generator: Adobe Illustrator 27.0.0, SVG Export Plug-In . SVG Version: 6.00 Build 0)  -->
<svg version="1.1" xmlns="http://www.w3.org/2000/svg" xmlns:xlink="http://www.w3.org/1999/xlink" x="0px" y="0px"
	 viewBox="0 0 100 100" style="enable-background:new 0 0 100 100;" xml:space="preserve">
<style type="text/css">
	.st0{fill:#FFFFFF;}
</style>
<g id="圖層_2">
</g>
<g id="圖層_1">
	<g>
		<path class="st0" d="M50.1,1C23,1,1,22.9,1,50c0,23.3,16.4,42.9,38.5,47.9c3.4,0.7,6.9,1.1,10.6,1.1c1.4,0,2.8,0,4.1-0.2
			C79.3,96.8,99,75.7,99,50C99,22.9,77.1,1,50.1,1z M65.1,28.4c-2-0.6-4.2-0.8-6-0.8c-2,0-3.3,0.6-4,1.4c-0.9,0.9-1.3,2.5-1.2,5.1
			v3.4h9.7v10.6h-9.7V82c-1.3,0.2-2.6,0.2-3.8,0.2c-3.3,0-6.5-0.3-9.6-1V47.9h-7.3V37.3h7.3v-3.6c0-4.1,0.5-7.4,1.4-9.3
			c0.9-2.1,2.5-3.6,4.9-5c2.4-1.3,5.3-1.9,9.1-1.9c3.7,0,7.4,0.4,10.9,1.6L65.1,28.4z"/>
	</g>
</g>
</svg>
