<?xml version="1.0" encoding="utf-8"?>
<!-- Generator: Adobe Illustrator 27.0.0, SVG Export Plug-In . SVG Version: 6.00 Build 0)  -->
<svg version="1.1" xmlns="http://www.w3.org/2000/svg" xmlns:xlink="http://www.w3.org/1999/xlink" x="0px" y="0px"
	 viewBox="0 0 100 100" style="enable-background:new 0 0 100 100;" xml:space="preserve">
<style type="text/css">
	.st0{fill-rule:evenodd;clip-rule:evenodd;fill:#FFFFFF;}
</style>
<g id="圖層_2">
</g>
<g id="圖層_1">
	<g>
		<path class="st0" d="M70,23.5c-13,0-26,0-39,0c-4.6,0-7,2.4-7,7.1c0,6.4,0,12.9,0,19.4c0,6.4,0,13,0,19.5c0,4.5,2.5,6.9,6.8,6.9
			c13.1,0,26.1,0,39.2,0c4.5,0,7-2.5,7-7c0-13,0-25.9,0-38.9C77,26,74.5,23.5,70,23.5z M65.7,29.5c5.3,0,5.3,0,5.3,5.3
			c0,5.1,0,5.1-5.2,5.1s-5.2,0-5.2-5.2C60.6,29.5,60.6,29.5,65.7,29.5z M50.5,39.7c5.5,0,10.3,4.8,10.2,10.3
			c0,5.6-4.7,10.3-10.4,10.2c-5.6-0.1-10.3-4.8-10.1-10.4C40.3,44.2,45,39.7,50.5,39.7z M71,67.2c0,2.5-0.7,3.2-3.2,3.2
			c-5.8,0-11.6,0-17.3,0s-11.5,0-17.3,0c-2.4,0-3.1-0.7-3.1-3.2c0-6.3,0-12.8-0.1-19.3c0-1.8,0.5-2.2,2.2-2.2
			c2.4,0.2,2.5,0.1,2.2,2.4c-0.9,8.2,4.7,16.1,12.8,17.7c8.3,1.6,16.6-3.4,18.9-11.3c0.7-2.5,0.9-5.1,0.4-7.6
			c-0.2-0.9,0-1.1,0.9-1.1c3.7-0.3,3.7-0.3,3.7,3.4C71,55.2,71,61.2,71,67.2z"/>
	</g>
</g>
</svg>
