<?xml version="1.0" encoding="utf-8"?>
<!-- Generator: Adobe Illustrator 27.0.0, SVG Export Plug-In . SVG Version: 6.00 Build 0)  -->
<svg version="1.1" xmlns="http://www.w3.org/2000/svg" xmlns:xlink="http://www.w3.org/1999/xlink" x="0px" y="0px"
	 viewBox="0 0 915 265" style="enable-background:new 0 0 915 265;" xml:space="preserve">
<style type="text/css">
	.st0{display:none;}
	.st1{display:inline;}
	.st2{fill:#DDB7AC;}
	.st3{fill:#F0D9D1;}
	.st4{display:inline;fill:#DDB7AC;}
	.st5{clip-path:url(#SVGID_00000047751527655355135110000010438093059483791237_);}
	.st6{fill:#FFFFFF;}
</style>
<g id="圖層_1" class="st0">
	<g class="st1">
		<g>
			<g>
				<g>
					<path class="st2" d="M764.5,158.5c62.3,1.9,107.9-4.9,138.7-18.9l-39.4-47.7L903.2,16c0,0-45.4,18-138.7,17.4V158.5z"/>
				</g>
				<path class="st3" d="M764.5,33.4l57.6,23.8c0,0-29.5,15.7-57.6,18.7V33.4z"/>
			</g>
			<g>
				<g>
					<path class="st2" d="M151,71.6C88.7,69.7,43.2,76.5,12.4,90.5l38.1,59.4l-38.1,64.3c0,0,45.4-18,138.7-17.4V71.6z"/>
				</g>
				<path class="st3" d="M151,196.7l-57.6-23.8c0,0,29.5-9.8,57.6-12.7V196.7z"/>
			</g>
		</g>
	</g>
	<path class="st4" d="M822.1,57.3c0,0-113.6,59.3-324.6,12.1s-339.7-49.2-404-20.1v123.6c0,0,63.3-25.1,194-15.1
		s368.8,98.5,534.7,25.1C822.1,182.9,820,70.4,822.1,57.3z"/>
</g>
<g id="圖層_2">
	<g>
		<g>
			<defs>
				<rect id="SVGID_1_" x="139.4" y="26.3" width="623" height="209"/>
			</defs>
			<clipPath id="SVGID_00000171714689516505476360000009317941402562169524_">
				<use xlink:href="#SVGID_1_"  style="overflow:visible;"/>
			</clipPath>
			<g style="clip-path:url(#SVGID_00000171714689516505476360000009317941402562169524_);">
				<path class="st6" d="M450,98.8c-6,7.3-11.1,13.5-15.3,18.5c-4.2,5-7.5,9.2-10.1,12.5c-2.6,3.3-4.4,6-5.6,7.9
					c-1.2,1.9-1.7,3.5-1.7,4.7c0,2.4,1.1,3.6,3.5,3.6c2.3,0,4.7-0.7,7.7-2c2.9-1.3,6-3.1,9.1-5.2c3.2-2.1,6.4-4.5,9.5-7.2
					c3.2-2.7,6.2-5.3,9-8c2.8-2.6,5.3-5.2,7.4-7.6c2.1-2.5,3.7-4.5,4.7-6l1.3,0.7c-1.3,1.8-3.1,4.1-5.3,6.7c-2.2,2.6-4.8,5.2-7.7,8
					c-2.8,2.7-5.9,5.4-9,8.1c-3.2,2.7-6.4,5.1-9.7,7.2c-3.3,2.1-6.5,3.8-9.6,5.1s-6,2-8.6,2c-3,0-5.2-0.7-6.6-2.1
					c-1.4-1.4-2.1-2.9-2.1-4.6c0-2,0.5-4,1.6-6.2c1-2.2,2.7-4.8,5-8c2.3-3.1,5.3-7,9-11.5s8.1-10,13.2-16.6H450L450,98.8z
					 M459.5,72.9c1.5,0,2.8,0.4,3.8,1.3c1,0.9,1.5,2,1.5,3.3c0,1.3-0.5,2.4-1.5,3.3c-1,0.9-2.2,1.3-3.8,1.3c-1.5,0-2.8-0.4-3.8-1.3
					s-1.5-2-1.5-3.3c0-1.3,0.5-2.4,1.5-3.3C456.7,73.4,458,72.9,459.5,72.9z"/>
				<path class="st6" d="M522.3,50.5c-9.4,12.3-17.6,22.9-24.4,31.7c-6.9,8.9-12.7,16.3-17.4,22.5c-4.8,6.1-8.6,11.2-11.5,15.1
					s-5.1,7.1-6.7,9.6c-1.5,2.5-2.6,4.5-3.1,6c-0.6,1.5-0.8,3-0.8,4.4c0,1.8,0.7,3.4,2,4.5c1.3,1.2,3,1.7,5.1,1.7
					c3.9,0,8.2-1.4,12.7-4.2s8.7-6.1,12.6-10.1c3.8-4,7-8.1,9.6-12.4s3.9-7.9,3.9-11c0-1-0.3-2-0.8-3c-0.6-1-0.8-2-0.8-3.1
					c0-1.3,0.4-2.4,1.1-3.3s1.9-1.3,3.5-1.3c1.9,0,3.3,0.8,4.4,2.5c1,1.7,1.6,3.8,1.6,6.5c0,2.2-0.2,4.3-0.7,6.1
					c1,1.1,2.6,2.2,4.9,3.2s4.9,1.5,7.7,1.5c3.2,0,6.1-0.7,8.8-2.1c2.7-1.4,5-3.1,6.8-5.1l1.1,1c-1.8,1.8-4.1,3.6-7.1,5.2
					s-6.2,2.4-9.9,2.4c-2.5,0-4.9-0.4-7.1-1.2c-2.2-0.8-4.2-1.8-6.1-3.1c-1.4,3.8-3.8,7.7-7.1,11.6c-3.4,3.9-7.2,7.5-11.7,10.7
					c-4.4,3.2-9.2,5.8-14.1,7.8c-5,2-9.8,3-14.6,3c-3.8,0-7.1-0.9-9.8-2.9c-2.7-1.9-4-4.6-4-8.1c0-1.5,0.3-3.1,1-4.9s1.8-4,3.5-6.7
					s3.9-6,6.8-10s6.6-8.9,11.1-14.8s9.9-12.9,16.3-21s13.8-17.6,22.4-28.5L522.3,50.5L522.3,50.5z"/>
				<path class="st6" d="M595.3,50.5c-9.4,12.3-17.6,22.9-24.4,31.7c-6.9,8.9-12.7,16.3-17.4,22.5c-4.8,6.1-8.6,11.2-11.5,15.1
					c-2.9,3.9-5.1,7.1-6.7,9.6c-1.5,2.5-2.6,4.5-3.1,6c-0.6,1.5-0.8,3-0.8,4.4c0,1.8,0.7,3.4,2,4.5c1.3,1.2,3,1.7,5.1,1.7
					c3.9,0,8.2-1.4,12.7-4.2s8.7-6.1,12.6-10.1c3.8-4,7-8.1,9.6-12.4c2.6-4.3,3.9-7.9,3.9-11c0-1-0.3-2-0.8-3c-0.6-1-0.8-2-0.8-3.1
					c0-1.3,0.4-2.4,1.1-3.3s1.9-1.3,3.5-1.3c1.9,0,3.3,0.8,4.4,2.5c1,1.7,1.6,3.8,1.6,6.5c0,2.2-0.2,4.3-0.7,6.1
					c1,1.1,2.6,2.2,4.9,3.2s4.9,1.5,7.7,1.5c3.2,0,6.1-0.7,8.8-2.1c2.7-1.4,5-3.1,6.8-5.1l1.1,1c-1.8,1.8-4.1,3.6-7.1,5.2
					s-6.2,2.4-9.9,2.4c-2.5,0-4.9-0.4-7.1-1.2c-2.2-0.8-4.2-1.8-6.1-3.1c-1.4,3.8-3.8,7.7-7.1,11.6c-3.4,3.9-7.2,7.5-11.7,10.7
					c-4.4,3.2-9.2,5.8-14.1,7.8c-5,2-9.8,3-14.6,3c-3.8,0-7.1-0.9-9.8-2.9c-2.7-1.9-4-4.6-4-8.1c0-1.5,0.3-3.1,1-4.9s1.8-4,3.5-6.7
					s3.9-6,6.8-10c2.9-4,6.6-8.9,11.1-14.8s9.9-12.9,16.3-21c6.4-8.1,13.8-17.6,22.4-28.5L595.3,50.5L595.3,50.5z"/>
				<path class="st6" d="M687.9,111.4c-2.6,2.5-5.6,4.5-8.9,6c-3.3,1.5-6.5,2.2-9.7,2.2s-5.7-0.6-7.9-1.7c-2.2-1.2-3.9-2.5-5.1-4.1
					H656c-1.1,3.5-3.1,7.3-6.1,11.2c-3,4-6.5,7.6-10.6,11c-4.1,3.3-8.6,6.1-13.6,8.3c-4.9,2.2-10,3.3-15.1,3.3
					c-4.7,0-8.3-1.2-10.7-3.5c-2.4-2.3-3.6-5.4-3.6-9.3c0-2,0.6-4.4,1.8-7.1s2.9-5.4,5-8.1c2.1-2.7,4.7-5.4,7.6-8.1
					c2.9-2.6,6.1-5,9.5-7.1c3.4-2.1,7-3.8,10.8-5s7.6-1.9,11.4-1.9c4.5,0,8,1.1,10.4,3.3c2.5,2.2,3.8,5.1,4,8.6
					c0.2,2.1,1.4,4.1,3.5,5.9s5.1,2.7,8.8,2.7c3.3,0,6.4-0.7,9.3-2.1c2.9-1.4,5.6-3.2,8.1-5.4L687.9,111.4L687.9,111.4z
					 M605.2,138.2c0,2.4,0.6,4.3,1.7,5.7c1.1,1.4,2.7,2.1,4.9,2.1c3,0,5.9-0.7,8.8-2c2.9-1.3,5.7-3.1,8.4-5.3
					c2.7-2.2,5.2-4.7,7.5-7.4c2.3-2.8,4.3-5.6,6-8.6s3-5.9,4-8.7c1-2.8,1.5-5.4,1.5-7.7c0-2-0.6-3.6-1.7-4.9c-1.1-1.3-2.9-2-5.3-2
					c-2.4,0-4.8,0.6-7.4,1.9c-2.6,1.3-5.3,2.9-8,4.9s-5.2,4.4-7.7,7.1c-2.4,2.7-4.6,5.5-6.5,8.3c-1.9,2.9-3.4,5.7-4.5,8.6
					C605.7,133,605.2,135.7,605.2,138.2L605.2,138.2z"/>
				<path class="st6" d="M703.5,98.8l-21.7,25.4l0.3,0.3c2.3-2.3,5-5,8-8.1c3.1-3.1,6.4-6,9.9-8.8s7.1-5.1,10.9-7
					c3.8-1.9,7.5-2.9,11.3-2.9c3.3,0,5.8,0.8,7.7,2.3c1.8,1.5,2.7,3.5,2.7,5.9c0,1.5-0.6,3.3-1.9,5.3c-1.3,2-2.8,4.2-4.7,6.5
					s-3.9,4.7-6.1,7.1c-2.2,2.4-4.2,4.7-6.1,6.9c-1.9,2.2-3.4,4.2-4.7,6s-1.9,3.3-1.9,4.5c0,2.6,1.5,3.9,4.6,3.9c3.5,0,7.2-1,11.2-3
					c3.9-2,8.7-5.3,14.1-10.1c2.2-1.8,4.4-3.9,6.7-6.1c2.2-2.2,4.4-4.4,6.5-6.6s4-4.2,5.7-6.2s3-3.6,4-4.9l1.1,0.5
					c-2.2,2.8-5,6.1-8.5,9.9s-7.2,7.6-11.3,11.3c-2.4,2.2-4.9,4.3-7.4,6.4c-2.5,2-5,3.8-7.6,5.3c-2.5,1.5-5,2.7-7.5,3.6
					c-2.5,0.9-4.9,1.3-7.3,1.3c-3.2,0-5.8-0.7-7.9-2.2c-2.1-1.5-3.1-3.5-3.1-6.1c0-2.8,1.3-5.8,3.9-9.1c2.6-3.3,5.5-6.6,8.7-9.9
					s6.1-6.5,8.7-9.6c2.6-3.1,3.9-5.7,3.9-8.1c0-1.1-0.4-2-1.3-2.5c-0.9-0.5-2-0.8-3.5-0.8c-2.7,0-5.8,0.9-9.2,2.6s-6.9,4-10.4,6.8
					c-3.6,2.8-7.1,6-10.7,9.4c-3.6,3.5-6.9,6.9-9.9,10.4c-3.1,3.5-5.8,6.8-8.2,10s-4.2,5.9-5.4,8h-10.2c2.8-4.1,5.9-8.2,9.1-12.4
					c3.2-4.2,6.4-8.4,9.6-12.5c3.2-4.1,6.2-8.1,9.1-11.9c2.9-3.8,5.5-7.3,7.8-10.5L703.5,98.8L703.5,98.8z"/>
				<path class="st6" d="M415,47.4c1.7,1.6,3.3,5.3,4.2,7.4c2.4,5.6,4.3,11.5,4.7,17.6c2.3,28.5-28.4,35.4-50.7,36.1
					c0,0-30.8,1.8-69.1-18.8l3.1-2.6c0,0,26.1,14.1,66.5,13.3c2.8,0,5.6-0.5,8.4-1c11.3-2,24.5-6.5,30.7-17s3.8-25.6-1.2-36
					c-0.6-1.3-1.6-4.2-3.4-6.4c1,0.4,4,4.2,4.8,5C413.8,45.9,414.2,46.6,415,47.4L415,47.4z"/>
				<path class="st6" d="M283.9,90.8c0,0,29.8-0.6,42.2,26.2c-0.5-1.1-0.6-2.3-0.8-3.4c-0.6-2.6-2.4-5.8-3.9-8.1
					c-4-5.8-8.5-10.7-14.9-13.9s-13-5-19.7-7c-0.9-0.3-1.8-0.5-2.7-0.9L283.9,90.8L283.9,90.8z"/>
				<path class="st6" d="M334.5,122c0.4-1.1,12,55.5,82.5,39.3l-4.3,4.4l5.7,3.6c0,0-9.3,2.7-18.6,1.6c0,0-37.1-7.1-46.2-18.8
					C353.6,152,332,130.1,334.5,122z"/>
				<path class="st6" d="M411.1,169.3c-27.9,1.4-58-11.1-71.9-37.6c-6.9-13.1-11.3-30.9-24.3-39.6c-6.8-4.5-15-6.6-23-7.9
					c-11.6-1.9-23.3-2.4-35-1.5c0,0.1,0.1,0.1,0.1,0.2h-0.1h0.1c0.1,0.1,0.2,0.3,0.2,0.4c-2.6,0.2-5.6-0.3-8,0.9l0.2,0.4
					c-1.9,0.9-1.6-0.4-3.7,0.2l0.1-0.1c-0.4,0.5-0.9,0.7-1.5,0.8c0.5-0.6-1.1-0.9-0.5-1.5c-2,1.1-1,0.8-2.1,2.6l-0.4-0.7
					c-0.4,0.7-0.4,1.1-1.4,1.4c0.8-0.8-0.9-1,0-2c-2.5-1.2-3,2.2-4.5,0.1c-0.6,2.2,2.1,0.7,1.7,1.3c0.6,0.5-0.5,1.7-1.2,1.6
					c-0.7,0.1-1.7-2.3-3.5-1.8c0.2,0,0.2-0.2,0.3-0.2c-0.8-0.4-1.1,1-2.1,0.4c-0.1,1.3-1.1,0.2-0.8,1.8l1.5-0.8
					c-0.8,0.6-1.1,2.6-2.8,2.2c0-0.3,0.3-0.9,0.6-1.2c-0.6-0.3-0.7,0.5-1.3,0.2c-0.3-1.5,1.8-0.9,2.5-2.3c-0.7-0.5-1.5,1.6-1.5-0.2
					c-0.1,2.3-1.8,0.2-2.5,2.2l-0.2-0.9c-0.1,0.2-0.4,0.7-0.7,0.8l0.2-1.4c-0.6,1.3-2.1-0.3-2.8,0.6c1.9-0.7,0.8,0.9,1.8,1.3
					c-1.9,2-2.1-1.9-4.6-0.5c0.3-0.2,1.5,0.1,1.1,0.7c-0.6,0-1.3-0.1-1.8-0.5c-1.6,0.8,0.6,0.8,0.1,1.6c-1-0.9-0.7,0.7-1.3,1.4
					l-0.4-0.9c-2.1,0.2,0.2,2-1.8,2l0.2-1.5l-0.8,0.7l-0.2-1.1c-0.7,1.1-1,1.1-2.1,1.2c0.5,0.5,0.6,1.6-0.3,2c-0.8-0.3,0-1-1.2-0.3
					c0-0.7,0-1.5,0.9-0.9c-0.1-0.3,0-0.7,0-1c-0.9-0.4-1.6,0.5-2,0.7c0.2,0,0.4-0.1,0.6,0l-1.2,2c-0.4-0.2-0.3-0.6-0.2-0.9
					c-0.3,0.2-0.4,0.7-0.8,1.1c-0.2-0.8-0.6-1.5,0-2.1l-1.3,1.5c-0.2-0.3-1.2-0.5-1.1-0.8c-1.1,0-1.5,2.4-3,2.4c0,0.2,0,0.4-0.3,0.6
					c-1.2,0.4-2.5,0-3.4,1.6l-1.4-0.8c-0.9,0.8,1.9,1,0.4,2.4c-1,1.1-1-0.8-1.7-0.9c-0.3,0.9-0.6,2.8-2.3,2.5
					c0.2-0.5,0.6-0.4,0.9-0.7l-1.5-0.2c0.4-1.7,1.4-1.8,0-2.2c1.3,2.3-3.3,2.3-1.9,4.7l-0.8-0.2c0.2-0.1,0.1-0.2,0.3-0.3
					c-1.8-0.3,0.3,2.1-1.2,2.8c-0.6,0.2-1.1,0.1-1-0.4c-0.2,0.4-0.4,0.9-0.6,1.3c-0.3,0.2-0.6-0.2-0.2-0.4c-0.5,0.5-0.9,0.9-1.4,1.5
					V107c0.1,0.5,0,1.4,0,1.8c-0.6,0.1,0-0.4-0.4-0.5c-0.1,0.4-0.2,0.8-0.3,1.2c-0.8-0.2-0.7-1.3,0-1.8c-2.7-1.2-0.2,1.1-2.9,1.8
					c0.2-0.4,0.3-0.7,0.5-1.1c-1.7-0.5-1.8,0.6-3.4,1.1c0.6,0,3.5-0.5,3.2,0.9c-0.4,0.2-0.8,0.5-0.7,1.3c-0.8-0.6-1,0.2-1.4,0.9
					l-1-0.7c-0.2,1,0.4,1.3,0.6,2.1c-0.6,0.9-1.6,0.6-2.5,0.5c-1,1.5,1.9-0.4,1.3,1.6c-0.5,0.6-0.7,1.2-0.8,1.8
					c0,0.7,0.1,1.4,0.2,2.4c-0.6,0.9-0.7-0.3-1.1-0.1c0.3,0.4,0.6,0.7,0.9,1.1c-0.1,0.2-0.4,0.1-0.5,0c0.3,0.8,1.2,0.3,1.4,1.4
					c0.7,0.2,0.2,0.7-0.4,1.4c-0.5,0.7-0.9,1.7-0.1,2.3c-0.3,0.4-0.8-0.1-1.3,0.1c0.6,1,0.9,1.4,1.3,1.7c0.3,0.3,0.7,0.6,1.6,1.1
					c-0.1,0.5-0.2,1.1-0.2,1.6c0.4-1.4,2-0.5,3.3-0.3l-0.1,0.3c0.3,0,0.6-0.1,0.9-0.2c-0.2,0-0.5-0.1-0.8-0.1
					c0.2-0.5,0.5-0.9,0.6-1.1c0.4,0.3,0.8,0.5,1.3,0.7c-0.1,0.2-0.5,0.4-1,0.6c0.1,0,0.3,0,0.4,0c0,0.7-0.7,1-1.6,1.1
					c0.1-0.3,0.2-0.6,0.3-0.9c-0.9,0.1-1.8,0.2-2.4,0.6c0.2,0,0.4,0.2,0.6,0.4c-0.2,0-0.4,0-0.5,0.2c-0.1,0.1,0.3,0.2,0.7,0.2
					c-0.3,0.4-0.6,0.8-0.9,1.2l0.5-0.3c0.3,0.9,0.8,1.8,1.4,2.6c2.6,0.2,4.8-1.2,6.9-1.4c-0.7,0.9-0.4,1.6-0.6,2.9
					c-0.3-0.7-0.8-0.7-1.5-0.5c-0.7,0.1-1.5,0.2-2.2-0.3c0.7,0.5,0.3,0.9,0,1c1.1,0,2.1-0.1,3-0.3c-0.2,1,0.4,0.8,1.1,1.3
					c-0.3-2,2-1.1,2.9-1.9c0.1,0.7-0.1,1.4-1.3,1.2c0.7,0.7,1.1,0.1,1.5-0.5c0.4-0.7,0.7-1.3,1.4-0.8c-0.3,0.1-0.4,0-0.5,0.3
					c0.6-0.6,2.2-0.5,1.9,0.2l-0.3,0.1c1.9-0.1,5.4-1.5,4.9-3.2c0.1,0.2,0.5,2,0.6,2.3c0.3-2.2,0.4-4.3,0.5-6.4
					c0.4,1.4,2.7,4.1,1.8,5.5c0.4,0,1,0,1.5-0.8c-0.3-0.1-1.5-1.6-1.2-1.9c1.6,1,1,0.5,2.7,1.2c-0.5-0.1-1.1-2.3-0.5-2.5
					c0.1,0.4,1,2,0.9,2.3c0.2-0.9,0.3-1.8,0.4-2.7c-0.2,0.5,0.8,1.7,1.4,2.1c-0.4-0.3,1.2-0.6,1.5-1L210,132
					c1.7-0.5,0.1-3.6,1.7-4.3c0,0.5,0.9,2.7,1.9,2.5c-0.2-1.2-1.1-5.7-0.3-7.2l0.6,0.4l0.6-1.2c0.3,1.8,0.3,6,0,7.8
					c0.8,0.1,0.6,0.6,1.4,0c0.6,0.4,0,1.1-0.2,1.3l2.2-0.8c-0.8-1.1,0.9-2,0.2-3l-1.5,2.5c-0.7-1.1-0.6-4,0.9-4.6
					c0.6,0.2,1,2.2,1.2,2.5c0-0.5,0.9-1.6,1.2-1.4l-0.2,1c1-0.1,0.3-2.3,1.9-1.8c0.4-0.1,1.9,0.9,1.5,0.2c-1.3-0.9-4-4.9-4.2-6
					c0.2,0,2.4,0.2,3.2,0.6c1.2,0.7,0.8,2.9,1.8,3.5c-0.2-0.3-0.1-0.9-0.1-1.1c0.5,0,0.5,1,1.1,0.4c-0.6-1.2,1.5-0.9-0.3-1.2
					c0.5-0.8,0.9-0.2,1.7-0.8c-0.7-0.5-0.9-3-0.4-3.7c0.2,0.3,0.6,0.6,0.7,0.7c1.5-0.9,2.6-0.9,3.9-1.7c0.3,0.2,1.2,0.1,1.2,0.7
					c0-0.3,0-0.8,0.4-1.1c1.5,0.4-0.8,0.8,0.6,1.5c-0.4-0.7,0.4-1.6,0.7-2.4c-0.9-0.9-1.5,0.7-1.8,1.5c-0.9-1.4-0.9-3.5,0-5.1
					c0.9-1.1,1.1,0.6,1.1,0.2c2.2-1.1,0.1-3.6,2.5-3.8c1.3,0.4,1.2,1.7,1.8,2.3c-0.7,0.9-1.7,0.4-2.3,0.8l1-0.1
					c-0.1,0.5-0.5,1.1-1,1.1c1.1,0.4,3.6-2.2,5.7-2.5c0.1-0.5,0.4-1.1-0.1-1.3l-0.4,0.5c-0.9-0.4,0.3-1.6-0.6-1.5
					c0.3-0.9,0.6-2.3,1.8-2.5l0.9,0.9c-0.2-0.3-1-0.2-1.1,0.3c0.1-0.7,2.4,0.4,1.9-1.2l-1.1-0.3c0.4-1,0.5-2.6,1.6-2.8
					c-1.1-0.7-0.1,0.2-1.5-0.5c1.5,1.1-2.2,1.4-0.4,2.3c-1.5-0.9-1.5,0.1-3-0.5c0.2,0.3,0.7,0.4-0.1,0.8c0,0.1,0,0.3,0,0.4
					c0,0,0,0-0.1,0h0.1c0,0,0,0.1,0,0c0.3,0,0.5,0.1,0.7,0.3c0.2,1-1,1.7-1.1,2.4c-0.5,0.1-0.1-0.5-0.6-0.7l-0.2,1
					c-0.6-0.7-2-0.5-1.3-1.6l-0.9,0.6c-0.8-0.1-1.6,0.3-1.9,0.9c-0.6-0.2-0.6,1.2-0.6,0.4l-1.1,1.4l-0.1-0.2c-1.4,0.8-2,3.1-4.5,2.9
					c-0.3,0.5-0.7,1-1.6,1.3l-0.6-0.5c-0.4,0.6-2.2,0.5-2,1.4c-1.8-1.3-3.1,1.5-4.3,1.8l0.5,0.9c-0.7,0.4-1.3,1.1-2,2l0.5,0.7
					c-0.4,1.1-2.3,0.7-3.5,1.5c-0.1-0.4,0.3-0.5,0.6-0.4c-2.5-0.8-2.4,3.1-4.5,2.6c-0.2,0.5-0.5,0.5-0.8,0.5c0,0,0,0,0.1-0.1
					c0,0-0.1,0-0.2,0.1c-0.2,0-0.5-0.1-0.7-0.2c0.2,0.1,0.5,0.2,0.6,0.2c-0.2,0.2-0.6,0.5-0.9,0.9l-0.5-0.9c0,0,0,0-0.1,0.1
					c-0.6-0.1-0.1,0.5,0.5,1.1c-0.1,0.2-0.2,0.5-0.2,0.8c-1-1.2-0.8,1-2-0.2c0.1,0.9-1.7,1.5-1.2,3.1c-0.1-0.2-0.3-0.2-0.1-0.4
					c-0.5,0-1.1,0.1-1.3,0.7l-0.7-1l-0.3,1.9c-0.9-0.4-1.3-0.7-1.1-1.8c-0.8,2-0.9,1-1.5,2.8l-0.2-0.7c-0.4,0.2-0.7,1.4-1.2,0.9
					c-0.7-0.6-1.9-0.2-3.2,0s-2.8,0.2-3.6-0.6c0,1.2-0.2,0.9-0.4,0.5c-0.2-0.4-0.4-0.8-0.7,0c0-0.5,0-0.9,0.3-1.3
					c-0.4,0.1-0.6-0.2-0.7-0.4c-0.2-0.2-0.2-0.3-0.9,0.2c0.3-0.5,0.6-0.6,0.7-0.9c-0.1,0.1-0.4,0.3-0.3,0c0.2-0.3,0.4-0.3,0.6-0.4
					c-0.4-0.2-1.7,0.9-2.9,1.8c0.2-0.9,0.1-0.9-1-0.8c0.4-0.4,0.7-0.9,1.2-0.5c-0.2-0.3-0.1-2.1-1.3-1.9c0.3-0.2,0-0.5-0.2-0.6
					c0-0.9,0-1,0-1.9l-0.3,0.3c-1.5-0.4-0.4-0.8-0.4-1.6h0.2c1.4-1.6-0.5-0.9,1.2-2.3l-1-0.1c-0.9-0.4-0.6-0.7,0.1-1
					s1.4-0.6,1.3-1.3l-0.7,0.1c-0.2-0.4,0.7-0.5,1.5-0.4c0.9,0,1.9,0.3,2.1,0.1c0.2,0,0.1,0.3,0.2,0.5c1.7-0.4-0.9-0.8-0.6-1.8
					c0.7,0.2,1.2,1.2,1.7,0.7c0.3,0,0.2-0.7,0.2-1.4c0.1-0.7,0.3-1.5,1.1-1.4c-0.5-0.2-1.1-0.4-0.9-1.1c0.5-0.7,2.9,0,2.4-1.7
					c0.2,0,0.3,0.1,0.4,0.2c-0.1,0.3-0.1,0.5,0.1,0.6c0.1-0.3,0-0.4-0.1-0.6c0.2-0.7,1.2-1.8,1-2.8c1.2,1.2,1.8,0.3,2.3-0.6
					c0.6-0.9,1.1-1.7,1.9-0.4l1.7-1.1l0.1,0.3c1.2-0.4,1.3-1.3,1.4-2.2c0.4,0,0.3,0.4,0.4,0.5c2-0.3,2.1-0.5,2.9-2.6l0.6,0.8
					c0.2-0.7,3.2,0.2,4.5-1.7c0,0.1,0.1,0.3,0,0.5c1.5-2,5.8,0.4,5.1-3.2l1-1.4c-1.8,0.5-0.3-1.5-1.3-1.8c0.6-0.5,2.2,0.3,1.4,0.8
					l-0.2-0.1c0.4,1.8,2.4-0.2,2.8,1c3.4-1.4,7-1.6,10.3-2.4l-0.8-1.3l1.2-0.2c0.4,0.2,0.7,1-0.1,1.1c0.6,0.7,1.1-1.1,1.1-1.4
					c1.7,0.2-0.2,1.8,0.3,1.7l0.6-0.3l-0.2-0.1c0.4-0.7,0.3-1.3,1.3-1.5c0.7,0.1,0.5,0.8,0.8,0.8c0,0.1,0.1,0.1,0.4,0l1.5-0.2
					l-0.8-1c0.5-0.7,1.4-0.2,0.4-1.4c1.4,1.7,5.6-0.4,6.3,0.2c0.8-1,1.7-1.1,2.8-1.1c-0.3-0.2-0.6-1.4,0.4-1.4
					c-0.1,2.7,1.9,1,2.8,2.8c-0.8-1.2,2.7-0.5,1.5-2.2c0.8,0.2,0.1,1,0.7,1.6c1.9-1.1,4.2,0.5,6.5,0.4c0.1-0.4-0.3-0.9,0.2-1.4
					c0.4,0.6,0.7,1.2,1.1,1.8c0.4-0.1,0.6-1.7,1.2-0.9l-0.3,0.5c0.2,0.2,0.4,0.6,0.3-0.3c0.1,0.3,0.1,0.2,0.2-0.1c0,0,0,0,0.1,0.1
					c0,0,0-0.1,0-0.2s0.1-0.2,0.1-0.3l-0.1,0.2c0-0.2-0.1-0.5,0.2-0.5c0.2,0.1,0.4,0.2,0.7,0.3c-0.1,0-0.1,0.1-0.2,0.1
					c0.5,0.1,1.1,0,0.6,0.8c0.3-0.2,0.5-0.4,0.6-0.6h0.1c0.7-0.8,1.7-1.4,3-1.6c0.9,0,1.9,0,2.8,0c-0.9,0.6-1.9,1.7-2.7,1.6
					c1,1.1,1.7-0.9,2.7-0.8l0.3,0.2v-1c0.4,0,0.8,0,1.2,0c0.1,0,0.2,0,0.4,0l-0.1,0.3l0.2-0.3c2.9,0.4,5.8,1.1,8.6,2
					c0-0.6,0.1-1.1,0.2-1.6c3.4,0.2,6.8,0.4,10.2,0.7c7.6,0.6,15.9-1.3,23.8,5.4c14.9,12.5,17.2,33.4,29.4,47.6
					c9,10.6,21.2,18.7,34.2,23.6c6.9,2.6,14.3,4.1,21.7,4.4c3.7,0.2,7.4,0,11.1-0.4c3.5-0.4,7.1-1,10.5-2.1
					C416,169.5,413.6,169.2,411.1,169.3L411.1,169.3z M183.9,132.7c0.3,0.2,0.5,0.5,0.6,0.9C184.1,133.7,183.9,133.3,183.9,132.7z
					 M184,110.4c0-0.4,0-1.3,0.6-1.1C185.1,110.4,184.5,110.2,184,110.4z"/>
				<path class="st6" d="M258.6,92.3l0.2-0.4C258.7,91.8,258.6,91.8,258.6,92.3z"/>
				<path class="st6" d="M264.6,92.9l0.7,0.2l0.2-0.6C265.4,92.7,264.4,92.5,264.6,92.9L264.6,92.9z"/>
				<path class="st6" d="M254.3,92.5c0.1,0.3,0.6,0.6,0.8,0.9l0.3-0.5C255.1,92.8,254.6,92.9,254.3,92.5z"/>
				<path class="st6" d="M255.2,93.4l-0.5,0.8C255.4,94,255.4,93.7,255.2,93.4z"/>
				<path class="st6" d="M259.2,93.7c0.2-0.5,0.5-1,0.7-1.5c-0.3,0.5-0.6,1.1-0.9,1.7L259.2,93.7z"/>
				<path class="st6" d="M251.7,93.1l-0.2,1.3l0.1-0.5L251.7,93.1z"/>
				<path class="st6" d="M249.9,95.1c0-0.7-0.9-0.6-0.8-1.1c-0.4,0.4-0.6,1-0.7,1.6C248.7,95.2,249.1,95,249.9,95.1z"/>
				<path class="st6" d="M248.4,95.6c-0.1,0.2-0.2,0.5-0.3,0.9C248.2,96.3,248.3,96,248.4,95.6z"/>
				<path class="st6" d="M253.1,94.9c0,0,0.2-0.1,0.3-0.2c-0.1-0.1-0.5-0.5-1-0.4L253.1,94.9L253.1,94.9z"/>
				<path class="st6" d="M253.2,94.9L253.2,94.9c-0.3,0.1-0.6,0.2-0.6,0.3C252.6,95.2,252.8,95.1,253.2,94.9z"/>
				<path class="st6" d="M253.5,94.7L253.5,94.7C253.4,94.8,253.5,94.8,253.5,94.7z"/>
				<path class="st6" d="M257.3,95.8c0-0.7-0.6-0.8-0.4-1.7C256.8,94.7,256.2,95.6,257.3,95.8z"/>
				<path class="st6" d="M254.9,94.5l-0.5,0.9l0.8-0.2C255,95,254.8,94.8,254.9,94.5L254.9,94.5z"/>
				<path class="st6" d="M254.1,95.9l0.2-0.4l-0.3,0.1L254.1,95.9z"/>
				<path class="st6" d="M249.8,96.5c-0.1,0.5-0.5,0.7-0.8,1c0.5-0.1,1-0.3,1.4-0.5C250.3,96.7,250.2,96.2,249.8,96.5z"/>
				<path class="st6" d="M251.4,95.9C251.4,95.9,251.6,95.9,251.4,95.9L251.4,95.9z"/>
				<path class="st6" d="M245.4,99.9L245.4,99.9l-0.2-0.1L245.4,99.9z"/>
				<path class="st6" d="M250.5,97.1c0.4,0,0.5-0.3,0.5-0.7c-0.2,0.2-0.4,0.4-0.7,0.6C250.4,97.1,250.4,97.2,250.5,97.1z"/>
				<path class="st6" d="M247.3,97.5c0.3,0,0.5,0.1,0.8,0.1C247.8,97.5,247.2,97.3,247.3,97.5z"/>
				<path class="st6" d="M251.2,95.7L251.2,95.7C251,95.6,251.1,95.6,251.2,95.7z"/>
				<path class="st6" d="M251.1,96.4c0.2-0.2,0.3-0.4,0.4-0.5c-0.1,0-0.2-0.1-0.2-0.1C251.1,95.9,251.1,96.2,251.1,96.4z"/>
				<path class="st6" d="M245.2,101.3c0.5,0.2,2.1-0.1,1.9,0.9c-0.7,0.9-0.9,0.2-1.6,0.2c0.9,0.6-0.4,2,0.6,3l0.5-0.9
					c0.1,0.2,0,0.7,0.4,0.7c-0.4-0.7,0-1.8,1.1-1.5c0.4-0.9-1.5-2.8-2.8-3.7C245.5,100.2,245.7,100.5,245.2,101.3L245.2,101.3z"/>
				<path class="st6" d="M245.4,98.6c-0.3,0.6-0.2,0.9-0.1,1.2l1.5-0.8v0.2l0.2-0.3C246.6,99,246.2,98.8,245.4,98.6L245.4,98.6z"/>
				<path class="st6" d="M248.1,97.6C248.2,97.7,248.3,97.7,248.1,97.6l0.1,0.1c0,0.1,0.1,0.2,0.1,0.3c-0.5,0.1-0.2-0.2-0.1-0.3
					L248.1,97.6l-1.1,1.3c0.4-0.1,0.7-0.3,1.3-0.8c0.2,0.9-0.3,1.6,0.6,2.1c0.8-0.6,0.2-1,0.5-1.6c-1.3,1,0.2-0.7-1.1-0.5
					c0.2-0.3,0.4-0.5,0.6-0.7C248.6,97.5,248.3,97.6,248.1,97.6L248.1,97.6L248.1,97.6z"/>
				<path class="st6" d="M257.4,97.8c0,0-0.1-0.1-0.1-0.2C257.3,97.7,257.3,97.8,257.4,97.8z"/>
				<path class="st6" d="M255,96.3l-0.1-0.1L255,96.3z"/>
				<path class="st6" d="M256.9,96.7v0.2c-0.6,0-1.5-0.3-1.8-0.5c0.5,0.5,0.9,0.9,1.6,1.3c0-0.2,0-0.5,0.4-0.6
					c0.4,0.1,0.2,0.4,0.4,0.6C257.4,97.3,257.8,96.7,256.9,96.7L256.9,96.7z"/>
				<path class="st6" d="M251.6,99l1,0.3l-0.3-0.4c0.8-0.2,0.3-0.6,0.2-1L251.6,99z"/>
				<path class="st6" d="M244.5,100.2l0.3-0.6l-0.3-0.9V100.2z"/>
				<path class="st6" d="M243.1,99.9l-0.1,0.6h0.5L243.1,99.9z"/>
				<path class="st6" d="M187,106.7l0.2,0.3C187.2,106.8,187.1,106.6,187,106.7z"/>
				<path class="st6" d="M207,122.9l0.6,0.7c0.3-0.3,0.6-0.4,0.9-0.3C207.6,122.9,206.5,122.2,207,122.9L207,122.9z"/>
				<path class="st6" d="M181.1,132.1c0-0.4,0-0.8,0-1.2C181.1,131.3,181,131.6,181.1,132.1z"/>
				<path class="st6" d="M203.2,94.6c-0.7,0.3-0.2,0.6,0,1V94.6z"/>
				<path class="st6" d="M228.9,110.7c-0.6,0-1,0.1-1.3,0.2C228.4,111,229.2,111.3,228.9,110.7z"/>
				<path class="st6" d="M227.6,110.9c-0.6-0.1-1.1,0-1.2,0.8c0.1,0,0.2,0,0.3,0C227,111.4,227.2,111.1,227.6,110.9z"/>
				<path class="st6" d="M273.6,94.9c-0.2,0-0.4-0.1-0.6-0.2C273.1,94.8,273.3,94.9,273.6,94.9z"/>
				<path class="st6" d="M237.4,104.1C237.4,104,237.6,103.9,237.4,104.1L237.4,104.1z"/>
				<path class="st6" d="M240.9,106.4c-0.1-0.2-0.1-0.3-0.1-0.4C240.8,106,240.8,106.2,240.9,106.4z"/>
				<path class="st6" d="M226.4,118.1L226.4,118.1C226.6,118.2,226.6,118.2,226.4,118.1z"/>
				<path class="st6" d="M238.1,104.1c-0.2,0-0.4,0-0.5,0C237.6,104.2,237.8,104.2,238.1,104.1z"/>
				<path class="st6" d="M237.8,103.8c0.1,0,0.2-0.1,0.3-0.1C238,103.5,237.9,103.5,237.8,103.8z"/>
				<path class="st6" d="M237,104.4c0.2-0.1,0.4-0.2,0.6-0.3c-0.1,0-0.2,0-0.2-0.1C237.3,104.2,237.2,104.2,237,104.4z"/>
				<path class="st6" d="M228.9,88.7c0,0,0.1,0,0.1,0.1C229.3,88.4,229.1,88.5,228.9,88.7z"/>
				<path class="st6" d="M203.9,135.5L203.9,135.5L203.9,135.5L203.9,135.5L203.9,135.5z"/>
				<path class="st6" d="M202.9,136.7c0.2-1.2,0.5-1.2,1-1.2l-1.4-2.1C202.6,134.4,202.8,135.5,202.9,136.7L202.9,136.7z"/>
				<path class="st6" d="M181.5,132c0.1-0.2,0.2-0.3,0.4-0.4C181.7,131.5,181.5,131.6,181.5,132z"/>
				<path class="st6" d="M203.2,95.8c0,0,0-0.1,0-0.2V95.8C203.1,95.8,203.1,95.8,203.2,95.8z"/>
				<path class="st6" d="M224.4,124c-0.3,0-0.5,0-0.7-0.2C223.8,124,224,124.1,224.4,124z"/>
				<path class="st6" d="M239.8,102.3c0.3-0.2,0.5-0.2,0.8-0.1c-0.1-0.2-0.4-0.4-0.2-0.5L239.8,102.3z"/>
				<path class="st6" d="M249.4,102.9c0-0.2,0.2-0.1,0.2-0.3l-0.3-0.4C248.9,102.5,248.8,103,249.4,102.9z"/>
				<path class="st6" d="M242.7,103.9c0.5,0.6,0.8,0.1,1.1-0.3c0,0,0,0-0.1,0C243.3,102.6,243,103.2,242.7,103.9z"/>
				<path class="st6" d="M243.9,103.5c0.1-0.1,0.3-0.2,0.4-0.3C244.1,102.8,244.1,103.3,243.9,103.5z"/>
				<path class="st6" d="M236.7,105.3c0.3,0-0.4-0.9-0.1-0.7C236.3,103.5,235.8,106.6,236.7,105.3z"/>
				<path class="st6" d="M244,106l0.6-0.1l-0.7-0.7L244,106z"/>
				<path class="st6" d="M240.5,107.6l0.9-0.3c-0.1-0.1-0.1-0.3,0-0.4C240.9,107.2,240.3,107.4,240.5,107.6L240.5,107.6z"/>
				<path class="st6" d="M241.4,107c0.2-0.1,0.5-0.3,0.5-0.5C241.7,106.5,241.5,106.8,241.4,107z"/>
				<path class="st6" d="M242.8,107l0.9-0.2h-0.3L242.8,107z"/>
				<path class="st6" d="M231.9,113.6c0.1,0.3,0.4,0.4,0.7,0c0.1-0.3,0.3-0.6,0-0.8L231.9,113.6z"/>
				<path class="st6" d="M236.3,114l0.1-0.6c-0.3,0-0.5-0.2-0.8-0.4L236.3,114z"/>
				<path class="st6" d="M234.3,115.2c0.1,0.3-0.6,1.6,0.4,0.8C234.5,115.7,235.2,114.9,234.3,115.2z"/>
				<path class="st6" d="M221.5,121.8l-1.1-1.7l0.9,1.8L221.5,121.8z"/>
				<path class="st6" d="M213.5,131.5c0-0.5-1,0-0.9-0.5c-0.4,0.8-0.9,0.7,0.1,1.7C213.8,132.6,212.2,131.5,213.5,131.5z"/>
				<path class="st6" d="M212.5,131c0.1-0.1,0.1-0.3,0.2-0.4C212.5,130.8,212.5,130.9,212.5,131z"/>
				<path class="st6" d="M275.5,96.8l0.4,0.7l-0.1-0.8L275.5,96.8z"/>
				<path class="st6" d="M277.3,96l-0.4,1.2l0.9-0.9C277.6,96.3,277.2,96.3,277.3,96z"/>
				<path class="st6" d="M180.4,110.9l0.2,0.2c0.4,0.1,0.5-0.1,0.8-0.4L180.4,110.9z"/>
				<path class="st6" d="M189.5,103.1l-0.1,0.1l1,0.7L189.5,103.1z"/>
				<path class="st6" d="M196.6,96.9c-0.4,0.1-0.6,0.6-1,0.7C196.3,97,197.4,98.1,196.6,96.9z"/>
				<path class="st6" d="M418.8,53.5c-21.2-45.2-74.1-20-101.6,3.9c-3.6,3.1-7,6.4-10.2,9.9c-11.1,11.9-21.5,25-31.2,39.3
					c-9.6,14.2-18.7,28.7-27.1,43.6c-8.5,14.8-17,28.3-25.4,40.4c-8.5,12.1-17,22.1-25.7,29.7c-8.7,7.7-18,11.5-27.9,11.5
					c-0.4,0-0.9-0.1-1.3-0.1c-0.2,0-0.5,0-0.7,0c-0.2,0-0.3,0-0.5,0c-3.4-0.3-6.5-1.2-9.2-2.8c-3.4-2-5.4-4.2-6-6.7
					c2.7,0.2,4.7-0.7,6-2.9c1.3-2.1,2-4.3,2-6.5c0-2.5-0.8-4.5-2.4-6.3c-1.6-1.7-3.8-2.6-6.4-2.6c-3.6,0-6.5,1.1-8.6,3.1
					c-2.2,2.1-3.2,4.8-3.2,8.3c0,3.4,0.9,6.4,2.6,9s3.9,4.7,6.4,6.3c2.6,1.6,5.5,2.8,8.7,3.6c1.4,0.3,2.7,0.5,4.1,0.7
					c0.7,0.1,1.3,0.2,2,0.2c1.1,0.1,2.3,0.2,3.4,0.2c3.2,0,6.3-0.2,9.4-0.7c10.2-1.4,19.7-5.1,28.6-11.2c11.6-7.9,22.6-18,32.9-30.5
					c10.3-12.4,20-26.1,29.3-41.1c9.2-15,18.3-29.7,27.1-44c0.4-0.6,0.7-1.1,1.1-1.7c0.8-1.2,1.5-2.5,2.3-3.7
					c7.7-12.2,15.5-23.4,23.2-33.6c4.2-5.6,8.5-10.7,12.9-15.2c9-9.2,20.6-16,33.1-19.5c10-2.9,22.2-5,32.1-0.6
					c9.7,4.3,16.9,13.9,21.2,22.4C419.6,55.2,419.2,54.2,418.8,53.5L418.8,53.5z"/>
			</g>
		</g>
	</g>
</g>
</svg>
