<svg width="284" height="157" viewBox="0 0 284 157" fill="none" xmlns="http://www.w3.org/2000/svg">
<g clip-path="url(#clip0_153_9422)">
<path d="M273.34 45.94H273.53H274.05C272.66 45.94 270.85 45.94 269.86 45.94C270.47 45.97 272.19 45.94 273.34 45.96V45.94Z" fill="white"/>
<path d="M267.23 45.85C267.15 45.85 267.13 45.85 267.09 45.85C266.95 45.85 266.76 45.85 266.43 45.85C266.64 45.86 265.69 45.85 267.23 45.86V45.85Z" fill="white"/>
<path d="M267.08 45.85C266.64 45.84 267.76 45.85 267.08 45.85V45.85Z" fill="white"/>
<path d="M264.16 45.8C263.24 45.8 263.43 45.8 263.95 45.83H264.84C264.65 45.82 263.86 45.81 264.15 45.8H264.16Z" fill="white"/>
<path d="M264.02 45.85C263.94 45.86 264.13 45.85 264.55 45.85H263.57C263.7 45.86 263.71 45.87 264.02 45.85Z" fill="white"/>
<path d="M265.35 45.88C267.06 45.88 266.81 45.86 265.1 45.85C265.6 45.86 266.25 45.87 265.35 45.88Z" fill="white"/>
<path d="M258.39 45.76C258.33 45.76 258.69 45.79 258.76 45.8H259.42C259.08 45.78 258.44 45.77 258.39 45.76Z" fill="white"/>
<path d="M258.75 45.81H257.76C258.64 45.83 258.8 45.82 258.75 45.81Z" fill="white"/>
<path d="M262.94 45.89L264.56 45.87L262.63 45.89H262.94Z" fill="white"/>
<path d="M254.18 45.74L254.62 45.73L255.17 45.71L254.18 45.74Z" fill="white"/>
<path d="M252.11 45.71C252.52 45.69 251.54 45.66 251.98 45.65C251.3 45.65 250.72 45.66 250.2 45.68C250.75 45.68 251.35 45.68 252.11 45.71Z" fill="white"/>
<path d="M255.31 45.76L255.7 45.79C255.82 45.79 255.95 45.79 256.09 45.79C256.01 45.79 255.87 45.76 255.31 45.75V45.76Z" fill="white"/>
<path d="M259.74 45.91C260.16 45.89 259.49 45.88 260.36 45.86C259.78 45.87 258.57 45.88 259.74 45.91Z" fill="white"/>
<path d="M257.79 45.83H256.66L257.71 45.86C257.69 45.86 257.5 45.84 257.79 45.83Z" fill="white"/>
<path d="M256.15 45.85L256.66 45.84H256.27L256.15 45.85Z" fill="white"/>
<path d="M251.12 45.76C250.67 45.77 250.17 45.77 249.61 45.77C250.21 45.77 250.83 45.78 251.42 45.79C251.5 45.78 251.76 45.76 251.12 45.76Z" fill="white"/>
<path d="M244.19 45.74L244.21 45.73H244.11L244.19 45.74Z" fill="white"/>
<path d="M247.79 45.71C248.03 45.71 248.29 45.73 248.57 45.74C248.34 45.73 247.87 45.7 247.79 45.71Z" fill="white"/>
<path d="M252.5 45.79C252.77 45.79 253.03 45.79 253.25 45.79C253.2 45.79 253.14 45.79 253.1 45.78C252.88 45.78 252.69 45.79 252.5 45.8V45.79Z" fill="white"/>
<path d="M244.55 45.89C243.18 45.91 243.43 45.87 242.76 45.85C243.33 45.9 241.01 45.92 241.31 46.01L242.51 45.98C242.51 45.98 242.1 46.01 242.43 46.02C242.51 45.98 243.69 45.94 244.72 45.98C245.73 45.95 245.07 45.82 244.19 45.74C244.16 45.76 244.16 45.77 243.12 45.79C243.48 45.82 245.42 45.85 244.54 45.89H244.55Z" fill="white"/>
<path d="M244.21 45.73L246.31 45.75H246.16H246.59C246.1 45.75 245.76 45.72 245.12 45.69C244.41 45.7 244.26 45.72 244.21 45.73Z" fill="white"/>
<path d="M248.62 45.74C248.71 45.74 248.74 45.74 248.64 45.74C248.64 45.74 248.61 45.74 248.6 45.74C248.59 45.74 248.55 45.74 248.51 45.75C247.93 45.74 248.42 45.74 248.6 45.74H248.62H246.6C247.03 45.74 247.56 45.74 248.51 45.75C248.18 45.79 247.15 45.8 247.78 45.85C249.03 45.85 248.66 45.82 249.4 45.81C247.38 45.81 249.98 45.79 248.52 45.76C248.92 45.76 249.27 45.76 249.61 45.76C249.25 45.76 248.9 45.74 248.57 45.74C248.59 45.74 248.6 45.74 248.62 45.74Z" fill="white"/>
<path d="M258.7 45.93H258.56C257.92 45.93 257.14 45.9 256.9 45.89C257.11 45.91 257.33 45.93 257.83 45.96C257.98 45.96 258.1 45.94 258.58 45.95C258.99 45.95 258.58 45.96 258.6 45.97C258.89 45.97 259.61 45.95 258.7 45.94V45.93Z" fill="white"/>
<path d="M252.28 45.92L252.24 45.9C253.2 45.9 252.99 45.89 253.11 45.87H251.43L252.29 45.92H252.28Z" fill="white"/>
<path d="M244.14 45.66L243.16 45.72L243.91 45.71L244.14 45.66Z" fill="white"/>
<path d="M241.8 45.66L241.23 45.68L241.72 45.7L241.8 45.66Z" fill="white"/>
<path d="M118.22 47.01L117.73 47.06C117.96 47.04 118.11 47.03 118.22 47.01Z" fill="white"/>
<path d="M121.8 47L121.89 46.92C121.72 46.97 121.66 47 121.8 47Z" fill="white"/>
<path d="M187.97 45.35C187.25 45.25 186.44 45.1 186.53 45.21L186.75 45.32C187.25 45.3 187.64 45.32 187.97 45.34V45.35Z" fill="white"/>
<path d="M151.16 46.01C151.23 46.02 151.3 46.04 151.37 46.06C151.54 46.01 151.71 45.96 151.86 45.92C151.65 45.95 151.41 45.98 151.16 46.02V46.01Z" fill="white"/>
<path d="M149.7 46.55C149.91 46.58 150.22 46.61 150.65 46.64L149.7 46.55Z" fill="white"/>
<path d="M98.65 47.36L98.07 47.58C98.97 47.58 98.58 47.47 98.65 47.36Z" fill="white"/>
<path d="M219.31 45.58C218.69 45.55 218.19 45.53 217.76 45.53C218.51 45.58 219.11 45.64 219.31 45.58Z" fill="white"/>
<path d="M119.63 45.02C119.33 45.05 119.2 45.09 119.21 45.13C119.52 45.1 119.7 45.06 119.63 45.02Z" fill="white"/>
<path d="M217.76 45.52C217.21 45.48 216.57 45.46 215.96 45.51C216.07 45.51 216.18 45.52 216.29 45.53C216.74 45.53 217.2 45.51 217.76 45.53V45.52Z" fill="white"/>
<path d="M27.69 47.64C27.64 47.63 27.58 47.62 27.53 47.61C27.51 47.65 27.59 47.65 27.69 47.64Z" fill="white"/>
<path d="M7.01001 44.59C7.21001 44.57 7.55001 44.57 7.86001 44.57C7.71001 44.55 7.45001 44.55 7.01001 44.59Z" fill="white"/>
<path d="M234.99 45.88C234.99 45.88 235.09 45.86 235.18 45.85C235.08 45.85 235.01 45.86 234.99 45.88Z" fill="white"/>
<path d="M211.34 45.99C211.34 45.99 211.32 45.99 211.3 45.99C211.44 46.01 211.41 46 211.34 45.99Z" fill="white"/>
<path d="M233.62 45.65C233.3 45.64 233.12 45.63 233.03 45.63C233.25 45.63 233.45 45.64 233.62 45.65Z" fill="white"/>
<path d="M233.52 45.62C233.68 45.62 233.81 45.62 233.93 45.62C233.99 45.62 233.93 45.6 233.52 45.62Z" fill="white"/>
<path d="M232.27 45.61C232.54 45.61 232.78 45.61 233.02 45.62C232.93 45.62 232.89 45.62 232.92 45.62C232.78 45.62 232.59 45.62 232.27 45.62V45.61Z" fill="white"/>
<path d="M65.71 46.73C65.71 46.73 65.65 46.71 65.61 46.71C65.14 46.82 65.35 46.8 65.71 46.73Z" fill="white"/>
<path d="M174.22 46.65C174.93 46.49 175.33 46.51 175.87 46.54L175.32 46.19L174.22 46.66V46.65Z" fill="white"/>
<path d="M240.69 45.73C240.1 45.66 240.39 45.73 239.47 45.65C240.27 45.76 236.16 45.62 237.44 45.74C236.5 45.63 235.81 45.69 234.57 45.59C234.61 45.62 235.01 45.64 233.92 45.62C233.86 45.62 233.75 45.64 233.68 45.64C233.65 45.64 233.64 45.64 233.61 45.64C233.63 45.64 233.65 45.64 233.67 45.64C233.62 45.64 233.62 45.64 233.69 45.64C233.95 45.65 234.16 45.67 234.24 45.68C233.7 45.74 231.97 45.73 231.39 45.76C230.75 45.74 231.66 45.73 231.31 45.7L230.44 45.75C230.35 45.69 228.73 45.63 230.25 45.61H228.88C228.08 45.56 226.97 45.53 226.29 45.56C225.65 45.54 224.66 45.62 225.22 45.57L223.08 45.6L223.06 45.58C220.95 45.55 218.71 45.68 216.29 45.52C215.58 45.54 214.84 45.56 213.65 45.52L213.42 45.45C212.51 45.47 210.67 45.36 210.28 45.43C209.29 45.22 205.84 45.35 204.24 45.3L204.18 45.41C203.07 45.4 202.01 45.41 200.64 45.45L200.72 45.55C199.54 45.63 197.67 45.46 195.8 45.46C195.93 45.42 196.4 45.43 196.74 45.46C194.5 45.21 192.02 45.61 189.99 45.42C189.48 45.46 189.12 45.44 188.76 45.42C188.81 45.42 188.85 45.42 188.89 45.42C188.84 45.42 188.76 45.42 188.68 45.42C188.46 45.4 188.22 45.38 187.98 45.36C188.19 45.39 188.39 45.41 188.57 45.42C188.18 45.42 187.59 45.43 187.01 45.46L186.76 45.34C186.76 45.34 186.68 45.34 186.63 45.34C186.06 45.29 186.17 45.4 186.48 45.49C186.19 45.51 185.92 45.53 185.71 45.56C185.25 45.36 184.19 45.62 183.56 45.4C183.2 45.5 181.01 45.47 180.44 45.65C179.8 45.62 179.16 45.59 178.58 45.65L178.31 45.48L176.9 45.7C176.04 45.59 175.69 45.53 176.54 45.4C174.48 45.6 174.87 45.47 173.12 45.67L173.21 45.56C172.58 45.56 171.59 45.71 171.21 45.62C169.81 45.39 164.29 45.57 160.7 45.33C161.4 45.71 159.03 45.15 158.89 45.45C158.68 45.36 158.18 45.3 158.76 45.23C156.93 45.31 156.01 45.07 154.74 45.32C154.53 45.22 155.13 45.19 154.95 45.13C154.8 45.15 154.37 45.21 154.18 45.15C153.99 45.09 154.45 45.07 154.74 45.03C152.87 45.03 152.68 45.32 152.54 45.6C151.59 45.47 151.12 45.48 150.43 45.66C150.1 45.57 149.55 45.47 150.71 45.44C150.06 45.43 146.71 45.29 146.65 45.52C146.45 45.46 145.74 45.5 145.56 45.52C144.09 45.5 143.96 45.48 142.52 45.5L142.92 45.54C142.35 45.82 141.72 45.6 140.56 45.63L140.59 45.6C137.93 45.38 139.44 45.7 136.81 45.45L136.95 45.64C136.7 46.04 134.62 45.4 133.1 45.55L133.65 45.66C132.82 45.8 131.32 45.1 130.48 45.04C130.3 45 130.77 44.98 131.02 44.96C128.83 44.7 130.74 45.21 129.1 45.26C128.8 45.12 129.49 44.91 128.39 44.88C127.84 44.76 125.2 45.31 123.7 45.04C124.03 45.15 124.36 45.26 123.6 45.34C122.44 45.38 120.46 44.9 119.41 45.25C119.26 45.22 119.21 45.19 119.2 45.16C118.31 45.25 116.31 45.3 115.78 45.5C114.96 44.76 110.26 45.84 110.28 45.15L107.55 45.17L107.62 45.1C105.87 45.04 105.26 45.21 104.64 45.38C104.24 45.33 104.53 45.26 104.56 45.23C102.01 45.07 101.75 45.1 99.61 45.46L99.39 45.22C98.81 45.36 95.7 44.82 93.2 45.09C93.22 45.06 93.28 45.01 93.48 44.98C90.66 45.27 86.74 44.23 85.71 45.16L83.85 45.39C86.25 45.47 83.49 45.8 84.48 45.96C83.53 46.02 82.04 45.67 83.2 45.62L83.38 45.67C83.81 45.18 80.39 45.49 80.46 45.14C78.1 45.14 75.77 45.07 73.48 44.99C73.51 44.83 73.53 44.67 73.48 44.53L73.4 44.72C73.29 44.44 73.8 43.94 73.82 43.65C73.84 43.59 73.87 43.75 73.89 43.83C74.02 43.09 73.7 43.73 73.64 43.18C73.73 43.08 73.89 43.31 73.88 42.94C73.93 42.76 73.54 41.87 73.69 41.36C73.63 41.47 73.57 41.58 73.51 41.33C73.48 40.94 73.72 40.27 73.52 39.92C73.54 39.87 73.55 39.85 73.57 39.85C73.52 39.55 73.48 38.88 73.38 38.7C73.75 38.42 73.2 36.84 73.55 36.85V35.93L73.58 35.95C73.62 35.36 73.54 35.15 73.45 34.95C73.48 34.81 73.51 34.91 73.53 34.92C73.63 34.06 73.64 33.97 73.44 33.25L73.59 33.18C73.5 32.98 73.9 31.94 73.77 31.09C73.79 31.09 73.82 31.12 73.84 31.18C73.77 30.71 73.94 30.14 74.06 29.65C74.18 29.16 74.25 28.74 73.85 28.57L73.68 27.94C73.58 28.75 73.31 27.82 73.16 28.15C73.11 27.83 73.44 27.33 73.47 27.72L73.42 27.78C73.87 27.92 73.62 26.77 73.96 26.8C74.02 25.21 74.42 23.65 74.5 22.16L74.02 22.33L74.06 21.81C74.17 21.67 74.44 21.63 74.41 22C74.69 21.8 74.2 21.38 74.09 21.37C74.3 20.64 74.65 21.65 74.67 21.43L74.64 21.13L74.58 21.2C74.39 20.95 74.17 20.93 74.2 20.49C74.3 20.21 74.5 20.35 74.52 20.23C74.55 20.23 74.57 20.19 74.53 20.06L74.57 19.4L74.18 19.66C73.99 19.37 74.2 19.04 73.76 19.35C74.44 18.91 73.98 16.9 74.18 16.63C73.9 16.22 73.9 15.82 73.92 15.32C73.85 15.44 73.43 15.52 73.48 15.09C74.33 15.25 73.84 14.3 74.42 13.96C74.04 14.27 74.28 12.74 73.75 13.23C73.81 12.87 74.05 13.21 74.23 12.94C73.9 12.09 74.35 11.06 74.19 10.01C74.1 9.98998 73.96 10.17 73.81 9.93998L74.24 9.37998C74.18 9.16998 73.71 9.18998 74 8.80998C73.93 8.85998 73.82 8.93998 73.79 8.80998C73.95 7.77998 73.79 6.71998 73.69 5.65998C73.58 4.59998 73.56 3.53998 73.62 2.48998C73.58 2.76998 73.54 2.57998 73.52 2.36998C73.52 2.50998 73.42 2.36998 73.37 2.38998C73.4 2.09998 73.41 1.79998 73.42 1.50998C73.3 1.34998 73.3 0.56998 73.22 0.47998L73.26 0.75998C73.16 0.38998 73.07 1.27998 72.89 1.21998C72.94 1.42998 72.89 1.69998 72.8 2.00998C72.72 2.31998 72.62 2.65998 72.75 2.99998C72.69 3.14998 72.68 2.86998 72.62 2.94998C72.71 3.11998 72.72 3.32998 72.64 3.71998L72.61 3.67998C72.56 4.75998 72.4 5.22998 72.17 6.43998L72.37 6.34998C72.33 6.60998 72.26 6.66998 72.2 6.78998C72.49 7.08998 72.27 6.05998 72.58 6.32998C72.15 6.67998 72.49 8.16998 71.95 8.40998C71.92 8.80998 72.22 8.28998 72.2 8.68998L72.05 8.79998L72.23 8.89998C72.19 9.15998 71.99 9.29998 71.86 9.30998C71.88 9.24998 71.84 9.12998 71.83 9.05998C71.62 9.39998 71.83 10.02 71.76 10.14L71.88 9.74998C71.96 10.85 71.67 12.19 71.99 13.25L72.13 13.17C72.36 13.98 71.96 13.82 72.06 14.71L72.03 14.68C72.17 14.86 72.23 15.1 72.21 15.34C72.05 15.12 71.88 15.76 71.7 15.47C71.96 16.35 71.91 15.9 72.44 16.48L72.2 16.61C72.42 16.81 72.53 16.82 72.59 17.27C72.38 16.91 72.22 17.55 71.94 17.15C71.39 18.08 72.47 18.53 71.67 18.96C72.35 19.39 72.06 18.15 72.2 18.39C72.42 18.19 72.71 18.74 72.64 19.04C72.63 19.34 71.76 19.55 71.77 20.29C71.77 20.22 71.72 20.21 71.72 20.14C71.55 20.42 71.96 20.69 71.68 21.03C72.1 21.22 71.66 21.48 72.19 21.53L72.06 20.84C72.2 21.23 72.82 21.59 72.53 22.24C72.43 22.19 72.29 22 72.21 21.87C72.06 22.06 72.32 22.23 72.17 22.43C71.65 22.37 72.04 21.6 71.63 21.18C71.41 21.38 72.03 21.97 71.46 21.76C72.18 22.06 71.4 22.5 71.95 23L71.65 22.97C71.7 23.05 71.85 23.22 71.85 23.36L71.45 23.09C71.8 23.5 71.21 23.88 71.41 24.28C71.35 23.46 71.75 24.09 71.95 23.75C72.37 24.73 71.3 24.38 71.45 25.38C71.46 25.2 71.6 24.94 71.72 25.14C71.68 25.36 71.6 25.64 71.47 25.78C71.6 26.53 71.73 25.66 71.93 25.99C71.63 26.25 72.09 26.36 72.21 26.69H71.95C71.86 27.55 72.49 26.92 72.35 27.69L71.99 27.36L72.11 27.76L71.83 27.68C72.07 28.12 72.03 28.26 72 28.69C72.15 28.59 72.4 28.75 72.43 29.13C72.32 29.39 72.22 28.98 72.29 29.52C72.15 29.4 71.97 29.26 72.15 29.03C72.08 29.01 72 28.91 71.93 28.89C71.81 29.17 71.97 29.59 71.99 29.79C71.99 29.71 71.99 29.62 72.02 29.58C72.14 29.84 72.25 30.1 72.36 30.36C72.3 30.48 72.24 30.39 72.17 30.29C72.21 30.45 72.3 30.56 72.33 30.79C72.18 30.73 72.03 30.74 71.92 30.41C72.01 30.66 72.09 30.91 72.16 31.16C72.1 31.21 72.03 31.54 71.97 31.45C71.95 31.86 72.32 32.46 72.27 33.01C72.3 33.04 72.32 33.1 72.35 33.21C72.35 33.72 72.26 34.18 72.44 34.79L72.28 35.14C72.34 35.62 72.48 34.67 72.58 35.47C72.65 36.03 72.44 35.68 72.4 35.88C72.5 36.16 72.67 36.65 72.55 37.16C72.52 36.99 72.54 36.85 72.52 36.69L72.44 37.08C72.29 36.6 72.32 36.26 72.21 36.63C72.53 36.69 72.27 38.16 72.57 38.22L72.51 38.48C72.51 38.41 72.5 38.39 72.5 38.32C72.35 38.83 72.72 38.7 72.67 39.35C72.64 39.58 72.6 39.74 72.56 39.58L72.63 40.09C72.63 40.24 72.57 40.2 72.58 40.05V40.82C72.63 40.93 72.7 41.18 72.73 41.3C72.68 41.5 72.7 41.2 72.65 41.25L72.72 41.68C72.63 41.85 72.55 41.5 72.57 41.2C72.22 41.6 72.65 41.55 72.41 42.42L72.38 42.02C72.17 42.28 72.23 42.59 72.06 43.05C72.14 42.94 72.44 42.14 72.5 42.6C72.47 42.73 72.44 42.9 72.5 43.15C72.37 43.15 72.39 43.4 72.38 43.7L72.2 43.68C72.23 44.01 72.33 43.98 72.4 44.18C72.36 44.55 72.2 44.62 72.06 44.71C71.98 45.3 72.34 44.3 72.33 45C72.33 45 72.33 45 72.33 45.02C70.41 44.95 68.5 44.88 66.64 44.86L67.15 45.28L65.6 45.25C65.19 45.15 65.06 44.92 66.16 44.94C65.58 44.7 64.31 45.13 64.28 45.22C62.12 45.04 65.12 44.73 64.46 44.72L63.56 44.75L63.76 44.8C63.03 44.97 62.97 45.15 61.64 45.13C60.8 45.04 61.21 44.86 60.88 44.85C60.88 44.82 60.77 44.8 60.37 44.83L58.42 44.78L59.2 45.13C58.34 45.29 57.37 45.11 58.27 45.5C56.95 44.9 51 45.26 50.19 45.06C48.98 45.31 47.79 45.31 46.31 45.27C46.68 45.35 46.9 45.75 45.62 45.7C46.09 44.86 43.29 45.33 42.25 44.71C43.17 45.12 38.62 44.79 40.07 45.38C39.01 45.31 40.01 45.06 39.2 44.85C36.67 45.17 33.62 44.6 30.49 44.7C30.44 44.82 30.97 45 30.29 45.17L28.64 44.57C28.02 44.62 28.07 45.25 26.94 44.83C27.1 44.93 27.34 45.08 26.92 45.12C20.79 44.5 14.39 45.58 8.16 44.39C9 44.64 8.44 44.66 7.8 44.67C8.22 44.73 7.8 44.99 7.87 45.16L5.26 44.67C4.78 45.15 2.46 44.69 2.19 45.16L3.02 45.08C1.92 45.63 4.56 46.31 4.4 47.01C5.63 46.39 7.64 47.91 9.66 47.02C10.11 47.16 9.28 47.24 9.52 47.4C10.03 47.1 10.65 47.04 11.79 47.17L11.66 47.24C14.87 47.16 16.25 47.44 19.86 47.6L19.59 47.27C20.37 47.31 20.53 47.41 20.89 47.49C21.78 46.99 18.71 47.47 19.52 46.92C20.55 47.58 24.99 46.92 25.69 47.65C26.88 47.65 25.34 47.28 26.53 47.28L26.85 47.48L27.15 47.22C27.93 47.26 28.33 47.51 28.36 47.67C28.17 47.65 27.82 47.72 27.62 47.74C28.63 47.97 30.48 47.64 30.83 47.72L29.68 47.61C32.94 47.41 36.92 47.64 40.06 47.23L39.82 47.09C42.22 46.82 41.75 47.24 44.38 47.11L44.28 47.14C44.81 47 45.51 46.92 46.24 46.94C45.57 47.11 47.49 47.25 46.62 47.44C49.23 47.15 47.91 47.22 49.63 46.7L50.03 46.93C50.62 46.72 50.67 46.61 51.98 46.55C50.9 46.75 52.82 46.89 51.61 47.15C54.38 47.63 55.72 46.64 56.99 47.34C58.26 46.72 54.6 47.01 55.31 46.88C54.71 46.68 56.36 46.42 57.23 46.48C58.11 46.49 58.73 47.26 60.95 47.23C60.73 47.23 60.71 47.27 60.49 47.27C61.32 47.42 62.12 47.06 63.14 47.3C63.71 46.94 64.46 47.31 64.63 46.86L62.59 46.97C63.75 46.84 64.83 46.31 66.73 46.56C66.58 46.65 66.02 46.77 65.63 46.84C66.19 46.97 66.7 46.75 67.28 46.88C67.12 47.33 64.8 46.99 63.56 47.34C64.16 47.53 65.9 47 65.28 47.49C66.17 46.86 67.47 47.55 68.98 47.07L68.88 47.34C69.12 47.3 69.61 47.17 70.05 47.17L69.26 47.52C70.37 47.24 71.41 47.67 72.47 47.62C72.34 47.9 72.14 48.28 72.32 48.58C72.23 48.7 72.15 48.52 72.04 48.56C72.22 49.24 72.16 49.15 72.47 49.71L72.24 50.19C72.49 49.84 72.75 50.29 72.99 50.68C73.11 50.56 73.21 50.45 73.26 50.38L73.45 51.01C73.4 51.09 73.28 51.02 73.14 50.92C73.17 50.96 73.2 51 73.22 51.04C73.1 51.26 72.9 51.15 72.72 50.99C72.79 50.92 72.86 50.84 72.93 50.76C72.73 50.6 72.52 50.46 72.33 50.49C72.37 50.53 72.39 50.61 72.41 50.7C72.36 50.66 72.31 50.63 72.28 50.65C72.24 50.67 72.31 50.74 72.39 50.84L72.01 50.98L72.16 51.01L71.87 51.83C72.22 52.42 72.82 52.93 73 53.86C72.69 53.63 72.49 53.81 72.11 53.8C72.51 53.55 71.97 53.08 72.08 52.59C72.03 52.84 71.86 52.79 71.81 52.72L72.12 53.58C71.82 53.56 71.88 53.76 71.75 53.99C72.36 53.82 72.13 54.63 72.32 54.98C72.11 55 71.89 54.92 71.96 54.49C71.47 54.96 72.68 55.1 72.26 55.56C72.26 55.46 72.29 55.4 72.18 55.36C72.36 55.6 72.2 56.2 72.01 56.06V55.96C71.91 56.65 71.95 58.07 72.53 58.18C72.45 58.18 71.83 58.09 71.72 58.05C72.36 58.46 73.01 58.88 73.69 59.29C73.18 59.18 71.96 59.6 71.68 59.02C71.6 59.19 71.51 59.39 71.68 59.74C71.76 59.63 72.43 59.46 72.47 59.61C71.89 60.03 72.16 59.9 71.65 60.43C71.77 60.26 72.58 60.45 72.55 60.72C72.43 60.68 71.74 60.74 71.65 60.64L72.45 61.3C72.3 61.13 71.76 61.27 71.52 61.42C71.68 61.35 71.49 61.99 71.56 62.17L71.76 61.89C71.61 62.64 72.92 62.63 72.88 63.38C72.7 63.29 71.81 63.16 71.69 63.54C72.12 63.71 73.79 64.31 74.15 64.97L73.9 65.1L74.2 65.61C73.51 65.3 72.11 64.41 71.58 63.93C71.37 64.21 71.28 64.01 71.29 64.43C71.05 64.58 70.94 64.2 70.93 64.08L70.75 65.06C71.27 65.02 71.25 65.81 71.69 65.77L71.17 64.71C71.69 64.67 72.63 65.33 72.54 66.02C72.33 66.2 71.6 65.89 71.43 65.9C71.61 65.99 71.77 66.56 71.64 66.62L71.36 66.33C71.15 66.72 72.06 66.96 71.54 67.42C71.5 67.58 70.85 67.9 71.16 67.93C71.77 67.67 73.66 67.62 74.12 67.79C74.08 67.85 73.54 68.63 73.24 68.81C72.76 69.07 72.09 68.41 71.68 68.64C71.83 68.64 72.01 68.8 72.07 68.86C71.94 69.03 71.62 68.79 71.68 69.16C72.22 69.22 71.63 69.9 72.14 69.33C72.3 69.69 72.03 69.71 72.05 70.13C72.4 70 73.25 70.51 73.4 70.87C73.26 70.85 73.08 70.93 73 70.97C72.95 71.7 72.71 72.1 72.7 72.78C72.57 72.84 72.42 73.17 72.19 73.03C72.29 73.13 72.47 73.22 72.48 73.43C72.02 73.84 72.4 72.96 71.85 73.27C72.16 73.3 72.28 73.82 72.48 74.12C72.95 74.03 72.57 73.43 72.37 73.13C73.03 73.13 73.72 73.65 74.01 74.37C74.16 74.94 73.59 74.62 73.68 74.71C73.56 75.78 74.78 75.62 74.3 76.5C73.89 76.85 73.51 76.52 73.22 76.59C73.07 76.13 73.48 75.88 73.46 75.57L73.27 75.96C73.14 75.81 73.03 75.5 73.15 75.34C72.79 75.63 73.08 77.14 72.76 77.97C72.89 78.12 73.02 78.37 73.18 78.25L73.13 77.99C73.44 77.75 73.55 78.48 73.7 78.15C73.91 78.5 74.23 78.89 74.05 79.38L73.63 79.47C73.75 79.46 73.89 79.15 73.76 79.01C73.94 79.22 73.18 79.76 73.72 79.99L74.02 79.65C74.22 80 74.63 80.43 74.48 80.87C74.89 80.67 74.44 80.77 74.92 80.46C74.32 80.73 75.01 79.34 74.36 79.78C74.94 79.46 74.62 79.23 75.13 78.81C74.99 78.82 74.85 78.96 74.94 78.59C74.9 78.57 74.85 78.53 74.82 78.51C74.82 78.5 74.82 78.5 74.83 78.49L74.81 78.51C74.74 78.6 74.67 78.67 74.59 78.7C74.27 78.52 74.3 77.94 74.13 77.74C74.21 77.52 74.29 77.83 74.45 77.71L74.2 77.42C74.52 77.39 74.76 76.84 74.93 77.35L74.96 76.89C75.16 76.62 75.25 76.25 75.12 76.02C75.2 75.8 74.77 75.47 75.03 75.66L74.84 74.94H74.93C75 74.22 74.39 73.47 75.04 72.65C74.96 72.41 74.85 72.16 74.96 71.76L75.27 71.68C75.17 71.37 75.59 70.76 75.27 70.62C76.11 70.29 75.46 69.13 75.6 68.58L75.19 68.56C75.21 68.19 75.09 67.83 74.92 67.37L74.56 67.4C74.26 67 74.8 66.37 74.75 65.74C74.88 65.78 74.85 65.94 74.77 66.06C75.54 65.31 74.17 64.47 74.72 63.79C74.59 63.62 74.63 63.5 74.72 63.38C74.72 63.4 74.72 63.41 74.74 63.42C74.74 63.4 74.74 63.38 74.74 63.35C74.8 63.27 74.86 63.2 74.91 63.11C74.83 63.18 74.76 63.25 74.74 63.31C74.73 63.18 74.68 62.98 74.59 62.78L74.95 62.7C74.95 62.7 74.95 62.67 74.94 62.65C75.07 62.46 74.77 62.5 74.5 62.6C74.44 62.5 74.37 62.41 74.28 62.34C74.85 62.18 74.08 61.83 74.68 61.61C74.38 61.48 74.43 60.63 73.82 60.52C73.9 60.52 73.94 60.46 73.94 60.56C74.01 60.34 74.07 60.12 73.9 59.93L74.33 59.84L73.74 59.36C74 59.07 74.14 58.95 74.48 59.24C73.96 58.55 74.27 58.68 73.77 58.09L74.04 58.12C74.02 57.91 73.66 57.57 73.88 57.45C74.37 56.98 73.91 55.12 74.28 53.91C73.59 54.14 74.56 53.35 74.02 53.3C74.18 53.23 74.26 53.06 74.41 53.26C74.22 52.64 74.59 52.33 74.14 51.91C74.29 51.84 74.37 52.04 74.46 51.98C74.42 51.93 74.31 51.78 74.4 51.72C74.48 51.66 74.53 51.81 74.61 51.91C74.52 51.28 74.07 51.22 73.65 51.17C73.84 50.85 73.79 50.69 73.52 50.46C73.65 50.35 73.77 50.16 73.84 50.55C73.85 50.33 73.94 49.2 73.65 49.18C73.72 49.11 73.65 48.87 73.62 48.81C73.62 48.32 73.64 48.27 73.59 47.79L73.55 47.92C73.25 47.75 73.43 47.55 73.42 47.22C73.95 47.42 74.37 47.7 76.11 47.65C75.57 47.65 74.68 47.49 75.31 47.38C75.95 47.43 76.8 47.52 77.2 47.66C79.44 47.59 76.86 47.4 77.81 47.23C78.57 47.54 78.91 47.1 79.89 46.99V47.25C82.45 47.4 80.57 46.71 82.87 46.9L81.9 47.26L83.1 47.16L82.85 47.45C84.15 47.23 84.56 47.28 85.83 47.35C85.53 47.17 86 46.89 87.13 46.88C87.9 47.02 86.7 47.12 88.3 47.08C87.94 47.24 87.54 47.44 86.85 47.21C86.78 47.29 86.49 47.37 86.42 47.45C87.25 47.61 88.51 47.47 89.09 47.47C88.87 47.47 88.6 47.45 88.46 47.42L90.78 47.07C91.15 47.16 90.86 47.24 90.57 47.31C91.04 47.28 91.37 47.17 92.06 47.14C91.88 47.34 91.92 47.54 90.94 47.64L93.15 47.4C93.3 47.48 94.29 47.63 94 47.7C95.23 47.8 97.01 47.3 98.64 47.44C98.72 47.4 98.89 47.37 99.24 47.34C100.77 47.37 102.12 47.59 103.93 47.32L104.96 47.64C106.38 47.55 103.57 47.23 105.93 47.09C107.6 46.98 106.55 47.37 107.14 47.45C107.97 47.28 109.42 46.94 110.95 47.19C110.44 47.25 110.04 47.21 109.57 47.24L110.74 47.41C109.33 47.71 108.3 47.62 109.4 47.86C109.57 47.24 113.95 47.75 114.11 47.15L114.88 47.27C114.66 47.27 114.62 47.3 114.4 47.3C115.9 47.58 115.52 46.86 117.45 46.93C118.12 46.97 118.59 47.05 118.13 47.13L119.63 46.98C119.99 46.98 119.98 47.06 119.71 47.08L121.81 47.03L121.79 47.05C122.12 46.96 122.86 46.81 123.22 46.75C123.8 46.83 122.93 46.81 123.08 46.88L124.35 46.74C124.87 46.88 123.82 47.03 122.94 47.02C124.12 47.58 123.99 46.87 126.55 47.19L125.35 47.27C126.12 47.58 127.06 47.46 128.41 47.64C128.09 47.54 125.7 47.16 127.08 47.02C127.47 47.06 127.98 47.08 128.72 46.96C128.72 47.16 129.45 47.1 130.36 47.09L130.3 47.35C131.28 47.27 131.2 47.14 131.78 47.02C132.87 47.04 133.1 47.23 133.36 47.4C135.11 47.43 132.15 47.09 134.22 47.03C135.68 47.12 136.7 47.01 138.44 46.85C139.46 46.93 138.26 47 138.63 47.07L139.53 46.87C139.75 46.87 139.68 46.93 139.64 46.96C140.4 46.88 139.7 46.72 140.9 46.65C141.22 46.39 143.36 47.02 144.84 46.72C145.2 46.78 144.66 46.86 144.78 46.95C146.81 46.75 146.52 46.8 148.19 46.54L149.61 46.68C148.57 46.51 149.9 46.31 151.07 46.15C150.7 46.07 150.38 46 150.17 45.96L152.04 45.84C152.27 45.88 152.08 45.95 151.77 46.04C151.9 46.02 152.02 46 152.11 45.99C152.78 46.07 152.43 46.2 151.95 46.32C151.72 46.27 151.5 46.23 151.28 46.18C150.82 46.32 150.39 46.47 150.48 46.6C150.6 46.57 150.83 46.55 151.09 46.54C150.97 46.58 150.89 46.61 150.95 46.63C151.01 46.65 151.21 46.6 151.51 46.55L151.93 46.8L152.03 46.7L154.47 46.84C156.22 46.59 157.73 46.23 160.51 46.14C159.82 46.31 160.36 46.42 160.32 46.62C159.56 46.41 158.17 46.72 156.74 46.68C157.49 46.7 157.32 46.8 157.13 46.83L159.69 46.62C159.63 46.79 160.23 46.74 160.9 46.8C160.39 46.48 162.81 46.58 163.85 46.48C163.91 46.59 163.66 46.69 162.39 46.68C163.79 46.91 164.2 46.3 165.58 46.5C165.27 46.5 165.1 46.49 164.98 46.54C165.71 46.44 167.48 46.51 167.06 46.6H166.75C168.81 46.63 173.03 46.58 173.33 46.33C173.35 46.36 173.06 46.63 172.94 46.68L176.62 45.86C176.3 46.07 177.54 46.55 175.83 46.67C176.32 46.7 176.93 46.73 177.96 46.65C177.63 46.62 177.13 46.36 177.58 46.34C178.84 46.56 178.45 46.46 180 46.64C179.5 46.6 180.06 46.28 180.85 46.29C180.73 46.34 180.92 46.59 180.63 46.63L182.6 46.32C182.11 46.37 182.51 46.57 182.95 46.66C182.75 46.6 184.66 46.66 185.18 46.62L184.34 46.56C186.57 46.59 186.54 46.15 188.75 46.16C188.48 46.22 188.09 46.52 189.21 46.55C189.73 46.4 191.49 45.86 193.45 45.77L193.83 45.85L195.33 45.77C194.4 45.96 191.77 46.4 190.34 46.58C191.17 46.64 190.57 46.67 191.82 46.66C192.26 46.73 191.14 46.78 190.77 46.78L193.68 46.81C193.55 46.65 195.9 46.64 195.79 46.51L192.63 46.69C192.5 46.53 194.46 46.23 196.52 46.26C197.04 46.32 196.13 46.53 196.17 46.59C196.44 46.53 198.13 46.48 198.32 46.52L197.45 46.61C198.6 46.66 199.32 46.4 200.7 46.54C201.18 46.54 202.12 46.72 202.2 46.63C201.42 46.47 201.27 45.96 201.79 45.83C201.96 45.84 204.29 45.99 204.83 46.07C205.61 46.19 203.65 46.37 204.32 46.48C204.35 46.44 204.78 46.39 204.96 46.38C205.46 46.41 204.75 46.5 205.84 46.48C206.02 46.34 208.05 46.48 206.35 46.36C207.41 46.32 207.48 46.38 208.73 46.37C208.33 46.28 209.85 46.07 210.91 46.04C210.85 46.07 211.09 46.12 211.2 46.14C213.38 46.15 214.55 46.21 216.58 46.21C216.77 46.24 217.75 46.27 217.33 46.32C217.62 46.3 217.89 46.26 218.52 46.25C219.73 46.35 217.12 46.27 218.05 46.39C218.13 46.32 219.67 46.29 220.56 46.25C220.29 46.15 218.5 46.23 217.61 46.28C217.61 46.13 219.16 45.98 221.28 45.93C222.97 45.9 222.01 46.02 222.3 46C225.47 46.03 225 45.78 227.63 45.88C228.67 45.96 227.68 46.04 227.91 46.09C226.54 46.12 225.8 46.04 224.87 46.04L226.02 46.08C225.58 46.11 224.67 46.13 224.17 46.1C225.04 46.17 229.52 46.12 231.97 46.18C232.4 46.15 233.15 46.13 232.8 46.1H232.03C231.32 46.05 233.49 46.03 232.51 46C233.55 45.96 234.71 45.9 236.17 45.94L236.44 46.02C236.44 46.02 235.49 45.97 235.08 45.99C235.69 45.96 237.32 46.1 237.99 46L236.97 45.95C238.01 45.92 239.3 45.85 240.59 45.88L240.69 45.73ZM74.41 20.13L74.33 20.23C74.24 20 74.33 20.06 74.41 20.13ZM72.54 42.49C72.52 42.38 72.45 42.15 72.52 42.06C72.66 42.19 72.59 42.29 72.54 42.49ZM60.75 44.85L61.06 44.93C60.37 45.01 60.56 44.93 60.75 44.85ZM72.56 51.45C72.48 51.37 72.53 51.23 72.63 51.09C72.65 51.2 72.63 51.32 72.56 51.45ZM74.84 76.41H74.82C74.97 76.14 74.91 76.23 74.84 76.41ZM72.56 47.16C72.67 47.2 72.63 47.33 72.56 47.5C70.59 47.5 72.26 47.18 71.28 47C71.79 46.94 72.18 46.92 72.48 46.93C72.52 46.96 72.55 47.02 72.57 47.16H72.56ZM125.87 46.94C126.26 46.71 126.55 46.82 127.13 46.88C126.79 46.92 126.12 47.06 125.87 46.94ZM152.65 46.3C152.97 46.29 153.33 46.3 153.73 46.33C153.48 46.39 153.09 46.36 152.65 46.3ZM180.42 45.64C180.42 45.64 180.34 45.67 180.32 45.69C180.3 45.66 180.14 45.65 180.42 45.64ZM227.79 45.64C227.03 45.61 227.3 45.62 227.83 45.64C227.82 45.64 227.81 45.64 227.79 45.64Z" fill="white"/>
<path d="M150.72 46.57C150.62 46.54 150.6 46.51 150.57 46.48C150.44 46.51 150.43 46.54 150.72 46.57Z" fill="white"/>
<path d="M98.76 47.32H98.71C98.71 47.32 98.67 47.35 98.66 47.36L98.77 47.32H98.76Z" fill="white"/>
<path d="M204.45 46.34C204.45 46.34 204.58 46.38 205.07 46.39C204.75 46.38 204.57 46.36 204.45 46.34Z" fill="white"/>
<path d="M237.62 45.66C237.62 45.66 237.46 45.63 237.62 45.63H236.72C237.21 45.63 237.38 45.65 237.63 45.66H237.62Z" fill="white"/>
<path d="M246.45 45.98C246.6 45.98 246.76 45.98 246.91 45.98L246.87 45.96C246.24 45.96 245.81 45.98 246.45 45.99V45.98Z" fill="white"/>
<path d="M238.65 45.82C238.73 45.87 239.36 45.85 240.07 45.85H239.95C240.16 45.79 239.41 45.8 238.66 45.82H238.65Z" fill="white"/>
<path d="M240.23 45.85C240.45 45.85 240.67 45.85 240.88 45.85C240.96 45.82 240.62 45.85 240.23 45.85Z" fill="white"/>
<path d="M231.39 45.65C231.72 45.67 231.6 45.58 231.79 45.6C232.16 45.53 229.56 45.67 231.39 45.65Z" fill="white"/>
<path d="M238.58 45.97L239.22 45.98L238.97 45.92L238.58 45.97Z" fill="white"/>
<path d="M233.66 45.93L234.79 45.95C234.79 45.95 234.92 45.93 235.09 45.93C234.4 45.93 233.64 45.91 233.66 45.93Z" fill="white"/>
<path d="M236.56 45.98L237.68 46L237.35 45.98H236.56Z" fill="white"/>
<path d="M221.56 45.9L220.33 45.92C220.2 45.95 220.54 45.97 221 45.95C221.29 45.93 221.75 45.92 221.56 45.89V45.9Z" fill="white"/>
<path d="M224.69 46.15L225.27 46.11C224.94 46.09 224.92 46.08 224.73 46.05L224.69 46.15Z" fill="white"/>
<path d="M221.46 46.22C221.58 46.19 222.82 46.16 221.69 46.14C221.57 46.17 219.91 46.23 221.46 46.22Z" fill="white"/>
<path d="M203.17 46.03H203.49L203.44 45.82L203.17 46.03Z" fill="white"/>
<path d="M187.79 46.46C186.91 46.53 186.45 46.5 186.85 46.66C188.31 46.71 187.2 46.5 188.51 46.57C188.85 46.51 187.43 46.51 187.79 46.46Z" fill="white"/>
<path d="M187.79 46.46C187.93 46.45 188.08 46.43 188.24 46.42C187.99 46.44 187.87 46.45 187.79 46.46Z" fill="white"/>
<path d="M3.58001 44.17L2.64001 44.01L3.25001 44.27L3.58001 44.17Z" fill="white"/>
<path d="M1 44.67C1.21 44.65 1.62 44.61 1.78 44.72L1.56 44.24L1 44.67Z" fill="white"/>
<path d="M129.74 47.39L129.81 47.33C129.67 47.26 129.45 47.26 129.01 47.25L129.74 47.39Z" fill="white"/>
<path d="M117.04 47.3H117.26L116.85 47.05L117.04 47.3Z" fill="white"/>
<path d="M106.38 47.73C106.81 47.73 107.33 47.67 107.76 47.68C106.81 47.74 106.26 47.39 106.38 47.73Z" fill="white"/>
<path d="M73.32 95.05C73.29 95.19 73.33 95.14 73.34 95.16C73.38 94.92 73.31 95.05 73.32 95.05Z" fill="white"/>
<path d="M73.44 92.73L73.47 92.77L73.41 92.43L73.44 92.73Z" fill="white"/>
<path d="M73.48 91.73L73.43 91.79L73.57 91.96C73.59 91.49 73.52 90.88 73.6 90.55C73.36 90.76 73.58 91.34 73.48 91.72V91.73Z" fill="white"/>
<path d="M74.19 89.68C74.19 89.68 74.21 89.65 74.22 89.63C74.22 89.58 74.23 89.52 74.25 89.41C74.14 89.48 74.19 89.16 74.18 89.68H74.19Z" fill="white"/>
<path d="M74.22 89.63C74.2 89.86 74.32 89.48 74.22 89.63V89.63Z" fill="white"/>
<path d="M74.28 88.57L74.34 88.87C74.41 88.81 74.46 88.54 74.5 88.64C74.49 88.33 74.41 88.39 74.28 88.57Z" fill="white"/>
<path d="M74.1 88.29L74.13 88.45C74.13 88.45 74.18 88.38 74.1 88.29Z" fill="white"/>
<path d="M74.18 88.77L74.12 88.44C74.07 88.48 73.97 88.49 74.14 88.59C74.06 88.56 74.14 88.63 74.18 88.77Z" fill="white"/>
<path d="M73.92 89.05C73.91 89.63 74.1 89.54 74.12 88.97C74.04 89.14 73.98 89.36 73.92 89.05Z" fill="white"/>
<path d="M73.36 90.45L73.29 90.68L73.36 90.88C73.33 90.78 73.44 90.45 73.36 90.46V90.45Z" fill="white"/>
<path d="M74.42 87.04C74.48 86.93 74.55 86.71 74.66 86.69C74.59 86.67 74.46 86.79 74.36 86.81L74.42 87.03V87.04Z" fill="white"/>
<path d="M74.36 86.82L74.26 86.49C74.22 86.79 74.27 86.84 74.36 86.82Z" fill="white"/>
<path d="M73.77 88.13V88.23L73.95 88.78L73.77 88.13Z" fill="white"/>
<path d="M74.81 85.43L74.97 85.62L74.73 85.28L74.81 85.43Z" fill="white"/>
<path d="M74.87 84.59C75.01 84.73 75.16 84.4 75.24 84.55C75.24 84.32 75.12 84.13 75.01 83.95C75.06 84.14 75.02 84.34 74.87 84.59Z" fill="white"/>
<path d="M75.01 83.94C74.98 83.84 74.94 83.74 74.85 83.64C74.88 83.73 74.95 83.83 75.01 83.94Z" fill="white"/>
<path d="M74.6 85.66L74.37 85.79C74.37 85.79 74.37 85.88 74.36 85.92C74.41 85.89 74.53 85.84 74.6 85.66Z" fill="white"/>
<path d="M74.36 85.8C74.38 85.65 74.39 85.56 74.39 85.51C74.39 85.55 74.37 85.63 74.35 85.8H74.36Z" fill="white"/>
<path d="M74.35 85.96V85.93C74.35 85.93 74.32 85.95 74.35 85.96Z" fill="white"/>
<path d="M74 87.36C73.91 87.16 73.8 86.76 73.62 87.15C73.75 87.29 73.86 87.06 74 87.36Z" fill="white"/>
<path d="M74.07 86.12L74 86.47C74.06 86.47 74.14 86.4 74.19 86.5L74.07 86.12Z" fill="white"/>
<path d="M74.01 85.95L74.07 86.12L74.1 85.99L74.01 85.95Z" fill="white"/>
<path d="M74.57 84.25C74.48 84.1 74.48 83.93 74.47 83.74C74.41 83.94 74.37 84.15 74.36 84.35C74.43 84.38 74.56 84.47 74.57 84.25Z" fill="white"/>
<path d="M74.45 85V84.97C74.45 84.97 74.41 85.01 74.45 85Z" fill="white"/>
<path d="M74.6 81.89L74.55 81.92H74.6V81.89Z" fill="white"/>
<path d="M74.32 84.39C74.26 84.54 74.32 84.63 74.38 84.72C74.37 84.61 74.36 84.49 74.37 84.36C74.34 84.35 74.32 84.35 74.32 84.39Z" fill="white"/>
<path d="M74.78 83.13C74.72 83.21 74.67 83.3 74.62 83.39C74.7 83.31 74.84 83.15 74.78 83.13Z" fill="white"/>
<path d="M74.51 84.92V84.94C74.57 84.89 74.55 84.9 74.51 84.92Z" fill="white"/>
<path d="M74.51 84.92C74.48 84.84 74.43 84.78 74.38 84.72C74.39 84.81 74.41 84.9 74.44 84.97C74.46 84.95 74.48 84.93 74.51 84.92Z" fill="white"/>
<path d="M73.1 82.1C73.28 82.44 74.08 82.22 74.55 81.92C74.44 81.91 74.34 81.91 74.21 81.56C74.07 81.68 73.86 82.33 73.65 82.04C73.53 81.58 73.75 81.66 73.89 81.44C73.57 81.63 73.44 80.85 72.97 80.95L73.14 81.36C73.07 81.36 72.95 81.22 72.89 81.33C73.15 81.36 73.37 81.76 73.11 82.1H73.1Z" fill="white"/>
<path d="M74.49 82.58L74.51 82.72C74.56 82.56 74.67 82.44 74.87 82.22C74.77 81.98 74.68 81.93 74.6 81.92L74.52 82.63L74.49 82.58Z" fill="white"/>
<path d="M74.47 83.37C74.23 83.26 74.13 82.91 73.85 83.12C73.85 83.54 74.05 83.42 74.15 83.67C74.12 82.99 74.28 83.87 74.45 83.37C74.48 83.5 74.49 83.62 74.49 83.74C74.53 83.62 74.57 83.5 74.63 83.39L74.61 83.41C74.58 83.44 74.56 83.45 74.58 83.41C74.58 83.41 74.52 83.38 74.49 83.37C74.56 83.17 74.56 83.34 74.58 83.4C74.59 83.4 74.6 83.4 74.62 83.4L74.53 82.72C74.48 82.86 74.48 83.04 74.49 83.36L74.47 83.37Z" fill="white"/>
<path d="M73.19 86.79C73.19 86.79 73.22 86.77 73.24 86.77C73.22 86.73 73.2 86.71 73.19 86.79Z" fill="white"/>
<path d="M73.45 86.76C73.52 86.49 73.81 86.13 73.83 86.18C73.63 86.26 73.49 86.33 73.31 86.51C73.34 86.56 73.42 86.6 73.4 86.76C73.34 86.9 73.3 86.76 73.23 86.76C73.28 86.86 73.37 87.1 73.48 86.8L73.45 86.75V86.76Z" fill="white"/>
<path d="M73.79 84.92L73.7 84.35L73.49 84.64H73.61C73.55 84.95 73.7 84.88 73.8 84.92H73.79Z" fill="white"/>
<path d="M74.74 81.82L75.02 81.9L74.64 81.57L74.74 81.82Z" fill="white"/>
<path d="M74.75 81.09L75.01 81.11L74.86 80.92L74.75 81.09Z" fill="white"/>
<path d="M72.58 39.48L72.56 39.31C72.56 39.39 72.57 39.44 72.58 39.48Z" fill="white"/>
<path d="M72.55 40.69L72.6 40.72C72.58 40.66 72.56 40.64 72.55 40.69Z" fill="white"/>
<path d="M74.99 62.98C75.26 62.74 75.68 62.47 75.34 62.5L75.02 62.57C75.08 62.74 75.05 62.87 74.99 62.98Z" fill="white"/>
<path d="M73.07 50.58L73 50.65C73.08 50.71 73.15 50.76 73.21 50.81C73.17 50.74 73.12 50.66 73.06 50.57L73.07 50.58Z" fill="white"/>
<path d="M72.32 50.09C72.27 50.16 72.22 50.26 72.16 50.41L72.32 50.09Z" fill="white"/>
<path d="M72.27 32.89L72.12 32.7C72.15 33 72.2 32.87 72.27 32.89Z" fill="white"/>
<path d="M74.96 73.54C75.1 73.33 75.16 73.16 75.18 73.02C74.98 73.27 74.68 73.48 74.96 73.54Z" fill="white"/>
<path d="M73.63 39.96C73.61 39.86 73.59 39.81 73.57 39.82C73.59 39.93 73.61 39.98 73.63 39.96Z" fill="white"/>
<path d="M75.19 72.41C75.19 72.41 75.14 72.48 75.11 72.52C75.16 72.67 75.21 72.83 75.18 73.01C75.33 72.82 75.43 72.61 75.19 72.4V72.41Z" fill="white"/>
<path d="M71.87 8.99C71.87 8.99 71.89 8.95 71.9 8.94C71.87 8.94 71.87 8.96 71.87 8.99Z" fill="white"/>
<path d="M73.55 2.31002C73.55 2.26002 73.54 2.17002 73.51 2.02002C73.51 2.09002 73.53 2.20002 73.55 2.31002Z" fill="white"/>
<path d="M75.05 78.12C75.06 78.28 75.08 78.14 75.05 78.12V78.12Z" fill="white"/>
<path d="M73.07 70.85C73 70.88 73.02 70.87 73.07 70.85V70.85Z" fill="white"/>
<path d="M74.9 78.35C74.94 78.29 74.97 78.22 75 78.15C74.97 78.18 74.94 78.24 74.9 78.35Z" fill="white"/>
<path d="M75.04 78.32C75.03 78.37 75.01 78.42 75 78.46C75.05 78.48 75.08 78.46 75.04 78.32Z" fill="white"/>
<path d="M75.04 77.9C75.04 77.99 75.02 78.07 75 78.15C75.02 78.12 75.04 78.11 75.05 78.11C75.05 78.06 75.05 78 75.05 77.89L75.04 77.9Z" fill="white"/>
<path d="M72.25 21.8C72.25 21.8 72.26 21.78 72.28 21.77C72.16 21.61 72.18 21.68 72.25 21.8Z" fill="white"/>
<path d="M71.72 58.91C71.72 58.91 71.73 58.92 71.73 58.93V58.91H71.72Z" fill="white"/>
<path d="M71.51 58.35C71.87 58.59 71.83 58.73 71.74 58.91L72.61 58.72L71.51 58.35Z" fill="white"/>
<path d="M72.26 50.43C72.26 50.43 72.35 50.39 72.39 50.38C72.35 50.34 72.3 50.33 72.26 50.43Z" fill="white"/>
<path d="M72.3 32.93V32.91C72.3 32.91 72.28 32.89 72.27 32.89L72.3 32.93Z" fill="white"/>
<path d="M71.54 68.74C71.6 68.63 71.67 68.57 71.74 68.53C71.65 68.53 71.57 68.57 71.54 68.74Z" fill="white"/>
<path d="M75.11 79.74L75.05 79.4C75.05 79.56 74.98 79.62 74.92 79.71C75 79.71 75.11 79.64 75.11 79.74Z" fill="white"/>
<path d="M73.09 82.68C73.09 82.68 73.09 82.79 73.13 82.83H73.26C73.26 82.61 73.14 82.46 73.09 82.68Z" fill="white"/>
<path d="M74.01 80.05C73.74 80.08 73.83 80.29 73.87 80.53C73.87 80.52 73.87 80.5 73.87 80.49C74.24 80.56 74.13 80.31 74.01 80.06V80.05Z" fill="white"/>
<path d="M73.88 80.58C73.89 80.65 73.9 80.73 73.88 80.8C74.03 80.83 73.91 80.71 73.88 80.58Z" fill="white"/>
<path d="M74.84 77.61C74.76 77.72 75.21 77.68 75.09 77.74C75.46 77.87 74.68 76.99 74.84 77.61Z" fill="white"/>
<path d="M73.12 80.24L73.45 80.16L73.18 80.03L73.12 80.24Z" fill="white"/>
<path d="M73.38 78.37L73.28 78.75C73.34 78.75 73.37 78.79 73.4 78.85C73.41 78.62 73.49 78.36 73.38 78.37Z" fill="white"/>
<path d="M73.4 78.85C73.4 78.97 73.4 79.09 73.45 79.16C73.45 79.09 73.44 78.95 73.4 78.85Z" fill="white"/>
<path d="M73.02 79.73L73.09 79.61L73.11 79.35L73.02 79.73Z" fill="white"/>
<path d="M73.48 74.29L73.37 73.88C73.24 73.84 73.16 73.95 73.21 74.1C73.3 74.2 73.35 74.35 73.48 74.29Z" fill="white"/>
<path d="M72.44 75.54C72.52 75.43 72.6 75.42 72.73 75.36H72.26L72.44 75.54Z" fill="white"/>
<path d="M71.96 74.26C72.09 74.3 72.21 74.72 72.31 74.34C72.18 74.3 71.92 73.74 71.96 74.26Z" fill="white"/>
<path d="M72.91 68.1V68.21L73.72 68.19L72.91 68.1Z" fill="white"/>
<path d="M71.67 62.92C71.49 62.62 71.6 62.47 71.1 62.6C70.9 63.09 71.57 62.72 71.32 63.16C71.5 63.28 71.52 62.8 71.67 62.92Z" fill="white"/>
<path d="M71.67 62.92C71.67 62.92 71.73 63.02 71.78 63.07C71.73 62.98 71.7 62.94 71.67 62.92Z" fill="white"/>
<path d="M73.42 0.549988L73.41 0.759988L73.45 0.869988L73.42 0.549988Z" fill="white"/>
<path d="M73.32 0.19C73.29 0.13 73.27 0.06 73.24 0C73.25 0.07 73.28 0.21 73.27 0.26L73.32 0.19Z" fill="white"/>
<path d="M72.13 43.36L72.17 43.38C72.22 43.33 72.23 43.26 72.25 43.11L72.13 43.36Z" fill="white"/>
<path d="M72.44 39.09V39.16L72.57 39.02L72.44 39.09Z" fill="white"/>
<path d="M72.21 35.5C72.21 35.65 72.25 35.82 72.25 35.97C72.21 35.65 72.38 35.46 72.21 35.5Z" fill="white"/>
<path d="M141.84 33C139.11 36.33 136.79 39.13 134.91 41.41C133.02 43.69 131.49 45.58 130.32 47.1C129.15 48.62 128.31 49.82 127.78 50.7C127.25 51.58 127 52.3 127 52.85C127 53.95 127.52 54.49 128.57 54.49C129.62 54.49 130.72 54.18 132.04 53.57C133.36 52.96 134.74 52.17 136.18 51.2C137.62 50.23 139.06 49.14 140.5 47.91C141.94 46.69 143.3 45.48 144.56 44.27C145.83 43.07 146.95 41.91 147.91 40.79C148.88 39.67 149.59 38.76 150.04 38.04L150.64 38.36C150.04 39.2 149.23 40.22 148.22 41.39C147.2 42.57 146.04 43.78 144.75 45.03C143.46 46.27 142.09 47.51 140.65 48.73C139.21 49.95 137.74 51.05 136.25 52.02C134.76 52.99 133.31 53.77 131.89 54.36C130.47 54.95 129.17 55.25 127.98 55.25C126.64 55.25 125.64 54.93 125 54.3C124.35 53.67 124.03 52.97 124.03 52.21C124.03 51.32 124.27 50.39 124.74 49.4C125.21 48.41 125.97 47.2 127.01 45.76C128.05 44.33 129.41 42.59 131.07 40.54C132.73 38.5 134.73 35.98 137.07 32.98H141.84V33ZM146.16 21.24C146.86 21.24 147.43 21.44 147.87 21.84C148.32 22.24 148.54 22.74 148.54 23.33C148.54 23.92 148.32 24.42 147.87 24.82C147.42 25.22 146.85 25.42 146.16 25.42C145.47 25.42 144.89 25.22 144.45 24.82C144 24.42 143.78 23.92 143.78 23.33C143.78 22.74 144 22.25 144.45 21.84C144.9 21.44 145.47 21.24 146.16 21.24Z" fill="white"/>
<path d="M174.64 11C170.36 16.61 166.67 21.42 163.57 25.45C160.46 29.48 157.83 32.89 155.67 35.69C153.51 38.49 151.77 40.78 150.45 42.55C149.13 44.32 148.13 45.77 147.43 46.91C146.73 48.05 146.26 48.96 146.01 49.66C145.76 50.36 145.64 51.02 145.64 51.65C145.64 52.49 145.94 53.18 146.54 53.7C147.14 54.23 147.91 54.49 148.85 54.49C150.64 54.49 152.57 53.86 154.63 52.59C156.69 51.33 158.59 49.79 160.33 47.98C162.07 46.17 163.52 44.29 164.69 42.35C165.86 40.41 166.44 38.75 166.44 37.36C166.44 36.9 166.32 36.44 166.07 36C165.82 35.56 165.7 35.08 165.7 34.58C165.7 33.99 165.86 33.5 166.18 33.09C166.5 32.69 167.04 32.49 167.78 32.49C168.63 32.49 169.28 32.87 169.76 33.63C170.23 34.39 170.47 35.38 170.47 36.6C170.47 37.61 170.37 38.54 170.17 39.38C170.62 39.89 171.36 40.37 172.41 40.83C173.45 41.29 174.62 41.53 175.91 41.53C177.35 41.53 178.68 41.21 179.9 40.58C181.12 39.95 182.15 39.17 182.99 38.24L183.51 38.68C182.71 39.52 181.65 40.31 180.3 41.05C178.96 41.79 177.47 42.16 175.83 42.16C174.69 42.16 173.62 41.98 172.62 41.62C171.63 41.26 170.71 40.79 169.86 40.2C169.21 41.93 168.13 43.69 166.62 45.48C165.1 47.27 163.34 48.89 161.33 50.35C159.32 51.81 157.18 52.98 154.92 53.89C152.66 54.8 150.46 55.25 148.32 55.25C146.58 55.25 145.1 54.82 143.88 53.95C142.66 53.09 142.05 51.85 142.05 50.25C142.05 49.58 142.2 48.83 142.5 48.01C142.8 47.19 143.32 46.17 144.07 44.94C144.82 43.72 145.85 42.2 147.16 40.39C148.48 38.58 150.15 36.33 152.19 33.66C154.23 30.98 156.69 27.8 159.57 24.11C162.45 20.42 165.83 16.09 169.71 11.12L174.63 10.99L174.64 11Z" fill="white"/>
<path d="M207.74 11C203.46 16.61 199.77 21.42 196.67 25.45C193.56 29.48 190.93 32.89 188.77 35.69C186.61 38.49 184.87 40.78 183.55 42.55C182.23 44.32 181.23 45.77 180.53 46.91C179.83 48.05 179.36 48.96 179.11 49.66C178.86 50.36 178.74 51.02 178.74 51.65C178.74 52.49 179.04 53.18 179.64 53.7C180.24 54.23 181.01 54.49 181.95 54.49C183.74 54.49 185.67 53.86 187.73 52.59C189.79 51.33 191.69 49.79 193.43 47.98C195.17 46.17 196.62 44.29 197.79 42.35C198.96 40.41 199.54 38.75 199.54 37.36C199.54 36.9 199.42 36.44 199.17 36C198.92 35.56 198.8 35.08 198.8 34.58C198.8 33.99 198.96 33.5 199.28 33.09C199.6 32.69 200.14 32.49 200.88 32.49C201.73 32.49 202.38 32.87 202.86 33.63C203.33 34.39 203.57 35.38 203.57 36.6C203.57 37.61 203.47 38.54 203.27 39.38C203.72 39.89 204.46 40.37 205.51 40.83C206.55 41.29 207.72 41.53 209.01 41.53C210.45 41.53 211.78 41.21 213 40.58C214.22 39.95 215.25 39.17 216.09 38.24L216.61 38.68C215.81 39.52 214.75 40.31 213.4 41.05C212.06 41.79 210.57 42.16 208.93 42.16C207.79 42.16 206.72 41.98 205.72 41.62C204.73 41.26 203.81 40.79 202.96 40.2C202.31 41.93 201.23 43.69 199.72 45.48C198.2 47.27 196.44 48.89 194.43 50.35C192.42 51.81 190.28 52.98 188.02 53.89C185.76 54.8 183.56 55.25 181.42 55.25C179.68 55.25 178.2 54.82 176.98 53.95C175.76 53.09 175.15 51.85 175.15 50.25C175.15 49.58 175.3 48.83 175.6 48.01C175.9 47.19 176.42 46.17 177.17 44.94C177.92 43.72 178.95 42.2 180.26 40.39C181.58 38.58 183.25 36.33 185.29 33.66C187.33 30.98 189.79 27.8 192.67 24.11C195.55 20.42 198.93 16.09 202.81 11.12L207.73 10.99L207.74 11Z" fill="white"/>
<path d="M249.72 38.76C248.53 39.9 247.18 40.81 245.69 41.48C244.2 42.15 242.73 42.49 241.29 42.49C239.85 42.49 238.71 42.23 237.71 41.7C236.72 41.17 235.95 40.55 235.4 39.84H235.25C234.75 41.44 233.83 43.15 232.49 44.96C231.15 46.77 229.55 48.44 227.68 49.95C225.82 51.47 223.77 52.73 221.53 53.74C219.29 54.75 217.01 55.26 214.67 55.26C212.53 55.26 210.92 54.73 209.82 53.68C208.73 52.63 208.18 51.21 208.18 49.44C208.18 48.51 208.45 47.44 209 46.22C209.55 45 210.3 43.76 211.27 42.52C212.24 41.28 213.38 40.05 214.7 38.85C216.02 37.65 217.45 36.57 218.99 35.63C220.53 34.68 222.16 33.92 223.87 33.35C225.58 32.78 227.31 32.5 229.05 32.5C231.09 32.5 232.67 33.01 233.78 34.02C234.9 35.03 235.51 36.34 235.61 37.94C235.71 38.91 236.24 39.81 237.21 40.63C238.18 41.45 239.51 41.86 241.2 41.86C242.69 41.86 244.09 41.54 245.41 40.91C246.73 40.28 247.96 39.46 249.1 38.44L249.7 38.76H249.72ZM212.22 50.96C212.22 52.06 212.47 52.92 212.97 53.55C213.47 54.18 214.21 54.5 215.21 54.5C216.55 54.5 217.88 54.19 219.2 53.58C220.52 52.97 221.78 52.17 223 51.18C224.22 50.19 225.35 49.06 226.39 47.8C227.43 46.54 228.34 45.23 229.11 43.88C229.88 42.53 230.49 41.21 230.94 39.93C231.39 38.64 231.61 37.48 231.61 36.42C231.61 35.53 231.35 34.79 230.83 34.18C230.31 33.57 229.5 33.26 228.41 33.26C227.32 33.26 226.25 33.54 225.06 34.11C223.87 34.68 222.66 35.43 221.44 36.35C220.22 37.28 219.07 38.35 217.97 39.57C216.88 40.79 215.89 42.06 215.02 43.36C214.15 44.67 213.47 45.97 212.97 47.28C212.47 48.59 212.22 49.81 212.22 50.95V50.96Z" fill="white"/>
<path d="M256.8 33L246.96 44.57L247.11 44.7C248.15 43.65 249.37 42.41 250.76 41C252.15 39.59 253.64 38.25 255.23 36.99C256.82 35.73 258.47 34.66 260.19 33.8C261.9 32.94 263.61 32.5 265.3 32.5C266.79 32.5 267.95 32.85 268.77 33.54C269.59 34.24 270 35.13 270 36.23C270 36.91 269.71 37.71 269.14 38.63C268.57 39.56 267.86 40.55 267.02 41.6C266.17 42.65 265.25 43.73 264.26 44.82C263.26 45.92 262.35 46.96 261.5 47.95C260.65 48.94 259.95 49.85 259.37 50.67C258.8 51.49 258.51 52.18 258.51 52.73C258.51 53.91 259.21 54.5 260.6 54.5C262.19 54.5 263.88 54.05 265.67 53.14C267.46 52.23 269.6 50.71 272.08 48.56C273.07 47.72 274.08 46.79 275.1 45.78C276.12 44.77 277.1 43.77 278.05 42.78C278.99 41.79 279.85 40.85 280.62 39.97C281.39 39.08 282 38.35 282.45 37.76L282.97 38.01C281.98 39.27 280.7 40.78 279.13 42.53C277.56 44.28 275.86 46 274.02 47.68C272.93 48.69 271.81 49.66 270.67 50.59C269.53 51.52 268.38 52.33 267.24 53.02C266.1 53.72 264.97 54.26 263.85 54.66C262.73 55.06 261.62 55.26 260.53 55.26C259.09 55.26 257.89 54.92 256.95 54.25C256 53.58 255.53 52.65 255.53 51.47C255.53 50.21 256.13 48.83 257.32 47.33C258.51 45.83 259.83 44.33 261.27 42.81C262.71 41.29 264.03 39.84 265.22 38.45C266.41 37.06 267.01 35.84 267.01 34.78C267.01 34.27 266.81 33.89 266.41 33.64C266.01 33.39 265.49 33.26 264.84 33.26C263.6 33.26 262.21 33.65 260.66 34.43C259.12 35.21 257.54 36.24 255.93 37.53C254.31 38.82 252.7 40.25 251.08 41.83C249.46 43.41 247.96 44.99 246.57 46.57C245.18 48.15 243.93 49.67 242.84 51.12C241.75 52.57 240.93 53.79 240.38 54.76H235.76C237.05 52.91 238.43 51.02 239.9 49.1C241.37 47.18 242.82 45.29 244.26 43.41C245.7 41.53 247.08 39.72 248.4 37.97C249.72 36.22 250.9 34.63 251.94 33.2L256.79 33.01L256.8 33Z" fill="white"/>
<path d="M125.99 9.58998C126.78 10.33 127.49 11.99 127.9 12.95C129 15.49 129.83 18.2 130.05 20.97C131.09 33.94 117.18 37.1 107.07 37.41C107.07 37.41 93.12 38.21 75.75 28.85L77.14 27.68C77.14 27.68 88.98 34.08 107.29 33.74C108.56 33.72 109.84 33.51 111.08 33.29C116.21 32.39 122.2 30.33 124.99 25.56C127.78 20.79 126.71 13.9 124.43 9.18998C124.15 8.61998 123.7 7.29998 122.89 6.28998C123.36 6.44998 124.69 8.21998 125.06 8.56998C125.43 8.91998 125.61 9.25998 125.99 9.60998V9.58998Z" fill="white"/>
<path d="M66.53 29.3499C66.53 29.3499 80.05 29.0599 85.68 41.2999C85.46 40.8199 85.41 40.2699 85.3 39.7499C85.03 38.5699 84.23 37.0899 83.54 36.0799C81.74 33.4399 79.67 31.2099 76.78 29.7399C73.89 28.2699 70.88 27.4799 67.84 26.5599C67.42 26.4299 67.01 26.3099 66.6 26.1699L66.54 29.3499H66.53Z" fill="white"/>
<path d="M89.49 43.5599C89.65 43.0599 94.95 68.8099 126.89 61.4699L124.96 63.4699L127.55 65.1199C127.55 65.1199 123.32 66.3299 119.1 65.8299C119.1 65.8299 102.29 62.5899 98.15 57.2499C98.15 57.2499 88.35 47.2499 89.49 43.5599Z" fill="white"/>
<path d="M124.19 65.1299C111.53 65.7899 97.88 60.0699 91.57 48.0299C88.44 42.0499 86.45 33.9599 80.55 30.0099C77.46 27.9399 73.77 26.9999 70.1 26.3999C64.86 25.5399 59.52 25.3099 54.23 25.7099C54.25 25.7399 54.26 25.7699 54.28 25.7899C54.27 25.7899 54.25 25.7899 54.24 25.7899L54.28 25.8099C54.32 25.8699 54.36 25.9399 54.39 25.9999C53.21 26.0999 51.83 25.8499 50.76 26.4099L50.86 26.6099C50 27.0399 50.13 26.4199 49.17 26.6899L49.2 26.6399C49.02 26.8599 48.78 26.9799 48.51 26.9899C48.73 26.7299 48 26.5899 48.29 26.2899C47.37 26.8099 47.85 26.6499 47.33 27.4899L47.14 27.1799C46.97 27.5099 46.98 27.6699 46.52 27.8299C46.86 27.4799 46.13 27.3799 46.51 26.9299C45.36 26.3899 45.16 27.9299 44.49 26.9799C44.23 27.9799 45.46 27.2999 45.24 27.5499C45.51 27.7999 45.01 28.3099 44.68 28.2799C44.37 28.3199 43.89 27.2399 43.09 27.4499C43.17 27.4399 43.16 27.3699 43.24 27.3499C42.88 27.1899 42.74 27.8099 42.27 27.5299C42.21 28.1199 41.79 27.6199 41.92 28.3299L42.6 27.9799C42.23 28.2699 42.08 29.1699 41.31 28.9799C41.32 28.8299 41.46 28.5899 41.57 28.4499C41.32 28.2999 41.23 28.6899 40.97 28.5399C40.83 27.8399 41.79 28.1299 42.09 27.4899C41.79 27.2499 41.4 28.2199 41.41 27.4099C41.37 28.4499 40.59 27.5099 40.28 28.3999L40.19 27.9799C40.13 28.0699 40.01 28.3199 39.86 28.3599L39.97 27.7399C39.68 28.3199 39.01 27.6099 38.68 27.9999C39.54 27.6999 39.04 28.4199 39.5 28.5999C38.64 29.4999 38.53 27.7399 37.42 28.3499C37.56 28.2399 38.11 28.3799 37.92 28.6499C37.67 28.6499 37.32 28.5999 37.1 28.4399C36.36 28.8199 37.37 28.8099 37.14 29.1799C36.7 28.7899 36.84 29.5199 36.56 29.7999L36.4 29.3999C35.43 29.4799 36.5 30.3299 35.6 30.3299L35.7 29.6399L35.35 29.9499L35.25 29.4599C34.94 29.9799 34.78 29.9499 34.29 29.9999C34.51 30.2399 34.54 30.7499 34.17 30.9199C33.81 30.7899 34.15 30.4799 33.64 30.7699C33.65 30.4699 33.64 30.0999 34.04 30.3599C34.01 30.2199 34.05 30.0599 34.02 29.9199C33.62 29.7599 33.29 30.1599 33.1 30.2499C33.18 30.2299 33.28 30.2099 33.35 30.2499L32.82 31.1399C32.63 31.0499 32.67 30.8799 32.72 30.7199C32.58 30.8299 32.56 31.0599 32.34 31.1999C32.25 30.8499 32.09 30.5299 32.34 30.2299L31.76 30.9199C31.65 30.7999 31.21 30.7099 31.25 30.5499C30.75 30.5499 30.55 31.6399 29.9 31.6499C29.9 31.7299 29.88 31.8099 29.78 31.9099C29.24 32.0899 28.63 31.8999 28.23 32.6499L27.59 32.2699C27.18 32.6499 28.43 32.7299 27.75 33.3599C27.3 33.8399 27.28 32.9999 27 32.9499C26.87 33.3799 26.73 34.2199 25.96 34.0799C26.06 33.8699 26.24 33.8799 26.38 33.7499L25.81 33.6799C25.98 32.8999 26.44 32.8699 25.81 32.6599C26.38 33.7299 24.33 33.7099 24.96 34.7899L24.57 34.7499C24.65 34.7099 24.62 34.6399 24.7 34.5999C23.88 34.4599 24.84 35.5599 24.15 35.8699C23.89 35.9499 23.63 35.9199 23.68 35.6999C23.58 35.8899 23.5 36.1099 23.41 36.3099C23.26 36.3999 23.16 36.2099 23.31 36.1199C23.1 36.3399 22.88 36.5499 22.68 36.7899L22.66 36.7599C22.69 36.9899 22.68 37.4099 22.67 37.5999C22.38 37.6299 22.67 37.4299 22.51 37.3599C22.46 37.5399 22.41 37.7299 22.37 37.9199C22 37.8499 22.06 37.3199 22.36 37.1099C21.15 36.5699 22.28 37.6099 21.04 37.9099C21.11 37.7399 21.19 37.5899 21.26 37.4299C20.51 37.1999 20.44 37.6899 19.71 37.9099C20 37.9099 21.31 37.6599 21.17 38.3199C21 38.3899 20.82 38.5299 20.83 38.9199C20.48 38.6599 20.38 38.9899 20.18 39.3299L19.71 38.9899C19.6 39.4499 19.87 39.5699 19.97 39.9299C19.69 40.3199 19.25 40.2099 18.85 40.1499C18.41 40.8499 19.72 39.9599 19.43 40.8699C19.2 41.1299 19.09 41.3999 19.06 41.6999C19.04 42.0099 19.1 42.3599 19.17 42.7699C18.89 43.1799 18.84 42.6199 18.65 42.7399C18.78 42.9099 18.91 43.0799 19.04 43.2299C19.01 43.3299 18.88 43.2699 18.81 43.2499C18.93 43.6199 19.37 43.3699 19.46 43.8899C19.77 43.9899 19.53 44.2099 19.3 44.5299C19.06 44.8399 18.87 45.2899 19.27 45.5799C19.13 45.7699 18.91 45.5399 18.69 45.6199C18.98 46.0699 19.12 46.2499 19.26 46.3999C19.41 46.5499 19.57 46.6799 19.99 46.9199C19.94 47.1599 19.91 47.3999 19.89 47.6599C20.09 47.0399 20.8 47.4199 21.38 47.5199L21.32 47.6499C21.47 47.6299 21.6 47.5999 21.73 47.5699C21.62 47.5699 21.5 47.5399 21.38 47.5199C21.48 47.2899 21.59 47.1099 21.63 47.0099C21.82 47.1399 22.01 47.2399 22.2 47.3199C22.17 47.4299 21.98 47.5199 21.73 47.5799C21.79 47.5799 21.85 47.5899 21.91 47.5799C21.89 47.8799 21.57 48.0299 21.19 48.0699C21.23 47.9299 21.27 47.7799 21.32 47.6499C20.93 47.7099 20.5 47.7299 20.23 47.9399C20.32 47.9599 20.42 48.0199 20.51 48.0999C20.4 48.0999 20.31 48.1199 20.27 48.1699C20.24 48.2299 20.39 48.2399 20.6 48.2699C20.46 48.4499 20.33 48.6299 20.21 48.8199L20.44 48.6999C20.58 49.1099 20.81 49.4999 21.07 49.8799C22.25 49.9499 23.23 49.3499 24.22 49.2199C23.9 49.6499 24.04 49.9699 23.96 50.5299C23.84 50.2199 23.6 50.2299 23.29 50.2799C22.99 50.3199 22.59 50.3899 22.29 50.1599C22.6 50.3799 22.43 50.5899 22.29 50.6299C22.78 50.6399 23.24 50.5899 23.66 50.4899C23.55 50.9399 23.85 50.8699 24.15 51.0999C24.03 50.1899 25.06 50.5799 25.48 50.2499C25.53 50.5499 25.44 50.8699 24.87 50.7999C25.18 51.1399 25.39 50.8599 25.56 50.5799C25.73 50.2799 25.87 49.9799 26.18 50.2299C26.06 50.2599 25.98 50.2099 25.95 50.3699C26.21 50.0799 26.93 50.1499 26.82 50.4399L26.7 50.4699C27.57 50.4399 29.13 49.7899 28.93 49.0199C28.97 49.1099 29.17 49.9199 29.18 50.0799C29.33 49.0999 29.38 48.1399 29.41 47.1699C29.58 47.8199 30.64 49.0499 30.23 49.6599C30.43 49.6599 30.68 49.6699 30.93 49.2999C30.78 49.2699 30.25 48.5699 30.38 48.4399C31.1 48.9099 30.83 48.6599 31.61 48.9799C31.38 48.9299 31.12 47.9099 31.39 47.8199C31.42 47.9799 31.86 48.7199 31.81 48.8699C31.88 48.4599 31.95 48.0599 32 47.6499C31.93 47.8999 32.36 48.4299 32.63 48.6099C32.47 48.4699 33.19 48.3299 33.32 48.1499L32.94 48.0899C33.73 47.8399 32.98 46.4599 33.7 46.1299C33.72 46.3599 34.12 47.3699 34.54 47.2899C34.45 46.7399 34.02 44.6999 34.41 44.0199L34.67 44.2099L34.95 43.6599C35.07 44.4899 35.1 46.3799 34.95 47.1999C35.33 47.2499 35.2 47.4599 35.58 47.1999C35.86 47.3599 35.58 47.6899 35.47 47.7699L36.49 47.3899C36.14 46.8899 36.89 46.4599 36.59 46.0399L35.91 47.1599C35.57 46.6599 35.62 45.3499 36.3 45.0599C36.59 45.1699 36.74 46.0599 36.86 46.2199C36.84 45.9899 37.25 45.5099 37.39 45.5999L37.29 46.0399C37.76 46.0099 37.44 44.9999 38.17 45.2299C38.34 45.1699 39.03 45.6199 38.86 45.2999C38.25 44.8699 37.06 43.0799 36.94 42.5499C37.02 42.5599 38.04 42.6299 38.38 42.8099C38.91 43.1099 38.73 44.1299 39.18 44.3899C39.1 44.2499 39.12 43.9899 39.14 43.8999C39.37 43.9199 39.36 44.3699 39.64 44.0999C39.36 43.5499 40.33 43.7099 39.51 43.5599C39.73 43.2099 39.92 43.4499 40.28 43.1799C39.94 42.9299 39.87 41.8299 40.08 41.4799C40.15 41.6199 40.33 41.7399 40.42 41.7999C41.09 41.4099 41.6 41.4099 42.2 41.0099C42.34 41.0999 42.73 41.0499 42.75 41.3499C42.77 41.1999 42.74 40.9799 42.91 40.8399C43.57 41.0399 42.55 41.1899 43.18 41.5299C43 41.2199 43.38 40.7999 43.52 40.4299C43.13 40.0299 42.85 40.7599 42.72 41.1199C42.29 40.4899 42.3 39.5199 42.72 38.8099C43.11 38.3199 43.21 39.0699 43.24 38.9199C44.25 38.3999 43.29 37.2799 44.37 37.2099C44.95 37.3999 44.93 37.9999 45.19 38.2399C44.89 38.6699 44.4 38.4099 44.13 38.6099L44.6 38.5699C44.56 38.7899 44.36 39.0799 44.14 39.0599C44.64 39.2499 45.76 38.0499 46.71 37.9099C46.75 37.6899 46.88 37.3999 46.66 37.3099L46.47 37.5199C46.04 37.3399 46.6 36.7799 46.21 36.8199C46.36 36.3899 46.47 35.7899 47.03 35.6899L47.42 36.0999C47.32 35.9699 46.95 36.0199 46.93 36.2399C46.97 35.9099 48.01 36.4199 47.81 35.6899L47.29 35.5699C47.45 35.1299 47.52 34.3899 48.01 34.2799C47.53 33.9399 47.95 34.3899 47.33 34.0399C48.01 34.5499 46.31 34.6699 47.15 35.1099C46.45 34.6799 46.49 35.1699 45.77 34.8899C45.88 35.0299 46.09 35.0899 45.72 35.2399C45.73 35.2899 45.74 35.3699 45.74 35.4199C45.73 35.4199 45.72 35.4199 45.71 35.4199H45.74C45.74 35.4199 45.74 35.4599 45.75 35.4199C45.87 35.4299 45.99 35.4699 46.07 35.5399C46.14 35.9999 45.62 36.3299 45.57 36.6299C45.33 36.6899 45.53 36.3999 45.32 36.3099L45.24 36.7499C44.99 36.4299 44.35 36.5399 44.67 36.0299L44.25 36.2899C43.88 36.2599 43.51 36.4099 43.4 36.6899C43.16 36.7499 43.17 37.3899 43.16 37.0099L42.67 37.6499L42.61 37.5699C41.96 37.9499 41.71 38.9899 40.59 38.8699C40.44 39.0999 40.29 39.3399 39.88 39.4799L39.62 39.2299C39.42 39.5099 38.62 39.4799 38.71 39.8599C37.9 39.2699 37.3 40.5299 36.74 40.6999L36.97 41.0999C36.63 41.2899 36.39 41.5999 36.08 41.9999L36.32 42.3299C36.14 42.8299 35.26 42.6499 34.73 43.0199C34.69 42.8599 34.85 42.8099 35 42.8299C33.87 42.4499 33.92 44.2299 32.98 44.0099C32.9 44.2199 32.77 44.2499 32.61 44.2199C32.62 44.2199 32.63 44.1999 32.64 44.1799C32.62 44.1799 32.6 44.1999 32.57 44.2099C32.47 44.1899 32.36 44.1499 32.25 44.1299C32.36 44.1799 32.46 44.2199 32.53 44.2199C32.42 44.2899 32.26 44.4299 32.13 44.6099L31.85 44.2699C31.85 44.2699 31.83 44.2899 31.82 44.2999C31.57 44.2499 31.78 44.5499 32.03 44.7899C31.97 44.8999 31.93 45.0199 31.92 45.1499C31.45 44.5999 31.56 45.6099 31.03 45.0499C31.08 45.4499 30.26 45.7499 30.5 46.4799C30.45 46.3899 30.38 46.3799 30.47 46.3199C30.23 46.3399 29.99 46.3599 29.9 46.6399L29.58 46.1799L29.45 47.0599C29.04 46.8799 28.85 46.7599 28.94 46.2399C28.57 47.1399 28.55 46.6899 28.25 47.5099L28.15 47.1699C27.97 47.2599 27.82 47.8099 27.6 47.5799C27.28 47.3199 26.75 47.4799 26.15 47.5699C25.56 47.6699 24.88 47.6799 24.51 47.2999C24.53 47.8299 24.44 47.6999 24.33 47.5399C24.23 47.3699 24.16 47.1699 24.03 47.5599C24.03 47.3099 24.01 47.1399 24.17 46.9699C23.98 47.0299 23.89 46.8999 23.83 46.8099C23.75 46.7399 23.72 46.6899 23.41 46.9199C23.53 46.6999 23.68 46.6599 23.74 46.5199C23.69 46.5599 23.54 46.6399 23.62 46.5099C23.7 46.3799 23.78 46.3699 23.87 46.3099C23.71 46.2199 23.11 46.7099 22.54 47.1399C22.65 46.7399 22.58 46.7199 22.07 46.7799C22.23 46.5799 22.39 46.3599 22.6 46.5599C22.52 46.4199 22.55 45.5899 22.01 45.6799C22.14 45.5899 22.01 45.4299 21.93 45.3899C21.91 44.9699 21.95 44.9399 21.92 44.5199L21.82 44.6399C21.14 44.4599 21.65 44.2599 21.62 43.9099L21.69 43.9299C22.31 43.2199 21.48 43.5099 22.25 42.8899L21.83 42.7999C21.4 42.6299 21.57 42.4699 21.87 42.3299C22.17 42.1799 22.5 42.0499 22.47 41.7599L22.16 41.7999C22.08 41.6099 22.46 41.5799 22.86 41.6099C23.26 41.6299 23.71 41.7299 23.83 41.6699C23.93 41.6699 23.89 41.8099 23.91 41.8899C24.7 41.6999 23.48 41.5199 23.63 41.0499C23.93 41.1599 24.19 41.5899 24.42 41.3899C24.57 41.4099 24.51 41.0899 24.51 40.7399C24.54 40.4099 24.64 40.0599 25.01 40.0999C24.77 39.9999 24.53 39.9099 24.58 39.6199C24.8 39.2899 25.9 39.6099 25.69 38.8299C25.77 38.8499 25.82 38.8899 25.86 38.9299C25.83 39.0499 25.83 39.1399 25.91 39.1999C25.94 39.0799 25.91 38.9999 25.86 38.9299C25.95 38.5999 26.41 38.1099 26.32 37.6699C26.87 38.1999 27.13 37.7899 27.38 37.3999C27.64 37.0099 27.87 36.6099 28.22 37.2099L28.98 36.6899L29.03 36.8199C29.59 36.6199 29.61 36.2299 29.65 35.8399C29.82 35.8599 29.79 36.0199 29.81 36.0899C30.71 35.9399 30.77 35.8499 31.14 34.8999L31.41 35.2699C31.48 34.9499 32.88 35.3399 33.45 34.4999C33.46 34.5499 33.48 34.6399 33.45 34.7199C34.14 33.8299 36.08 34.8999 35.77 33.2699L36.22 32.6499C35.39 32.8599 36.07 31.9499 35.64 31.8299C35.91 31.6099 36.63 31.9599 36.28 32.1899L36.19 32.1399C36.37 32.9799 37.28 32.0299 37.47 32.5799C38.99 31.9399 40.66 31.8699 42.12 31.4799L41.76 30.8999L42.29 30.7899C42.47 30.8999 42.61 31.2299 42.24 31.3099C42.53 31.6099 42.76 30.8299 42.74 30.6899C43.53 30.7599 42.66 31.5099 42.89 31.4599L43.17 31.3299L43.08 31.2699C43.25 30.9499 43.2 30.6599 43.65 30.5799C43.96 30.6399 43.89 30.9399 44.01 30.9399C44.02 30.9899 44.06 30.9999 44.18 30.9199L44.84 30.8199L44.46 30.3699C44.69 30.0499 45.08 30.2599 44.65 29.7499C45.29 30.5299 47.17 29.5699 47.5 29.8299C47.85 29.3899 48.27 29.3399 48.78 29.3299C48.64 29.2399 48.5 28.6699 48.95 28.6799C48.92 29.8899 49.81 29.1299 50.23 29.9599C49.87 29.3999 51.45 29.7499 50.91 28.9599C51.28 29.0399 50.96 29.4099 51.24 29.6799C52.09 29.1899 53.13 29.9299 54.17 29.8399C54.2 29.6799 54.03 29.4299 54.27 29.2099C54.44 29.4799 54.61 29.7599 54.78 30.0399C54.97 29.9799 55.04 29.2699 55.31 29.6299L55.16 29.8399C55.25 29.9099 55.35 30.0999 55.28 29.6999C55.32 29.8199 55.33 29.7699 55.35 29.6699C55.36 29.6899 55.37 29.6899 55.38 29.7099C55.38 29.6899 55.37 29.6599 55.36 29.6399C55.37 29.5999 55.39 29.5499 55.41 29.4999L55.35 29.5799C55.33 29.4699 55.32 29.3499 55.43 29.3299C55.53 29.3799 55.63 29.4199 55.74 29.4499C55.71 29.4699 55.68 29.4799 55.65 29.4999C55.88 29.5499 56.13 29.5199 55.93 29.8699C56.08 29.7699 56.16 29.6799 56.19 29.5999C56.21 29.5999 56.23 29.6099 56.25 29.6199C56.57 29.2399 57.02 28.9699 57.6 28.8799C58.02 28.8799 58.44 28.8799 58.86 28.8999C58.45 29.1899 58.01 29.6599 57.64 29.6399C58.1 30.1399 58.39 29.2199 58.87 29.2699L58.99 29.3799L58.97 28.9099C59.15 28.9099 59.33 28.9099 59.5 28.9199C59.55 28.9199 59.61 28.9399 59.66 28.9399L59.6 29.0799L59.69 28.9399C61.02 29.1099 62.3 29.4499 63.59 29.8299C63.59 29.5699 63.62 29.3099 63.69 29.0799C65.23 29.1599 66.78 29.2499 68.32 29.3799C71.76 29.6499 75.51 28.7899 79.11 31.8299C85.86 37.5299 86.9 47.0199 92.42 53.4999C96.52 58.3099 102.02 62.0099 107.95 64.2399C111.1 65.4199 114.44 66.09 117.8 66.2299C119.48 66.2999 121.17 66.2299 122.84 66.0399C124.42 65.8499 126.08 65.5999 127.58 65.0999C126.44 65.1799 125.35 65.0499 124.21 65.1099L124.19 65.1299ZM21.18 48.4499C21.3 48.5299 21.39 48.6599 21.45 48.8499C21.27 48.8899 21.18 48.6999 21.18 48.4499ZM21.21 38.3099C21.23 38.1399 21.2 37.7299 21.46 37.8299C21.72 38.2799 21.46 38.1999 21.21 38.3099Z" fill="white"/>
<path d="M55.04 30.04L55.15 29.88C55.09 29.84 55.04 29.84 55.04 30.04Z" fill="white"/>
<path d="M57.78 30.3199L58.08 30.3899L58.19 30.1099C58.13 30.2399 57.69 30.1299 57.79 30.3199H57.78Z" fill="white"/>
<path d="M53.12 30.14C53.17 30.27 53.39 30.41 53.5 30.55L53.64 30.3C53.48 30.28 53.23 30.31 53.12 30.14Z" fill="white"/>
<path d="M53.5 30.5599L53.29 30.9399C53.59 30.8099 53.59 30.6899 53.5 30.5599Z" fill="white"/>
<path d="M55.31 30.6999C55.41 30.4599 55.52 30.2299 55.62 29.9999C55.48 30.2499 55.34 30.4999 55.21 30.7599L55.31 30.6999Z" fill="white"/>
<path d="M51.91 30.4299L51.83 31.0299L51.89 30.8099L51.91 30.4299Z" fill="white"/>
<path d="M51.11 31.3199C51.11 31.0199 50.7 31.0399 50.76 30.8199C50.56 30.9899 50.49 31.2899 50.43 31.5599C50.55 31.3599 50.76 31.2699 51.11 31.3199Z" fill="white"/>
<path d="M50.43 31.5599C50.37 31.6699 50.32 31.7999 50.31 31.9799C50.36 31.8699 50.39 31.7199 50.43 31.5599Z" fill="white"/>
<path d="M52.58 31.2399C52.58 31.2399 52.66 31.1999 52.71 31.1699C52.65 31.1099 52.49 30.9499 52.27 30.9699L52.58 31.2299V31.2399Z" fill="white"/>
<path d="M52.59 31.2499H52.58C52.44 31.3099 52.34 31.3599 52.3 31.3799C52.34 31.3599 52.42 31.3299 52.59 31.2499Z" fill="white"/>
<path d="M52.74 31.15L52.71 31.17C52.71 31.17 52.75 31.2 52.74 31.15Z" fill="white"/>
<path d="M54.48 31.63C54.49 31.33 54.19 31.28 54.32 30.84C54.23 31.13 53.95 31.54 54.48 31.63Z" fill="white"/>
<path d="M53.36 31.0599L53.12 31.4899L53.5 31.3899C53.44 31.2999 53.31 31.2099 53.35 31.0599H53.36Z" fill="white"/>
<path d="M53.03 31.6899L53.13 31.4899L52.99 31.5299L53.03 31.6899Z" fill="white"/>
<path d="M51.06 31.96C51 32.19 50.85 32.2899 50.69 32.4199C50.91 32.3699 51.14 32.29 51.32 32.18C51.28 32.06 51.26 31.83 51.06 31.96Z" fill="white"/>
<path d="M51.8 31.68C51.8 31.68 51.86 31.7 51.82 31.64L51.8 31.68Z" fill="white"/>
<path d="M49.05 33.5099L49.02 33.45L48.98 33.47L49.05 33.5099Z" fill="white"/>
<path d="M51.39 32.2299C51.57 32.2099 51.61 32.0799 51.63 31.9299C51.54 32.0299 51.44 32.1099 51.32 32.1899C51.34 32.2399 51.35 32.2799 51.39 32.2299Z" fill="white"/>
<path d="M49.92 32.4299C50.04 32.4499 50.15 32.4599 50.27 32.4599C50.14 32.3999 49.89 32.3299 49.92 32.4299Z" fill="white"/>
<path d="M51.7 31.6099V31.5799C51.62 31.5399 51.65 31.5699 51.7 31.6099Z" fill="white"/>
<path d="M51.63 31.9299C51.7 31.8499 51.76 31.7699 51.8 31.6799C51.77 31.6699 51.73 31.6399 51.7 31.6199C51.65 31.7099 51.64 31.8299 51.63 31.9299Z" fill="white"/>
<path d="M48.99 34.15C49.21 34.24 49.94 34.1 49.84 34.54C49.52 34.95 49.43 34.64 49.13 34.62C49.54 34.89 48.95 35.51 49.4 36L49.63 35.57C49.69 35.65 49.65 35.87 49.8 35.89C49.63 35.57 49.8 35.06 50.32 35.2C50.48 34.78 49.66 33.91 49.04 33.52C49.11 33.66 49.19 33.78 48.98 34.16L48.99 34.15Z" fill="white"/>
<path d="M49.07 32.92C48.94 33.2 48.97 33.34 49.02 33.45L49.7 33.09L49.68 33.16L49.79 33.04C49.61 33.08 49.42 33.03 49.08 32.91L49.07 32.92Z" fill="white"/>
<path d="M50.3 32.48C50.35 32.5 50.38 32.52 50.33 32.52V32.53C50.35 32.58 50.37 32.63 50.38 32.67C50.16 32.71 50.3 32.6 50.33 32.53L50.31 32.48L49.79 33.05C49.95 33.01 50.11 32.9 50.38 32.68C50.48 33.08 50.25 33.41 50.66 33.65C51.03 33.39 50.76 33.21 50.9 32.92C50.33 33.39 50.97 32.62 50.4 32.71C50.49 32.58 50.59 32.49 50.68 32.41C50.54 32.44 50.4 32.46 50.26 32.46H50.29L50.3 32.48Z" fill="white"/>
<path d="M54.53 32.54C54.53 32.54 54.48 32.5 54.47 32.47C54.45 32.53 54.45 32.57 54.53 32.54Z" fill="white"/>
<path d="M53.44 31.8799C53.44 31.8799 53.4 31.8399 53.38 31.8199C53.38 31.8299 53.4 31.8599 53.44 31.8799Z" fill="white"/>
<path d="M54.28 32.0499L54.26 32.1199C54 32.1399 53.6 31.9799 53.45 31.8799C53.67 32.1099 53.85 32.2799 54.16 32.4799C54.18 32.4099 54.15 32.2499 54.32 32.2099C54.51 32.2399 54.41 32.3699 54.48 32.4799C54.52 32.3399 54.67 32.0699 54.29 32.0499H54.28Z" fill="white"/>
<path d="M51.88 33.12L52.32 33.26L52.2 33.09C52.54 32.99 52.35 32.81 52.31 32.65L51.88 33.12Z" fill="white"/>
<path d="M48.68 33.63L48.82 33.34L48.67 32.95L48.68 33.63Z" fill="white"/>
<path d="M48.01 33.4999L47.95 33.7899L48.18 33.8099L48.01 33.4999Z" fill="white"/>
<path d="M22.6 36.5999L22.69 36.7499C22.67 36.6299 22.65 36.5599 22.6 36.5999Z" fill="white"/>
<path d="M31.64 44L31.89 44.31C32.01 44.17 32.15 44.14 32.29 44.17C31.91 43.99 31.43 43.67 31.64 44.01V44Z" fill="white"/>
<path d="M19.92 48.19C19.91 48.01 19.92 47.83 19.92 47.66C19.89 47.79 19.88 47.96 19.92 48.19Z" fill="white"/>
<path d="M29.92 31.1099C29.62 31.2599 29.84 31.3699 29.9 31.5599L29.92 31.1099Z" fill="white"/>
<path d="M41.58 38.41C41.31 38.41 41.13 38.45 40.99 38.52C41.34 38.56 41.7 38.71 41.58 38.41Z" fill="white"/>
<path d="M41 38.52C40.74 38.49 40.5 38.53 40.47 38.88C40.52 38.89 40.57 38.88 40.62 38.89C40.72 38.74 40.82 38.61 41 38.52Z" fill="white"/>
<path d="M61.85 31.2399C61.78 31.2399 61.68 31.1999 61.58 31.1699C61.62 31.2099 61.7 31.2299 61.85 31.2399Z" fill="white"/>
<path d="M45.43 35.42C45.43 35.37 45.55 35.31 45.43 35.42V35.42Z" fill="white"/>
<path d="M47.01 36.4499C46.97 36.3599 46.96 36.2999 46.96 36.2499C46.96 36.3099 46.96 36.3699 47.01 36.4499Z" fill="white"/>
<path d="M40.47 41.8199H40.46C40.54 41.8599 40.53 41.8599 40.47 41.8199Z" fill="white"/>
<path d="M45.74 35.4299C45.66 35.4299 45.58 35.4299 45.5 35.4499C45.55 35.4499 45.62 35.4499 45.74 35.4299Z" fill="white"/>
<path d="M45.6 35.2899C45.66 35.2699 45.7 35.2499 45.74 35.2399C45.72 35.1699 45.68 35.1499 45.6 35.2899Z" fill="white"/>
<path d="M45.25 35.5699C45.33 35.5099 45.41 35.4799 45.5 35.4499C45.46 35.4499 45.43 35.4399 45.43 35.4199C45.39 35.4499 45.34 35.4899 45.25 35.5699Z" fill="white"/>
<path d="M41.58 28.4299C41.58 28.4299 41.61 28.4399 41.63 28.4599C41.75 28.2599 41.68 28.2999 41.58 28.4299Z" fill="white"/>
<path d="M30.27 49.7199C30.27 49.7199 30.27 49.6999 30.27 49.6899H30.24L30.26 49.7199H30.27Z" fill="white"/>
<path d="M29.79 50.2499C29.86 49.6899 30.03 49.6899 30.25 49.6899L29.61 48.7399C29.68 49.2399 29.74 49.7399 29.79 50.2399V50.2499Z" fill="white"/>
<path d="M20.1 48.1199C20.14 48.0399 20.2 47.9899 20.27 47.9399C20.18 47.9199 20.1 47.9599 20.1 48.1199Z" fill="white"/>
<path d="M29.92 31.6399C29.92 31.6399 29.92 31.5899 29.9 31.5599V31.6399C29.9 31.6399 29.9 31.6399 29.92 31.6399Z" fill="white"/>
<path d="M39.54 44.48C39.41 44.49 39.31 44.46 39.23 44.41C39.28 44.5 39.38 44.55 39.54 44.48Z" fill="white"/>
<path d="M46.52 34.5899C46.66 34.4799 46.76 34.5199 46.87 34.5299C46.81 34.4499 46.67 34.3599 46.76 34.2999L46.52 34.5899Z" fill="white"/>
<path d="M50.86 34.8699C50.88 34.7999 50.95 34.8099 50.97 34.7299L50.85 34.5699C50.67 34.6999 50.62 34.9199 50.86 34.8699Z" fill="white"/>
<path d="M47.84 35.3199C48.06 35.6099 48.19 35.3799 48.36 35.1899C48.35 35.1899 48.34 35.2099 48.32 35.2099C48.1 34.7399 47.97 35.0299 47.84 35.3199Z" fill="white"/>
<path d="M48.4 35.1499C48.46 35.0899 48.52 35.0399 48.59 35.0199C48.5 34.8299 48.49 35.0399 48.4 35.1499Z" fill="white"/>
<path d="M45.14 35.97C45.29 35.98 44.94 35.54 45.08 35.63C44.93 35.17 44.73 36.54 45.14 35.97Z" fill="white"/>
<path d="M48.42 36.27L48.67 36.22L48.34 35.89L48.42 36.27Z" fill="white"/>
<path d="M46.83 37.03L47.23 36.91C47.18 36.85 47.2 36.78 47.23 36.72C47.02 36.85 46.74 36.92 46.82 37.03H46.83Z" fill="white"/>
<path d="M47.24 36.7299C47.35 36.6699 47.45 36.5899 47.47 36.4899C47.41 36.5299 47.3 36.6299 47.24 36.7299Z" fill="white"/>
<path d="M47.87 36.7399L48.28 36.6299L48.13 36.6199L47.87 36.7399Z" fill="white"/>
<path d="M42.93 39.7299C42.98 39.8799 43.13 39.8899 43.23 39.7499C43.26 39.5999 43.36 39.4599 43.22 39.3799L42.93 39.7299Z" fill="white"/>
<path d="M44.96 39.9499L45.01 39.6599C44.86 39.6499 44.8 39.5699 44.66 39.4799L44.96 39.9499Z" fill="white"/>
<path d="M44.02 40.4799C44.07 40.6299 43.75 41.2099 44.19 40.8599C44.14 40.7099 44.43 40.3499 44.02 40.4799Z" fill="white"/>
<path d="M38.23 43.4899L37.72 42.7299L38.14 43.5599L38.23 43.4899Z" fill="white"/>
<path d="M34.58 47.9199C34.58 47.6699 34.12 47.9099 34.15 47.6799C33.98 48.0299 33.76 47.9999 34.18 48.4599C34.76 48.3999 34.02 47.8999 34.58 47.9199Z" fill="white"/>
<path d="M34.14 47.6799C34.17 47.6199 34.2 47.5599 34.22 47.4799C34.17 47.5699 34.15 47.6299 34.14 47.6799Z" fill="white"/>
<path d="M62.7 32.1099L62.9 32.4099L62.85 32.0499L62.7 32.1099Z" fill="white"/>
<path d="M63.52 31.7299L63.34 32.2899L63.73 31.8899C63.65 31.8899 63.51 31.8799 63.52 31.7299Z" fill="white"/>
<path d="M19.58 38.5099L19.68 38.6199C19.84 38.6499 19.91 38.5699 20.04 38.4199L19.58 38.5099Z" fill="white"/>
<path d="M23.73 34.96L23.66 35L24.1 35.33L23.73 34.96Z" fill="white"/>
<path d="M26.94 32.1299C26.78 32.1899 26.66 32.3899 26.5 32.4499C26.78 32.1899 27.29 32.6799 26.94 32.1299Z" fill="white"/>
<path d="M127.68 12.37C118.08 -8.21003 94.09 3.25997 81.63 14.15C80.01 15.57 78.46 17.08 77 18.66C71.95 24.1 67.24 30.06 62.87 36.54C58.51 43.02 54.4 49.63 50.56 56.37C46.71 63.11 42.87 69.24 39.03 74.77C35.18 80.3 31.3 84.81 27.37 88.31C23.44 91.81 19.23 93.56 14.74 93.56C14.54 93.56 14.34 93.53 14.14 93.52C14.03 93.52 13.93 93.51 13.82 93.5C13.75 93.5 13.67 93.5 13.6 93.49C12.07 93.35 10.67 92.93 9.41999 92.2C7.85999 91.29 6.95999 90.28 6.69999 89.15C7.90999 89.24 8.81999 88.81 9.41999 87.85C10.02 86.9 10.33 85.91 10.33 84.87C10.33 83.75 9.95999 82.8 9.22999 82.02C8.48999 81.24 7.51999 80.85 6.30999 80.85C4.66999 80.85 3.36999 81.33 2.41999 82.28C1.46999 83.23 0.98999 84.48 0.98999 86.04C0.98999 87.6 1.37999 88.96 2.15999 90.12C2.93999 91.29 3.90999 92.24 5.07999 92.97C6.24999 93.7 7.55999 94.24 9.02999 94.59C9.64999 94.74 10.27 94.84 10.88 94.93C11.18 94.97 11.48 95 11.78 95.03C12.3 95.08 12.81 95.11 13.31 95.11C14.75 95.11 16.17 95 17.56 94.81C22.17 94.17 26.5 92.48 30.55 89.73C35.82 86.15 40.79 81.52 45.45 75.86C50.12 70.2 54.54 63.96 58.73 57.13C62.92 50.31 67.02 43.63 71.04 37.11C71.2 36.85 71.37 36.59 71.53 36.33C71.88 35.77 72.22 35.21 72.57 34.66C76.08 29.1 79.59 24 83.09 19.36C85.01 16.82 86.96 14.48 88.96 12.44C93.06 8.23997 98.32 5.15997 103.96 3.53997C108.51 2.22997 114.03 1.26997 118.53 3.27997C122.93 5.24997 126.2 9.58997 128.13 13.5C128.05 13.14 127.87 12.72 127.69 12.34L127.68 12.37Z" fill="white"/>
</g>
<path d="M3.11813 127.416C3.50213 127.416 3.80079 127.533 4.01413 127.768C4.24879 128.003 4.36613 128.301 4.36613 128.664C4.36613 129.517 3.87546 129.944 2.89413 129.944C2.25413 129.944 1.75279 129.709 1.39013 129.24C1.02746 128.749 0.846125 128.056 0.846125 127.16C0.846125 126.307 1.03813 125.517 1.42213 124.792C1.80613 124.045 2.37146 123.309 3.11813 122.584C3.13946 122.563 3.17146 122.552 3.21413 122.552C3.27813 122.552 3.33146 122.584 3.37413 122.648C3.41679 122.712 3.41679 122.765 3.37413 122.808C2.32879 123.875 1.80613 125.133 1.80613 126.584C1.80613 127.181 1.91279 127.619 2.12613 127.896C2.31813 127.576 2.64879 127.416 3.11813 127.416ZM7.82213 127.416C8.20613 127.416 8.50479 127.533 8.71813 127.768C8.95279 128.003 9.07013 128.301 9.07013 128.664C9.07013 129.517 8.57946 129.944 7.59813 129.944C6.95813 129.944 6.45679 129.709 6.09413 129.24C5.73146 128.749 5.55013 128.056 5.55013 127.16C5.55013 126.307 5.74213 125.517 6.12613 124.792C6.51013 124.045 7.07546 123.309 7.82213 122.584C7.84346 122.563 7.87546 122.552 7.91813 122.552C7.98213 122.552 8.03546 122.584 8.07812 122.648C8.12079 122.712 8.12079 122.765 8.07812 122.808C7.03279 123.875 6.51013 125.133 6.51013 126.584C6.51013 127.181 6.61679 127.619 6.83013 127.896C7.02213 127.576 7.35279 127.416 7.82213 127.416ZM21.9369 126.744C21.9369 127.576 22.1395 128.301 22.5449 128.92C22.9502 129.539 23.4409 130.061 24.0169 130.488C24.6142 130.893 25.4249 131.405 26.4489 132.024C27.5795 132.707 28.4435 133.272 29.0409 133.72C29.6595 134.168 30.1822 134.744 30.6089 135.448C31.0569 136.131 31.2809 136.952 31.2809 137.912C31.2809 138.936 31.0249 139.864 30.5129 140.696C30.0009 141.528 29.2435 142.189 28.2409 142.68C27.2595 143.149 26.0755 143.384 24.6889 143.384C23.0462 143.384 21.5422 143.011 20.1769 142.264C20.0702 142.2 19.9955 142.125 19.9529 142.04C19.9315 141.955 19.9102 141.827 19.8889 141.656L19.4729 137.304C19.4515 137.219 19.4942 137.165 19.6009 137.144C19.7289 137.123 19.8035 137.155 19.8249 137.24C20.1662 138.776 20.7955 140.099 21.7129 141.208C22.6515 142.317 23.8889 142.872 25.4249 142.872C26.4915 142.872 27.3875 142.584 28.1129 142.008C28.8595 141.411 29.2329 140.472 29.2329 139.192C29.2329 138.232 29.0195 137.4 28.5929 136.696C28.1662 135.992 27.6435 135.416 27.0249 134.968C26.4275 134.499 25.6062 133.955 24.5609 133.336C23.5369 132.717 22.7262 132.184 22.1289 131.736C21.5529 131.288 21.0622 130.723 20.6569 130.04C20.2515 129.357 20.0489 128.557 20.0489 127.64C20.0489 126.573 20.3262 125.667 20.8809 124.92C21.4569 124.152 22.1929 123.587 23.0889 123.224C24.0062 122.84 24.9769 122.648 26.0009 122.648C27.2595 122.648 28.5075 122.904 29.7449 123.416C30.0649 123.523 30.2249 123.704 30.2249 123.96L30.4489 127.64C30.4489 127.725 30.3955 127.768 30.2889 127.768C30.1822 127.768 30.1182 127.725 30.0969 127.64C29.9262 126.531 29.4675 125.507 28.7209 124.568C27.9742 123.608 26.8969 123.128 25.4889 123.128C24.2942 123.128 23.3982 123.48 22.8009 124.184C22.2249 124.867 21.9369 125.72 21.9369 126.744ZM46.2956 141.272C46.381 141.272 46.4343 141.325 46.4556 141.432C46.477 141.517 46.445 141.581 46.3596 141.624L43.0636 143.192C42.9783 143.235 42.893 143.256 42.8076 143.256C42.5303 143.256 42.285 143.075 42.0716 142.712C41.8583 142.328 41.7196 141.816 41.6556 141.176L39.9916 142.264C39.4583 142.605 38.989 142.851 38.5836 143C38.1783 143.149 37.7516 143.224 37.3036 143.224C36.5143 143.224 35.8956 143.021 35.4476 142.616C35.021 142.189 34.8076 141.656 34.8076 141.016C34.8076 140.376 35.0636 139.821 35.5756 139.352C36.0876 138.883 36.9303 138.435 38.1036 138.008L41.6236 136.696V134.52C41.6236 132.131 40.9516 130.936 39.6076 130.936C38.8823 130.936 38.3276 131.181 37.9436 131.672C37.581 132.141 37.3356 132.685 37.2076 133.304C37.1436 133.688 37.0263 134.008 36.8556 134.264C36.685 134.499 36.397 134.616 35.9916 134.616C35.6503 134.616 35.3836 134.52 35.1916 134.328C35.021 134.136 34.9356 133.912 34.9356 133.656C34.9356 133.144 35.2663 132.632 35.9276 132.12C36.589 131.608 37.3783 131.181 38.2956 130.84C39.213 130.499 40.0343 130.328 40.7596 130.328C41.6343 130.328 42.2956 130.605 42.7436 131.16C43.1916 131.715 43.4156 132.515 43.4156 133.56V139.544C43.4156 140.291 43.5116 140.835 43.7036 141.176C43.8956 141.517 44.2156 141.688 44.6636 141.688C45.069 141.688 45.5916 141.549 46.2316 141.272H46.2956ZM41.6236 140.728V140.568V137.144L38.6476 138.296C38.0503 138.531 37.613 138.808 37.3356 139.128C37.0796 139.427 36.9516 139.789 36.9516 140.216C36.9516 140.728 37.1116 141.165 37.4316 141.528C37.773 141.869 38.2103 142.04 38.7436 142.04C39.1703 142.04 39.6823 141.869 40.2796 141.528L41.6236 140.728ZM59.8389 130.648C59.8815 130.648 59.9029 130.712 59.9029 130.84C59.9029 130.968 59.8815 131.032 59.8389 131.032C59.3055 131.032 58.8469 131.213 58.4629 131.576C58.0789 131.917 57.7162 132.515 57.3749 133.368L53.3749 142.968C53.3322 143.075 53.2149 143.128 53.0229 143.128C52.8309 143.128 52.7135 143.075 52.6709 142.968L48.1909 133.304C47.7642 132.387 47.4015 131.779 47.1029 131.48C46.8255 131.181 46.4735 131.032 46.0469 131.032C45.9829 131.032 45.9509 130.968 45.9509 130.84C45.9509 130.712 45.9829 130.648 46.0469 130.648C46.4735 130.648 46.8042 130.659 47.0389 130.68L48.2549 130.712L50.3349 130.68C50.6549 130.659 51.0815 130.648 51.6149 130.648C51.6789 130.648 51.7109 130.712 51.7109 130.84C51.7109 130.968 51.6789 131.032 51.6149 131.032C50.3349 131.032 49.6949 131.288 49.6949 131.8C49.6949 131.949 49.7375 132.109 49.8229 132.28L53.7269 140.536L56.7349 133.208C56.8842 132.803 56.9589 132.493 56.9589 132.28C56.9589 131.853 56.7562 131.544 56.3509 131.352C55.9455 131.139 55.3055 131.032 54.4309 131.032C54.3882 131.032 54.3669 130.968 54.3669 130.84C54.3669 130.712 54.3882 130.648 54.4309 130.648C55.0069 130.648 55.4442 130.659 55.7429 130.68L57.6629 130.712L58.8149 130.68C59.0282 130.659 59.3695 130.648 59.8389 130.648ZM67.3139 143.416C66.0765 143.416 64.9779 143.117 64.0179 142.52C63.0792 141.901 62.3539 141.08 61.8419 140.056C61.3299 139.011 61.0739 137.88 61.0739 136.664C61.0739 135.277 61.4045 134.104 62.0659 133.144C62.7485 132.163 63.6125 131.437 64.6579 130.968C65.7245 130.477 66.8019 130.232 67.8899 130.232C69.1485 130.232 70.2472 130.541 71.1859 131.16C72.1245 131.779 72.8392 132.6 73.3299 133.624C73.8419 134.627 74.0979 135.693 74.0979 136.824C74.0979 138.147 73.7885 139.309 73.1699 140.312C72.5512 141.293 71.7192 142.061 70.6739 142.616C69.6499 143.149 68.5299 143.416 67.3139 143.416ZM68.2419 142.808C69.4152 142.808 70.3219 142.392 70.9619 141.56C71.6019 140.728 71.9219 139.448 71.9219 137.72C71.9219 136.397 71.6979 135.213 71.2499 134.168C70.8232 133.123 70.2259 132.312 69.4579 131.736C68.6899 131.139 67.8152 130.84 66.8339 130.84C65.6819 130.84 64.7859 131.256 64.1459 132.088C63.5272 132.92 63.2179 134.115 63.2179 135.672C63.2179 136.973 63.4312 138.168 63.8579 139.256C64.2845 140.344 64.8819 141.208 65.6499 141.848C66.4179 142.488 67.2819 142.808 68.2419 142.808ZM84.0344 130.36C84.5037 130.36 84.9517 130.488 85.3784 130.744C85.805 131 86.0184 131.309 86.0184 131.672C86.0184 131.949 85.9224 132.184 85.7304 132.376C85.5597 132.568 85.3037 132.664 84.9624 132.664C84.7704 132.664 84.5997 132.632 84.4504 132.568C84.3224 132.483 84.1624 132.365 83.9704 132.216C83.7784 132.045 83.597 131.917 83.4264 131.832C83.2557 131.747 83.053 131.704 82.8184 131.704C82.541 131.704 82.2424 131.821 81.9224 132.056C81.6237 132.291 81.1437 132.792 80.4824 133.56V140.408C80.4824 141.048 80.557 141.517 80.7064 141.816C80.877 142.115 81.1757 142.328 81.6024 142.456C82.029 142.563 82.6904 142.616 83.5864 142.616C83.6717 142.616 83.7144 142.68 83.7144 142.808C83.7144 142.936 83.6717 143 83.5864 143C82.9037 143 82.3597 142.989 81.9544 142.968L79.5864 142.936L77.8264 142.968C77.549 142.989 77.165 143 76.6744 143C76.6104 143 76.5784 142.936 76.5784 142.808C76.5784 142.68 76.6104 142.616 76.6744 142.616C77.2504 142.616 77.677 142.563 77.9544 142.456C78.2317 142.328 78.413 142.115 78.4984 141.816C78.605 141.517 78.6584 141.048 78.6584 140.408V134.072C78.6584 133.347 78.573 132.824 78.4024 132.504C78.2317 132.184 77.9437 132.024 77.5384 132.024C77.197 132.024 76.621 132.184 75.8104 132.504H75.7464C75.661 132.504 75.597 132.461 75.5544 132.376C75.533 132.269 75.565 132.195 75.6504 132.152L79.3624 130.392L79.5544 130.36C79.7464 130.36 79.949 130.605 80.1624 131.096C80.3757 131.587 80.4824 132.216 80.4824 132.984V133.016C81.357 131.992 82.0504 131.299 82.5624 130.936C83.0744 130.552 83.565 130.36 84.0344 130.36ZM104.343 141.336C104.428 141.336 104.492 141.389 104.535 141.496C104.577 141.581 104.567 141.645 104.503 141.688C103.713 142.307 102.999 142.744 102.359 143C101.74 143.256 101.089 143.384 100.407 143.384C99.5106 143.384 98.7746 143.181 98.1986 142.776C97.6226 142.371 97.3346 141.699 97.3346 140.76V133.24C97.3346 132.685 97.292 132.291 97.2066 132.056C97.1426 131.821 97.004 131.672 96.7906 131.608C96.5773 131.523 96.2146 131.48 95.7026 131.48C95.6173 131.48 95.5746 131.416 95.5746 131.288C95.5746 131.139 95.6173 131.064 95.7026 131.064C96.556 131.043 97.2493 130.819 97.7826 130.392C98.316 129.944 98.6253 129.357 98.7106 128.632C98.7106 128.568 98.796 128.536 98.9666 128.536C99.116 128.536 99.1906 128.568 99.1906 128.632V131C100.257 130.979 101.74 130.872 103.639 130.68C103.681 130.68 103.724 130.765 103.767 130.936C103.831 131.085 103.863 131.256 103.863 131.448C103.863 131.619 103.82 131.8 103.735 131.992C103.671 132.163 103.596 132.237 103.511 132.216C102.337 131.917 100.897 131.747 99.1906 131.704V139.672C99.1906 140.547 99.404 141.197 99.8306 141.624C100.279 142.051 100.908 142.264 101.719 142.264C102.657 142.264 103.511 141.965 104.279 141.368L104.343 141.336ZM120.467 142.616C120.531 142.616 120.563 142.68 120.563 142.808C120.563 142.936 120.531 143 120.467 143C119.976 143 119.582 142.989 119.283 142.968L117.555 142.936L115.827 142.968C115.528 142.989 115.134 143 114.643 143C114.579 143 114.547 142.936 114.547 142.808C114.547 142.68 114.579 142.616 114.643 142.616C115.219 142.616 115.646 142.563 115.923 142.456C116.2 142.328 116.392 142.115 116.499 141.816C116.606 141.496 116.659 141.027 116.659 140.408V135.32C116.659 134.061 116.414 133.133 115.923 132.536C115.454 131.917 114.718 131.608 113.715 131.608C113.054 131.608 112.382 131.789 111.699 132.152C111.016 132.493 110.398 132.973 109.843 133.592V140.408C109.843 141.027 109.896 141.496 110.003 141.816C110.11 142.115 110.302 142.328 110.579 142.456C110.856 142.563 111.283 142.616 111.859 142.616C111.923 142.616 111.955 142.68 111.955 142.808C111.955 142.936 111.923 143 111.859 143C111.368 143 110.974 142.989 110.675 142.968L108.947 142.936L107.219 142.968C106.92 142.989 106.526 143 106.035 143C105.971 143 105.939 142.936 105.939 142.808C105.939 142.68 105.971 142.616 106.035 142.616C106.611 142.616 107.038 142.563 107.315 142.456C107.592 142.328 107.784 142.115 107.891 141.816C107.998 141.496 108.051 141.027 108.051 140.408V123.864C108.051 123.096 107.976 122.541 107.827 122.2C107.678 121.859 107.411 121.688 107.027 121.688C106.707 121.688 106.216 121.837 105.555 122.136H105.491C105.427 122.136 105.374 122.083 105.331 121.976C105.288 121.869 105.31 121.805 105.395 121.784L109.459 119.8H109.555C109.64 119.8 109.704 119.832 109.747 119.896C109.811 119.939 109.843 119.992 109.843 120.056V133.048C110.654 132.109 111.454 131.427 112.243 131C113.054 130.552 113.896 130.328 114.771 130.328C115.944 130.328 116.851 130.659 117.491 131.32C118.131 131.981 118.451 132.941 118.451 134.2V140.408C118.451 141.027 118.504 141.496 118.611 141.816C118.718 142.115 118.91 142.328 119.187 142.456C119.464 142.563 119.891 142.616 120.467 142.616ZM132.66 141.208C132.724 141.208 132.777 141.251 132.82 141.336C132.884 141.4 132.895 141.464 132.852 141.528C131.444 142.765 129.887 143.384 128.18 143.384C126.943 143.384 125.887 143.096 125.012 142.52C124.137 141.944 123.465 141.187 122.996 140.248C122.548 139.309 122.324 138.307 122.324 137.24C122.324 135.981 122.623 134.829 123.22 133.784C123.817 132.717 124.628 131.885 125.652 131.288C126.697 130.669 127.839 130.36 129.076 130.36C130.271 130.36 131.188 130.68 131.828 131.32C132.468 131.96 132.788 132.856 132.788 134.008C132.788 134.307 132.756 134.52 132.692 134.648C132.649 134.776 132.564 134.84 132.436 134.84L124.5 134.872C124.457 135.341 124.436 135.725 124.436 136.024C124.436 137.88 124.873 139.384 125.748 140.536C126.623 141.688 127.849 142.264 129.428 142.264C130.068 142.264 130.612 142.179 131.06 142.008C131.529 141.837 132.052 141.571 132.628 141.208H132.66ZM128.02 131C127.103 131 126.345 131.309 125.748 131.928C125.151 132.525 124.756 133.368 124.564 134.456L130.644 134.328C130.644 133.24 130.409 132.419 129.94 131.864C129.471 131.288 128.831 131 128.02 131ZM146.374 126.744C146.374 127.576 146.577 128.301 146.982 128.92C147.388 129.539 147.878 130.061 148.454 130.488C149.052 130.893 149.862 131.405 150.886 132.024C152.017 132.707 152.881 133.272 153.478 133.72C154.097 134.168 154.62 134.744 155.046 135.448C155.494 136.131 155.718 136.952 155.718 137.912C155.718 138.936 155.462 139.864 154.95 140.696C154.438 141.528 153.681 142.189 152.678 142.68C151.697 143.149 150.513 143.384 149.126 143.384C147.484 143.384 145.98 143.011 144.614 142.264C144.508 142.2 144.433 142.125 144.39 142.04C144.369 141.955 144.348 141.827 144.326 141.656L143.91 137.304C143.889 137.219 143.932 137.165 144.038 137.144C144.166 137.123 144.241 137.155 144.262 137.24C144.604 138.776 145.233 140.099 146.15 141.208C147.089 142.317 148.326 142.872 149.862 142.872C150.929 142.872 151.825 142.584 152.55 142.008C153.297 141.411 153.67 140.472 153.67 139.192C153.67 138.232 153.457 137.4 153.03 136.696C152.604 135.992 152.081 135.416 151.462 134.968C150.865 134.499 150.044 133.955 148.998 133.336C147.974 132.717 147.164 132.184 146.566 131.736C145.99 131.288 145.5 130.723 145.094 130.04C144.689 129.357 144.486 128.557 144.486 127.64C144.486 126.573 144.764 125.667 145.318 124.92C145.894 124.152 146.63 123.587 147.526 123.224C148.444 122.84 149.414 122.648 150.438 122.648C151.697 122.648 152.945 122.904 154.182 123.416C154.502 123.523 154.662 123.704 154.662 123.96L154.886 127.64C154.886 127.725 154.833 127.768 154.726 127.768C154.62 127.768 154.556 127.725 154.534 127.64C154.364 126.531 153.905 125.507 153.158 124.568C152.412 123.608 151.334 123.128 149.926 123.128C148.732 123.128 147.836 123.48 147.238 124.184C146.662 124.867 146.374 125.72 146.374 126.744ZM178.765 130.648C178.829 130.648 178.861 130.712 178.861 130.84C178.861 130.968 178.829 131.032 178.765 131.032C178.253 131.032 177.805 131.203 177.421 131.544C177.058 131.885 176.696 132.493 176.333 133.368L172.365 142.968C172.344 143.053 172.226 143.096 172.013 143.096C171.8 143.096 171.682 143.053 171.661 142.968L168.045 135.192L164.781 142.968C164.76 143.053 164.642 143.096 164.429 143.096C164.216 143.096 164.098 143.053 164.077 142.968L159.597 133.304C159.17 132.387 158.808 131.779 158.509 131.48C158.232 131.181 157.88 131.032 157.453 131.032C157.389 131.032 157.357 130.968 157.357 130.84C157.357 130.712 157.389 130.648 157.453 130.648C157.88 130.648 158.21 130.659 158.445 130.68L159.661 130.712L161.581 130.68C161.901 130.659 162.36 130.648 162.957 130.648C163.021 130.648 163.053 130.712 163.053 130.84C163.053 130.968 163.021 131.032 162.957 131.032C162.36 131.032 161.901 131.096 161.581 131.224C161.261 131.331 161.101 131.523 161.101 131.8C161.101 131.949 161.144 132.109 161.229 132.28L165.133 140.504L167.661 134.424L167.149 133.304C166.722 132.387 166.37 131.779 166.093 131.48C165.816 131.181 165.474 131.032 165.069 131.032C165.026 131.032 165.005 130.968 165.005 130.84C165.005 130.712 165.026 130.648 165.069 130.648C165.496 130.648 165.816 130.659 166.029 130.68L167.213 130.712L169.293 130.68C169.592 130.659 169.997 130.648 170.509 130.648C170.573 130.648 170.605 130.712 170.605 130.84C170.605 130.968 170.573 131.032 170.509 131.032C169.293 131.032 168.685 131.288 168.685 131.8C168.685 131.949 168.728 132.109 168.813 132.28L172.685 140.568L175.693 133.208C175.842 132.888 175.917 132.579 175.917 132.28C175.917 131.853 175.714 131.544 175.309 131.352C174.904 131.139 174.264 131.032 173.389 131.032C173.346 131.032 173.325 130.968 173.325 130.84C173.325 130.712 173.346 130.648 173.389 130.648C173.965 130.648 174.402 130.659 174.701 130.68L176.621 130.712L177.773 130.68C177.986 130.659 178.317 130.648 178.765 130.648ZM190.41 141.208C190.474 141.208 190.527 141.251 190.57 141.336C190.634 141.4 190.645 141.464 190.602 141.528C189.194 142.765 187.637 143.384 185.93 143.384C184.693 143.384 183.637 143.096 182.762 142.52C181.887 141.944 181.215 141.187 180.746 140.248C180.298 139.309 180.074 138.307 180.074 137.24C180.074 135.981 180.373 134.829 180.97 133.784C181.567 132.717 182.378 131.885 183.402 131.288C184.447 130.669 185.589 130.36 186.826 130.36C188.021 130.36 188.938 130.68 189.578 131.32C190.218 131.96 190.538 132.856 190.538 134.008C190.538 134.307 190.506 134.52 190.442 134.648C190.399 134.776 190.314 134.84 190.186 134.84L182.25 134.872C182.207 135.341 182.186 135.725 182.186 136.024C182.186 137.88 182.623 139.384 183.498 140.536C184.373 141.688 185.599 142.264 187.178 142.264C187.818 142.264 188.362 142.179 188.81 142.008C189.279 141.837 189.802 141.571 190.378 141.208H190.41ZM185.77 131C184.853 131 184.095 131.309 183.498 131.928C182.901 132.525 182.506 133.368 182.314 134.456L188.394 134.328C188.394 133.24 188.159 132.419 187.69 131.864C187.221 131.288 186.581 131 185.77 131ZM203.285 141.208C203.349 141.208 203.402 141.251 203.445 141.336C203.509 141.4 203.52 141.464 203.477 141.528C202.069 142.765 200.512 143.384 198.805 143.384C197.568 143.384 196.512 143.096 195.637 142.52C194.762 141.944 194.09 141.187 193.621 140.248C193.173 139.309 192.949 138.307 192.949 137.24C192.949 135.981 193.248 134.829 193.845 133.784C194.442 132.717 195.253 131.885 196.277 131.288C197.322 130.669 198.464 130.36 199.701 130.36C200.896 130.36 201.813 130.68 202.453 131.32C203.093 131.96 203.413 132.856 203.413 134.008C203.413 134.307 203.381 134.52 203.317 134.648C203.274 134.776 203.189 134.84 203.061 134.84L195.125 134.872C195.082 135.341 195.061 135.725 195.061 136.024C195.061 137.88 195.498 139.384 196.373 140.536C197.248 141.688 198.474 142.264 200.053 142.264C200.693 142.264 201.237 142.179 201.685 142.008C202.154 141.837 202.677 141.571 203.253 141.208H203.285ZM198.645 131C197.728 131 196.97 131.309 196.373 131.928C195.776 132.525 195.381 133.368 195.189 134.456L201.269 134.328C201.269 133.24 201.034 132.419 200.565 131.864C200.096 131.288 199.456 131 198.645 131ZM214.811 141.336C214.897 141.336 214.961 141.389 215.003 141.496C215.046 141.581 215.035 141.645 214.971 141.688C214.182 142.307 213.467 142.744 212.827 143C212.209 143.256 211.558 143.384 210.875 143.384C209.979 143.384 209.243 143.181 208.667 142.776C208.091 142.371 207.803 141.699 207.803 140.76V133.24C207.803 132.685 207.761 132.291 207.675 132.056C207.611 131.821 207.473 131.672 207.259 131.608C207.046 131.523 206.683 131.48 206.171 131.48C206.086 131.48 206.043 131.416 206.043 131.288C206.043 131.139 206.086 131.064 206.171 131.064C207.025 131.043 207.718 130.819 208.251 130.392C208.785 129.944 209.094 129.357 209.179 128.632C209.179 128.568 209.265 128.536 209.435 128.536C209.585 128.536 209.659 128.568 209.659 128.632V131C210.726 130.979 212.209 130.872 214.107 130.68C214.15 130.68 214.193 130.765 214.235 130.936C214.299 131.085 214.331 131.256 214.331 131.448C214.331 131.619 214.289 131.8 214.203 131.992C214.139 132.163 214.065 132.237 213.979 132.216C212.806 131.917 211.366 131.747 209.659 131.704V139.672C209.659 140.547 209.873 141.197 210.299 141.624C210.747 142.051 211.377 142.264 212.187 142.264C213.126 142.264 213.979 141.965 214.747 141.368L214.811 141.336ZM231.512 142.616C231.576 142.616 231.608 142.68 231.608 142.808C231.608 142.936 231.576 143 231.512 143C231.021 143 230.637 142.989 230.36 142.968L228.632 142.936L226.872 142.968C226.595 142.989 226.211 143 225.72 143C225.656 143 225.624 142.936 225.624 142.808C225.624 142.68 225.656 142.616 225.72 142.616C226.296 142.616 226.723 142.563 227 142.456C227.277 142.328 227.459 142.115 227.544 141.816C227.651 141.517 227.704 141.048 227.704 140.408V135.224C227.704 133.965 227.459 133.037 226.968 132.44C226.499 131.843 225.763 131.544 224.76 131.544C224.099 131.544 223.427 131.725 222.744 132.088C222.083 132.429 221.475 132.909 220.92 133.528V140.408C220.92 141.048 220.963 141.517 221.048 141.816C221.155 142.115 221.347 142.328 221.624 142.456C221.901 142.563 222.328 142.616 222.904 142.616C222.968 142.616 223 142.68 223 142.808C223 142.936 222.968 143 222.904 143C222.413 143 222.029 142.989 221.752 142.968L220.024 142.936L218.264 142.968C217.987 142.989 217.603 143 217.112 143C217.048 143 217.016 142.936 217.016 142.808C217.016 142.68 217.048 142.616 217.112 142.616C217.688 142.616 218.115 142.563 218.392 142.456C218.669 142.328 218.851 142.115 218.936 141.816C219.043 141.517 219.096 141.048 219.096 140.408V134.072C219.096 133.347 219.011 132.824 218.84 132.504C218.669 132.184 218.381 132.024 217.976 132.024C217.635 132.024 217.059 132.184 216.248 132.504H216.184C216.099 132.504 216.035 132.461 215.992 132.376C215.971 132.269 216.003 132.195 216.088 132.152L219.8 130.392L219.992 130.36C220.184 130.36 220.387 130.605 220.6 131.096C220.813 131.587 220.92 132.216 220.92 132.984C221.731 132.045 222.531 131.352 223.32 130.904C224.131 130.456 224.963 130.232 225.816 130.232C227.011 130.232 227.928 130.563 228.568 131.224C229.208 131.885 229.528 132.856 229.528 134.136V140.408C229.528 141.048 229.571 141.517 229.656 141.816C229.763 142.115 229.955 142.328 230.232 142.456C230.509 142.563 230.936 142.616 231.512 142.616ZM243.691 141.208C243.755 141.208 243.808 141.251 243.851 141.336C243.915 141.4 243.926 141.464 243.883 141.528C242.475 142.765 240.918 143.384 239.211 143.384C237.974 143.384 236.918 143.096 236.043 142.52C235.168 141.944 234.496 141.187 234.027 140.248C233.579 139.309 233.355 138.307 233.355 137.24C233.355 135.981 233.654 134.829 234.251 133.784C234.848 132.717 235.659 131.885 236.683 131.288C237.728 130.669 238.87 130.36 240.107 130.36C241.302 130.36 242.219 130.68 242.859 131.32C243.499 131.96 243.819 132.856 243.819 134.008C243.819 134.307 243.787 134.52 243.723 134.648C243.68 134.776 243.595 134.84 243.467 134.84L235.531 134.872C235.488 135.341 235.467 135.725 235.467 136.024C235.467 137.88 235.904 139.384 236.779 140.536C237.654 141.688 238.88 142.264 240.459 142.264C241.099 142.264 241.643 142.179 242.091 142.008C242.56 141.837 243.083 141.571 243.659 141.208H243.691ZM239.051 131C238.134 131 237.376 131.309 236.779 131.928C236.182 132.525 235.787 133.368 235.595 134.456L241.675 134.328C241.675 133.24 241.44 132.419 240.971 131.864C240.502 131.288 239.862 131 239.051 131ZM248.498 132.6C248.498 133.347 248.743 133.944 249.234 134.392C249.724 134.819 250.439 135.277 251.378 135.768C252.124 136.152 252.7 136.483 253.106 136.76C253.532 137.037 253.895 137.4 254.194 137.848C254.492 138.296 254.642 138.84 254.642 139.48C254.642 140.568 254.236 141.485 253.426 142.232C252.615 142.979 251.516 143.352 250.13 143.352C248.999 143.352 247.975 143.032 247.058 142.392C246.93 142.307 246.866 142.179 246.866 142.008L246.802 139.512C246.802 139.448 246.855 139.416 246.962 139.416C247.09 139.395 247.164 139.416 247.186 139.48C247.591 140.547 248.114 141.357 248.754 141.912C249.415 142.467 250.172 142.744 251.026 142.744C251.73 142.744 252.263 142.573 252.626 142.232C252.988 141.891 253.148 141.389 253.106 140.728C253.084 139.917 252.828 139.299 252.338 138.872C251.868 138.424 251.154 137.965 250.194 137.496C249.49 137.155 248.924 136.845 248.498 136.568C248.092 136.291 247.74 135.928 247.442 135.48C247.164 135.032 247.026 134.477 247.026 133.816C247.026 132.664 247.452 131.789 248.306 131.192C249.18 130.573 250.204 130.264 251.378 130.264C252.231 130.264 253.01 130.424 253.714 130.744C253.842 130.787 253.916 130.84 253.938 130.904C253.98 130.947 254.002 131.011 254.002 131.096C254.002 131.523 253.991 131.853 253.97 132.088L253.938 133.432C253.938 133.475 253.874 133.496 253.746 133.496C253.618 133.496 253.554 133.475 253.554 133.432C253.554 132.984 253.383 132.568 253.042 132.184C252.7 131.779 252.274 131.459 251.762 131.224C251.25 130.989 250.738 130.872 250.226 130.872C249.692 130.872 249.266 131.021 248.946 131.32C248.647 131.597 248.498 132.024 248.498 132.6ZM259.123 132.6C259.123 133.347 259.368 133.944 259.859 134.392C260.349 134.819 261.064 135.277 262.003 135.768C262.749 136.152 263.325 136.483 263.731 136.76C264.157 137.037 264.52 137.4 264.819 137.848C265.117 138.296 265.267 138.84 265.267 139.48C265.267 140.568 264.861 141.485 264.051 142.232C263.24 142.979 262.141 143.352 260.755 143.352C259.624 143.352 258.6 143.032 257.683 142.392C257.555 142.307 257.491 142.179 257.491 142.008L257.427 139.512C257.427 139.448 257.48 139.416 257.587 139.416C257.715 139.395 257.789 139.416 257.811 139.48C258.216 140.547 258.739 141.357 259.379 141.912C260.04 142.467 260.797 142.744 261.651 142.744C262.355 142.744 262.888 142.573 263.251 142.232C263.613 141.891 263.773 141.389 263.731 140.728C263.709 139.917 263.453 139.299 262.963 138.872C262.493 138.424 261.779 137.965 260.819 137.496C260.115 137.155 259.549 136.845 259.123 136.568C258.717 136.291 258.365 135.928 258.067 135.48C257.789 135.032 257.651 134.477 257.651 133.816C257.651 132.664 258.077 131.789 258.931 131.192C259.805 130.573 260.829 130.264 262.003 130.264C262.856 130.264 263.635 130.424 264.339 130.744C264.467 130.787 264.541 130.84 264.563 130.904C264.605 130.947 264.627 131.011 264.627 131.096C264.627 131.523 264.616 131.853 264.595 132.088L264.563 133.432C264.563 133.475 264.499 133.496 264.371 133.496C264.243 133.496 264.179 133.475 264.179 133.432C264.179 132.984 264.008 132.568 263.667 132.184C263.325 131.779 262.899 131.459 262.387 131.224C261.875 130.989 261.363 130.872 260.851 130.872C260.317 130.872 259.891 131.021 259.571 131.32C259.272 131.597 259.123 132.024 259.123 132.6ZM277.243 127.416C277.627 127.416 277.926 127.533 278.139 127.768C278.374 128.003 278.491 128.301 278.491 128.664C278.491 129.517 278 129.944 277.019 129.944C276.379 129.944 275.878 129.709 275.515 129.24C275.152 128.749 274.971 128.056 274.971 127.16C274.971 126.307 275.163 125.517 275.547 124.792C275.931 124.045 276.496 123.309 277.243 122.584C277.264 122.563 277.296 122.552 277.339 122.552C277.403 122.552 277.456 122.584 277.499 122.648C277.542 122.712 277.542 122.765 277.499 122.808C276.454 123.875 275.931 125.133 275.931 126.584C275.931 127.181 276.038 127.619 276.251 127.896C276.443 127.576 276.774 127.416 277.243 127.416ZM281.947 127.416C282.331 127.416 282.63 127.533 282.843 127.768C283.078 128.003 283.195 128.301 283.195 128.664C283.195 129.517 282.704 129.944 281.723 129.944C281.083 129.944 280.582 129.709 280.219 129.24C279.856 128.749 279.675 128.056 279.675 127.16C279.675 126.307 279.867 125.517 280.251 124.792C280.635 124.045 281.2 123.309 281.947 122.584C281.968 122.563 282 122.552 282.043 122.552C282.107 122.552 282.16 122.584 282.203 122.648C282.246 122.712 282.246 122.765 282.203 122.808C281.158 123.875 280.635 125.133 280.635 126.584C280.635 127.181 280.742 127.619 280.955 127.896C281.147 127.576 281.478 127.416 281.947 127.416Z" fill="white"/>
<defs>
<clipPath id="clip0_153_9422">
<rect width="282.51" height="95.16" fill="white" transform="translate(1)"/>
</clipPath>
</defs>
</svg>
